<svg xmlns="http://www.w3.org/2000/svg" width="1463" height="166" viewBox="0 0 1463 166" font-family="monospace">
<defs>
<radialGradient id="bg" cx="50%" cy="38%" r="90%"><stop offset="0%" stop-color="#0b1330"/><stop offset="100%" stop-color="#05070f"/></radialGradient>
<linearGradient id="cg" x1="0" y1="0" x2="0" y2="1"><stop offset="0%" stop-color="#13203f"/><stop offset="100%" stop-color="#0e1730"/></linearGradient>
<filter id="sf" x="-40%" y="-40%" width="180%" height="180%"><feDropShadow dx="0" dy="2" stdDeviation="4" flood-color="#000" flood-opacity="0.5"/></filter>
</defs>
<rect width="1463" height="166" fill="url(#bg)"/>
<g><circle cx="71.6" cy="31.0" r="0.7" fill="#cfe0ff" opacity="0.33"/><circle cx="84.4" cy="3.4" r="1.0" fill="#cfe0ff" opacity="0.57"/><circle cx="892.6" cy="109.5" r="0.7" fill="#cfe0ff" opacity="0.45"/><circle cx="886.5" cy="90.1" r="0.7" fill="#cfe0ff" opacity="0.18"/><circle cx="1399.4" cy="84.6" r="0.5" fill="#cfe0ff" opacity="0.17"/><circle cx="1121.9" cy="6.7" r="1.0" fill="#cfe0ff" opacity="0.47"/><circle cx="527.4" cy="71.1" r="0.5" fill="#cfe0ff" opacity="0.37"/><circle cx="212.6" cy="90.4" r="0.5" fill="#cfe0ff" opacity="0.47"/><circle cx="895.5" cy="88.3" r="1.0" fill="#cfe0ff" opacity="0.40"/><circle cx="1037.0" cy="13.7" r="1.0" fill="#cfe0ff" opacity="0.26"/><circle cx="1081.3" cy="143.7" r="1.0" fill="#cfe0ff" opacity="0.29"/><circle cx="1170.4" cy="111.2" r="1.0" fill="#cfe0ff" opacity="0.34"/><circle cx="699.1" cy="9.9" r="0.5" fill="#cfe0ff" opacity="0.26"/><circle cx="694.1" cy="8.7" r="0.7" fill="#cfe0ff" opacity="0.43"/><circle cx="653.2" cy="14.0" r="0.5" fill="#cfe0ff" opacity="0.55"/><circle cx="426.7" cy="93.9" r="0.7" fill="#cfe0ff" opacity="0.31"/><circle cx="340.2" cy="51.5" r="0.5" fill="#cfe0ff" opacity="0.44"/><circle cx="1100.6" cy="112.1" r="1.0" fill="#cfe0ff" opacity="0.16"/><circle cx="909.2" cy="54.8" r="0.7" fill="#cfe0ff" opacity="0.54"/><circle cx="276.5" cy="94.4" r="0.5" fill="#cfe0ff" opacity="0.21"/><circle cx="355.0" cy="117.6" r="1.0" fill="#cfe0ff" opacity="0.29"/><circle cx="222.1" cy="55.4" r="0.5" fill="#cfe0ff" opacity="0.15"/><circle cx="489.3" cy="45.8" r="1.0" fill="#cfe0ff" opacity="0.26"/><circle cx="1176.3" cy="124.5" r="1.0" fill="#cfe0ff" opacity="0.30"/><circle cx="378.3" cy="61.9" r="0.5" fill="#cfe0ff" opacity="0.58"/><circle cx="383.4" cy="90.4" r="0.5" fill="#cfe0ff" opacity="0.23"/><circle cx="1384.0" cy="86.0" r="1.0" fill="#cfe0ff" opacity="0.41"/><circle cx="435.0" cy="57.9" r="0.7" fill="#cfe0ff" opacity="0.28"/><circle cx="227.8" cy="42.5" r="0.5" fill="#cfe0ff" opacity="0.44"/><circle cx="1455.6" cy="17.1" r="1.0" fill="#cfe0ff" opacity="0.51"/><circle cx="76.5" cy="50.1" r="0.7" fill="#cfe0ff" opacity="0.43"/><circle cx="1177.6" cy="60.1" r="1.0" fill="#cfe0ff" opacity="0.19"/><circle cx="1210.8" cy="17.1" r="0.7" fill="#cfe0ff" opacity="0.21"/><circle cx="41.2" cy="144.2" r="1.0" fill="#cfe0ff" opacity="0.21"/><circle cx="605.5" cy="156.3" r="0.5" fill="#cfe0ff" opacity="0.36"/><circle cx="482.2" cy="147.8" r="0.5" fill="#cfe0ff" opacity="0.28"/><circle cx="1164.7" cy="30.1" r="0.7" fill="#cfe0ff" opacity="0.50"/><circle cx="1296.7" cy="49.2" r="1.0" fill="#cfe0ff" opacity="0.29"/><circle cx="741.9" cy="81.6" r="1.0" fill="#cfe0ff" opacity="0.50"/><circle cx="1073.6" cy="39.3" r="0.5" fill="#cfe0ff" opacity="0.58"/><circle cx="1335.4" cy="5.9" r="0.7" fill="#cfe0ff" opacity="0.52"/><circle cx="1381.8" cy="157.7" r="0.5" fill="#cfe0ff" opacity="0.30"/><circle cx="412.9" cy="95.7" r="0.5" fill="#cfe0ff" opacity="0.46"/><circle cx="454.0" cy="115.9" r="1.0" fill="#cfe0ff" opacity="0.31"/><circle cx="552.8" cy="135.6" r="0.5" fill="#cfe0ff" opacity="0.26"/><circle cx="1069.0" cy="109.0" r="1.0" fill="#cfe0ff" opacity="0.54"/><circle cx="281.3" cy="140.5" r="1.0" fill="#cfe0ff" opacity="0.25"/><circle cx="1394.8" cy="65.9" r="0.7" fill="#cfe0ff" opacity="0.38"/><circle cx="861.8" cy="41.6" r="0.5" fill="#cfe0ff" opacity="0.18"/><circle cx="919.6" cy="29.3" r="0.5" fill="#cfe0ff" opacity="0.47"/><circle cx="1077.1" cy="119.8" r="0.5" fill="#cfe0ff" opacity="0.44"/><circle cx="95.9" cy="16.0" r="0.5" fill="#cfe0ff" opacity="0.39"/><circle cx="640.6" cy="108.0" r="1.0" fill="#cfe0ff" opacity="0.58"/><circle cx="783.4" cy="55.1" r="0.5" fill="#cfe0ff" opacity="0.52"/><circle cx="1441.0" cy="155.1" r="1.0" fill="#cfe0ff" opacity="0.59"/><circle cx="120.2" cy="126.4" r="0.5" fill="#cfe0ff" opacity="0.21"/><circle cx="1206.1" cy="55.0" r="1.0" fill="#cfe0ff" opacity="0.54"/><circle cx="1282.3" cy="142.3" r="1.0" fill="#cfe0ff" opacity="0.58"/><circle cx="1003.0" cy="161.0" r="0.5" fill="#cfe0ff" opacity="0.49"/><circle cx="968.0" cy="76.9" r="0.5" fill="#cfe0ff" opacity="0.49"/><circle cx="1034.1" cy="101.0" r="0.5" fill="#cfe0ff" opacity="0.34"/><circle cx="333.9" cy="69.0" r="0.7" fill="#cfe0ff" opacity="0.35"/><circle cx="1258.4" cy="29.7" r="0.5" fill="#cfe0ff" opacity="0.46"/><circle cx="712.6" cy="77.7" r="0.7" fill="#cfe0ff" opacity="0.28"/><circle cx="734.2" cy="0.2" r="0.7" fill="#cfe0ff" opacity="0.15"/><circle cx="1113.2" cy="36.5" r="1.0" fill="#cfe0ff" opacity="0.55"/><circle cx="1254.7" cy="45.9" r="0.7" fill="#cfe0ff" opacity="0.35"/><circle cx="980.6" cy="5.3" r="0.7" fill="#cfe0ff" opacity="0.53"/><circle cx="1248.0" cy="166.0" r="1.0" fill="#cfe0ff" opacity="0.28"/><circle cx="706.4" cy="33.0" r="0.5" fill="#cfe0ff" opacity="0.16"/><circle cx="1259.5" cy="120.2" r="0.5" fill="#cfe0ff" opacity="0.28"/><circle cx="463.1" cy="116.0" r="1.0" fill="#cfe0ff" opacity="0.23"/><circle cx="375.5" cy="96.4" r="0.5" fill="#cfe0ff" opacity="0.19"/><circle cx="1448.2" cy="165.7" r="0.5" fill="#cfe0ff" opacity="0.50"/><circle cx="620.4" cy="63.3" r="1.0" fill="#cfe0ff" opacity="0.31"/><circle cx="605.1" cy="57.2" r="0.5" fill="#cfe0ff" opacity="0.38"/><circle cx="1118.1" cy="70.6" r="0.5" fill="#cfe0ff" opacity="0.45"/><circle cx="1051.8" cy="27.2" r="0.5" fill="#cfe0ff" opacity="0.56"/><circle cx="843.3" cy="2.9" r="0.7" fill="#cfe0ff" opacity="0.38"/><circle cx="305.6" cy="9.2" r="1.0" fill="#cfe0ff" opacity="0.19"/><circle cx="1180.7" cy="80.0" r="0.5" fill="#cfe0ff" opacity="0.42"/><circle cx="30.5" cy="113.3" r="0.5" fill="#cfe0ff" opacity="0.46"/><circle cx="424.2" cy="19.9" r="0.7" fill="#cfe0ff" opacity="0.18"/><circle cx="857.0" cy="154.6" r="1.0" fill="#cfe0ff" opacity="0.34"/><circle cx="862.9" cy="151.9" r="0.5" fill="#cfe0ff" opacity="0.35"/><circle cx="954.6" cy="130.4" r="0.7" fill="#cfe0ff" opacity="0.34"/><circle cx="750.5" cy="147.2" r="1.0" fill="#cfe0ff" opacity="0.35"/><circle cx="988.3" cy="69.8" r="0.7" fill="#cfe0ff" opacity="0.56"/><circle cx="664.8" cy="9.6" r="1.0" fill="#cfe0ff" opacity="0.57"/><circle cx="1396.1" cy="144.3" r="0.5" fill="#cfe0ff" opacity="0.22"/><circle cx="1395.5" cy="26.3" r="0.7" fill="#cfe0ff" opacity="0.40"/><circle cx="394.5" cy="86.1" r="1.0" fill="#cfe0ff" opacity="0.44"/><circle cx="45.3" cy="127.4" r="1.0" fill="#cfe0ff" opacity="0.37"/><circle cx="1330.8" cy="85.9" r="0.5" fill="#cfe0ff" opacity="0.50"/><circle cx="216.6" cy="116.7" r="1.0" fill="#cfe0ff" opacity="0.27"/><circle cx="962.8" cy="61.3" r="0.5" fill="#cfe0ff" opacity="0.57"/><circle cx="950.7" cy="123.7" r="0.7" fill="#cfe0ff" opacity="0.33"/><circle cx="149.0" cy="44.6" r="0.5" fill="#cfe0ff" opacity="0.49"/><circle cx="791.0" cy="115.3" r="0.7" fill="#cfe0ff" opacity="0.46"/><circle cx="1134.7" cy="57.8" r="0.7" fill="#cfe0ff" opacity="0.52"/><circle cx="313.5" cy="108.5" r="0.7" fill="#cfe0ff" opacity="0.37"/><circle cx="883.9" cy="75.4" r="1.0" fill="#cfe0ff" opacity="0.36"/><circle cx="751.2" cy="124.0" r="0.5" fill="#cfe0ff" opacity="0.53"/><circle cx="1046.6" cy="150.2" r="0.7" fill="#cfe0ff" opacity="0.21"/><circle cx="1181.9" cy="108.1" r="0.5" fill="#cfe0ff" opacity="0.40"/><circle cx="195.2" cy="133.9" r="0.7" fill="#cfe0ff" opacity="0.30"/><circle cx="1302.8" cy="137.0" r="1.0" fill="#cfe0ff" opacity="0.20"/><circle cx="434.6" cy="26.4" r="0.7" fill="#cfe0ff" opacity="0.49"/><circle cx="520.4" cy="60.1" r="0.5" fill="#cfe0ff" opacity="0.32"/><circle cx="382.6" cy="117.2" r="0.7" fill="#cfe0ff" opacity="0.46"/><circle cx="154.9" cy="67.7" r="0.7" fill="#cfe0ff" opacity="0.16"/><circle cx="953.0" cy="81.9" r="1.0" fill="#cfe0ff" opacity="0.53"/><circle cx="1269.0" cy="141.5" r="1.0" fill="#cfe0ff" opacity="0.33"/><circle cx="783.9" cy="69.7" r="0.7" fill="#cfe0ff" opacity="0.46"/><circle cx="21.1" cy="155.7" r="0.7" fill="#cfe0ff" opacity="0.41"/><circle cx="1439.6" cy="128.7" r="0.7" fill="#cfe0ff" opacity="0.29"/><circle cx="1161.4" cy="75.2" r="1.0" fill="#cfe0ff" opacity="0.55"/><circle cx="284.2" cy="81.6" r="0.5" fill="#cfe0ff" opacity="0.17"/><circle cx="1085.7" cy="133.0" r="0.7" fill="#cfe0ff" opacity="0.35"/><circle cx="1356.8" cy="1.8" r="0.7" fill="#cfe0ff" opacity="0.41"/><circle cx="516.2" cy="46.3" r="0.5" fill="#cfe0ff" opacity="0.48"/></g>
<rect x="3" y="3" width="1457" height="160" rx="12" fill="none" stroke="#26345c" stroke-width="1.2" opacity="0.7"/>
<path d="M270.4,96.0 Q358.9,72.0 436.8,93.1" fill="none" stroke="#e85bd0" stroke-width="7" opacity="0.12" stroke-linecap="round"/>
<path d="M270.4,96.0 Q358.9,72.0 436.8,93.1" fill="none" stroke="#e85bd0" stroke-width="2.6" stroke-linecap="round"/>
<path d="M447.4,96.0 L434.7,97.0 L439.8,93.9 L436.9,88.8 Z" fill="#e85bd0"/>
<path d="M645.4,96.0 Q733.9,72.0 811.8,93.1" fill="none" stroke="#e85bd0" stroke-width="7" opacity="0.12" stroke-linecap="round"/>
<path d="M645.4,96.0 Q733.9,72.0 811.8,93.1" fill="none" stroke="#e85bd0" stroke-width="2.6" stroke-linecap="round"/>
<path d="M822.4,96.0 L809.7,97.0 L814.8,93.9 L811.9,88.8 Z" fill="#e85bd0"/>
<path d="M1062.0,96.0 Q1150.5,72.0 1228.4,93.1" fill="none" stroke="#e85bd0" stroke-width="7" opacity="0.12" stroke-linecap="round"/>
<path d="M1062.0,96.0 Q1150.5,72.0 1228.4,93.1" fill="none" stroke="#e85bd0" stroke-width="2.6" stroke-linecap="round"/>
<path d="M1239.0,96.0 L1226.3,97.0 L1231.4,93.9 L1228.5,88.8 Z" fill="#e85bd0"/>
<rect x="30.0" y="56.0" width="236" height="80" rx="11" fill="url(#cg)" stroke="#b9a7ff" stroke-width="1.8" filter="url(#sf)"/>
<rect x="30.0" y="56.0" width="6" height="80" rx="3" fill="#b9a7ff"/>
<g><circle cx="61.999999999999986" cy="88.0" r="5.5" fill="none" stroke="#b9a7ff" stroke-width="2"/><path d="M51.999999999999986,106.0 a10,10 0 0 1 20,0" fill="none" stroke="#b9a7ff" stroke-width="2"/></g>
<text x="92.0" y="93.0" font-size="16" fill="#e8eefc" font-weight="bold">Chrisjen</text>
<text x="92.0" y="112.0" font-size="12" fill="#8fa3c8">SP · Secretary-General</text>
<rect x="451.4" y="56.0" width="190" height="80" rx="11" fill="url(#cg)" stroke="#e85bd0" stroke-width="1.8" filter="url(#sf)"/>
<rect x="451.4" y="56.0" width="6" height="80" rx="3" fill="#e85bd0"/>
<g><polygon points="495.5,87.0 495.5,101.0 483.4,108.0 471.3,101.0 471.3,87.0 483.4,80.0" fill="none" stroke="#e85bd0" stroke-width="2"/><circle cx="483.4" cy="94.0" r="3" fill="#e85bd0"/><line x1="483.4" y1="94.0" x2="483.4" y2="86.0" stroke="#e85bd0" stroke-width="1.1" opacity="0.8"/><line x1="483.4" y1="94.0" x2="491.0" y2="91.5" stroke="#e85bd0" stroke-width="1.1" opacity="0.8"/><line x1="483.4" y1="94.0" x2="488.1" y2="100.5" stroke="#e85bd0" stroke-width="1.1" opacity="0.8"/><line x1="483.4" y1="94.0" x2="478.7" y2="100.5" stroke="#e85bd0" stroke-width="1.1" opacity="0.8"/><line x1="483.4" y1="94.0" x2="475.8" y2="91.5" stroke="#e85bd0" stroke-width="1.1" opacity="0.8"/></g>
<text x="513.4" y="93.0" font-size="16" fill="#e8eefc" font-weight="bold">Earthfleet</text>
<text x="513.4" y="112.0" font-size="12" fill="#8fa3c8">AKS cluster</text>
<rect x="826.4" y="56.0" width="232" height="80" rx="11" fill="url(#cg)" stroke="#b9a7ff" stroke-width="1.8" filter="url(#sf)"/>
<rect x="826.4" y="56.0" width="6" height="80" rx="3" fill="#b9a7ff"/>
<g><circle cx="858.4000000000001" cy="88.0" r="5.5" fill="none" stroke="#b9a7ff" stroke-width="2"/><path d="M848.4000000000001,106.0 a10,10 0 0 1 20,0" fill="none" stroke="#b9a7ff" stroke-width="2"/></g>
<text x="888.4" y="93.0" font-size="16" fill="#e8eefc" font-weight="bold">fleet-ops-runner</text>
<text x="888.4" y="112.0" font-size="12" fill="#8fa3c8">SP · k8s secret</text>
<rect x="1243.0" y="56.0" width="190" height="80" rx="11" fill="url(#cg)" stroke="#7fa8ff" stroke-width="1.8" filter="url(#sf)"/>
<rect x="1243.0" y="56.0" width="6" height="80" rx="3" fill="#7fa8ff"/>
<g><rect x="1261.0" y="83.0" width="28" height="19" rx="2.5" fill="none" stroke="#7fa8ff" stroke-width="2"/><line x1="1270.0" y1="102.0" x2="1267.0" y2="106.0" stroke="#7fa8ff" stroke-width="2"/><line x1="1280.0" y1="102.0" x2="1283.0" y2="106.0" stroke="#7fa8ff" stroke-width="2"/><line x1="1265.0" y1="106.0" x2="1285.0" y2="106.0" stroke="#7fa8ff" stroke-width="2"/></g>
<text x="1305.0" y="93.0" font-size="16" fill="#e8eefc" font-weight="bold">Donnager</text>
<text x="1305.0" y="112.0" font-size="12" fill="#8fa3c8">Windows VM</text>
<rect x="305.7" y="73.0" width="106" height="19" rx="9.5" fill="#05070f" stroke="#e85bd0" stroke-width="1" opacity="0.97"/>
<text x="358.9" y="87.0" font-size="11.5" fill="#e85bd0" text-anchor="middle">excessive RBAC</text>
<rect x="690.6" y="73.0" width="87" height="19" rx="9.5" fill="#05070f" stroke="#e85bd0" stroke-width="1" opacity="0.97"/>
<text x="733.9" y="87.0" font-size="11.5" fill="#e85bd0" text-anchor="middle">secret leak</text>
<rect x="1087.4" y="73.0" width="126" height="19" rx="9.5" fill="#05070f" stroke="#e85bd0" stroke-width="1" opacity="0.97"/>
<text x="1150.5" y="87.0" font-size="11.5" fill="#e85bd0" text-anchor="middle">command execution</text>
</svg>