<svg xmlns="http://www.w3.org/2000/svg" width="1463" height="166" viewBox="0 0 1463 166" font-family="monospace">
<defs>
<radialGradient id="bg" cx="50%" cy="38%" r="90%"><stop offset="0%" stop-color="#0b1330"/><stop offset="100%" stop-color="#05070f"/></radialGradient>
<linearGradient id="cg" x1="0" y1="0" x2="0" y2="1"><stop offset="0%" stop-color="#13203f"/><stop offset="100%" stop-color="#0e1730"/></linearGradient>
<filter id="sf" x="-40%" y="-40%" width="180%" height="180%"><feDropShadow dx="0" dy="2" stdDeviation="4" flood-color="#000" flood-opacity="0.5"/></filter>
</defs>
<rect width="1463" height="166" fill="url(#bg)"/>
<g><circle cx="239.6" cy="153.6" r="1.0" fill="#cfe0ff" opacity="0.45"/><circle cx="580.2" cy="158.7" r="0.5" fill="#cfe0ff" opacity="0.27"/><circle cx="378.1" cy="120.6" r="0.5" fill="#cfe0ff" opacity="0.38"/><circle cx="342.8" cy="59.4" r="1.0" fill="#cfe0ff" opacity="0.25"/><circle cx="656.4" cy="87.7" r="0.5" fill="#cfe0ff" opacity="0.30"/><circle cx="82.4" cy="5.6" r="0.5" fill="#cfe0ff" opacity="0.31"/><circle cx="650.4" cy="20.1" r="0.5" fill="#cfe0ff" opacity="0.22"/><circle cx="493.6" cy="106.0" r="1.0" fill="#cfe0ff" opacity="0.19"/><circle cx="1046.3" cy="139.1" r="1.0" fill="#cfe0ff" opacity="0.23"/><circle cx="413.2" cy="66.8" r="0.5" fill="#cfe0ff" opacity="0.59"/><circle cx="803.4" cy="62.8" r="0.5" fill="#cfe0ff" opacity="0.46"/><circle cx="711.6" cy="52.2" r="1.0" fill="#cfe0ff" opacity="0.25"/><circle cx="251.5" cy="133.1" r="0.5" fill="#cfe0ff" opacity="0.40"/><circle cx="607.0" cy="13.2" r="0.7" fill="#cfe0ff" opacity="0.18"/><circle cx="111.8" cy="56.0" r="0.7" fill="#cfe0ff" opacity="0.23"/><circle cx="147.0" cy="22.7" r="0.7" fill="#cfe0ff" opacity="0.23"/><circle cx="84.0" cy="164.6" r="1.0" fill="#cfe0ff" opacity="0.49"/><circle cx="485.0" cy="82.9" r="1.0" fill="#cfe0ff" opacity="0.50"/><circle cx="377.6" cy="97.8" r="0.7" fill="#cfe0ff" opacity="0.45"/><circle cx="391.8" cy="44.0" r="0.5" fill="#cfe0ff" opacity="0.27"/><circle cx="463.4" cy="36.6" r="0.5" fill="#cfe0ff" opacity="0.52"/><circle cx="1313.1" cy="0.3" r="0.5" fill="#cfe0ff" opacity="0.19"/><circle cx="1054.7" cy="157.1" r="1.0" fill="#cfe0ff" opacity="0.30"/><circle cx="1000.2" cy="62.4" r="1.0" fill="#cfe0ff" opacity="0.35"/><circle cx="1101.8" cy="133.0" r="0.5" fill="#cfe0ff" opacity="0.59"/><circle cx="339.5" cy="16.1" r="0.5" fill="#cfe0ff" opacity="0.34"/><circle cx="161.6" cy="153.5" r="1.0" fill="#cfe0ff" opacity="0.31"/><circle cx="609.4" cy="25.6" r="1.0" fill="#cfe0ff" opacity="0.51"/><circle cx="307.3" cy="70.3" r="0.5" fill="#cfe0ff" opacity="0.16"/><circle cx="96.5" cy="74.2" r="0.7" fill="#cfe0ff" opacity="0.47"/><circle cx="385.1" cy="70.4" r="0.7" fill="#cfe0ff" opacity="0.37"/><circle cx="1287.0" cy="89.2" r="0.7" fill="#cfe0ff" opacity="0.33"/><circle cx="1300.7" cy="115.4" r="0.5" fill="#cfe0ff" opacity="0.28"/><circle cx="156.0" cy="92.0" r="0.7" fill="#cfe0ff" opacity="0.17"/><circle cx="1132.3" cy="111.9" r="0.7" fill="#cfe0ff" opacity="0.21"/><circle cx="246.4" cy="130.1" r="0.7" fill="#cfe0ff" opacity="0.33"/><circle cx="1440.8" cy="81.9" r="1.0" fill="#cfe0ff" opacity="0.46"/><circle cx="747.2" cy="6.5" r="0.7" fill="#cfe0ff" opacity="0.41"/><circle cx="577.7" cy="35.5" r="1.0" fill="#cfe0ff" opacity="0.47"/><circle cx="1424.9" cy="163.0" r="0.5" fill="#cfe0ff" opacity="0.57"/><circle cx="1207.0" cy="75.0" r="1.0" fill="#cfe0ff" opacity="0.54"/><circle cx="872.4" cy="123.9" r="0.7" fill="#cfe0ff" opacity="0.20"/><circle cx="1460.4" cy="162.5" r="0.5" fill="#cfe0ff" opacity="0.32"/><circle cx="1322.0" cy="89.0" r="1.0" fill="#cfe0ff" opacity="0.46"/><circle cx="1352.2" cy="63.5" r="1.0" fill="#cfe0ff" opacity="0.26"/><circle cx="160.2" cy="103.3" r="0.5" fill="#cfe0ff" opacity="0.44"/><circle cx="1209.2" cy="18.3" r="0.5" fill="#cfe0ff" opacity="0.48"/><circle cx="1160.8" cy="30.0" r="0.7" fill="#cfe0ff" opacity="0.17"/><circle cx="1206.0" cy="48.7" r="0.5" fill="#cfe0ff" opacity="0.51"/><circle cx="475.6" cy="17.3" r="0.5" fill="#cfe0ff" opacity="0.46"/><circle cx="1070.9" cy="12.2" r="0.7" fill="#cfe0ff" opacity="0.28"/><circle cx="1065.2" cy="84.5" r="0.5" fill="#cfe0ff" opacity="0.38"/><circle cx="480.0" cy="102.7" r="0.7" fill="#cfe0ff" opacity="0.41"/><circle cx="670.6" cy="96.6" r="0.5" fill="#cfe0ff" opacity="0.43"/><circle cx="1121.1" cy="157.1" r="0.5" fill="#cfe0ff" opacity="0.42"/><circle cx="1104.5" cy="17.1" r="0.5" fill="#cfe0ff" opacity="0.48"/><circle cx="417.6" cy="132.5" r="0.7" fill="#cfe0ff" opacity="0.58"/><circle cx="844.4" cy="50.7" r="1.0" fill="#cfe0ff" opacity="0.32"/><circle cx="1063.7" cy="119.1" r="0.5" fill="#cfe0ff" opacity="0.16"/><circle cx="707.0" cy="153.6" r="0.5" fill="#cfe0ff" opacity="0.20"/><circle cx="764.0" cy="4.5" r="0.5" fill="#cfe0ff" opacity="0.47"/><circle cx="751.8" cy="114.4" r="0.5" fill="#cfe0ff" opacity="0.30"/><circle cx="1331.9" cy="139.2" r="0.7" fill="#cfe0ff" opacity="0.35"/><circle cx="344.4" cy="6.8" r="0.5" fill="#cfe0ff" opacity="0.31"/><circle cx="1238.0" cy="123.2" r="0.5" fill="#cfe0ff" opacity="0.19"/><circle cx="1070.6" cy="156.8" r="0.5" fill="#cfe0ff" opacity="0.59"/><circle cx="556.9" cy="67.1" r="1.0" fill="#cfe0ff" opacity="0.40"/><circle cx="1170.8" cy="118.1" r="0.5" fill="#cfe0ff" opacity="0.34"/><circle cx="920.8" cy="67.4" r="1.0" fill="#cfe0ff" opacity="0.56"/><circle cx="1437.7" cy="5.0" r="0.5" fill="#cfe0ff" opacity="0.33"/><circle cx="857.3" cy="121.1" r="1.0" fill="#cfe0ff" opacity="0.30"/><circle cx="411.4" cy="36.8" r="0.5" fill="#cfe0ff" opacity="0.28"/><circle cx="667.7" cy="72.7" r="0.7" fill="#cfe0ff" opacity="0.57"/><circle cx="105.5" cy="154.0" r="0.7" fill="#cfe0ff" opacity="0.60"/><circle cx="916.9" cy="41.3" r="1.0" fill="#cfe0ff" opacity="0.32"/><circle cx="1118.4" cy="40.1" r="1.0" fill="#cfe0ff" opacity="0.43"/><circle cx="1422.6" cy="131.5" r="0.7" fill="#cfe0ff" opacity="0.18"/><circle cx="1248.0" cy="22.6" r="1.0" fill="#cfe0ff" opacity="0.29"/><circle cx="591.7" cy="4.4" r="1.0" fill="#cfe0ff" opacity="0.31"/><circle cx="1174.8" cy="112.8" r="0.7" fill="#cfe0ff" opacity="0.57"/><circle cx="947.6" cy="19.8" r="0.7" fill="#cfe0ff" opacity="0.29"/><circle cx="919.0" cy="55.9" r="0.7" fill="#cfe0ff" opacity="0.43"/><circle cx="228.3" cy="55.6" r="0.5" fill="#cfe0ff" opacity="0.23"/><circle cx="889.9" cy="28.5" r="0.5" fill="#cfe0ff" opacity="0.29"/><circle cx="902.1" cy="75.7" r="0.5" fill="#cfe0ff" opacity="0.40"/><circle cx="192.2" cy="35.0" r="0.7" fill="#cfe0ff" opacity="0.45"/><circle cx="1134.9" cy="78.7" r="1.0" fill="#cfe0ff" opacity="0.59"/><circle cx="314.9" cy="30.7" r="1.0" fill="#cfe0ff" opacity="0.55"/><circle cx="1342.4" cy="108.6" r="1.0" fill="#cfe0ff" opacity="0.43"/><circle cx="118.5" cy="151.9" r="0.5" fill="#cfe0ff" opacity="0.23"/><circle cx="480.7" cy="30.7" r="1.0" fill="#cfe0ff" opacity="0.20"/><circle cx="803.5" cy="50.9" r="0.7" fill="#cfe0ff" opacity="0.20"/><circle cx="431.8" cy="160.5" r="0.7" fill="#cfe0ff" opacity="0.54"/><circle cx="1372.4" cy="27.3" r="0.7" fill="#cfe0ff" opacity="0.41"/><circle cx="493.0" cy="17.0" r="0.5" fill="#cfe0ff" opacity="0.43"/><circle cx="701.3" cy="125.1" r="0.7" fill="#cfe0ff" opacity="0.48"/><circle cx="413.8" cy="62.2" r="1.0" fill="#cfe0ff" opacity="0.60"/><circle cx="241.7" cy="82.4" r="0.5" fill="#cfe0ff" opacity="0.27"/><circle cx="1457.2" cy="135.3" r="1.0" fill="#cfe0ff" opacity="0.48"/><circle cx="1161.7" cy="90.5" r="0.5" fill="#cfe0ff" opacity="0.17"/><circle cx="768.1" cy="115.0" r="0.7" fill="#cfe0ff" opacity="0.40"/><circle cx="1097.7" cy="45.7" r="0.7" fill="#cfe0ff" opacity="0.48"/><circle cx="907.5" cy="125.2" r="1.0" fill="#cfe0ff" opacity="0.31"/><circle cx="1321.1" cy="34.5" r="0.5" fill="#cfe0ff" opacity="0.33"/><circle cx="957.3" cy="155.0" r="0.7" fill="#cfe0ff" opacity="0.58"/><circle cx="217.9" cy="163.0" r="0.5" fill="#cfe0ff" opacity="0.20"/><circle cx="224.1" cy="69.3" r="1.0" fill="#cfe0ff" opacity="0.29"/><circle cx="476.0" cy="118.6" r="0.5" fill="#cfe0ff" opacity="0.51"/><circle cx="686.5" cy="2.4" r="0.5" fill="#cfe0ff" opacity="0.36"/><circle cx="189.5" cy="63.1" r="0.7" fill="#cfe0ff" opacity="0.52"/><circle cx="1096.2" cy="42.8" r="0.5" fill="#cfe0ff" opacity="0.38"/><circle cx="1418.5" cy="158.5" r="1.0" fill="#cfe0ff" opacity="0.39"/><circle cx="18.6" cy="140.8" r="0.5" fill="#cfe0ff" opacity="0.50"/><circle cx="992.7" cy="119.6" r="1.0" fill="#cfe0ff" opacity="0.46"/><circle cx="238.9" cy="14.8" r="0.7" fill="#cfe0ff" opacity="0.47"/><circle cx="546.2" cy="93.8" r="1.0" fill="#cfe0ff" opacity="0.34"/><circle cx="580.7" cy="140.8" r="1.0" fill="#cfe0ff" opacity="0.46"/><circle cx="1255.5" cy="143.5" r="0.5" fill="#cfe0ff" opacity="0.27"/><circle cx="798.7" cy="86.2" r="1.0" fill="#cfe0ff" opacity="0.42"/><circle cx="235.0" cy="131.5" r="0.7" fill="#cfe0ff" opacity="0.54"/><circle cx="116.5" cy="136.1" r="1.0" fill="#cfe0ff" opacity="0.18"/></g>
<rect x="3" y="3" width="1457" height="160" rx="12" fill="none" stroke="#26345c" stroke-width="1.2" opacity="0.7"/>
<path d="M270.4,96.0 Q358.9,72.0 436.8,93.1" fill="none" stroke="#e85bd0" stroke-width="7" opacity="0.12" stroke-linecap="round"/>
<path d="M270.4,96.0 Q358.9,72.0 436.8,93.1" fill="none" stroke="#e85bd0" stroke-width="2.6" stroke-linecap="round"/>
<path d="M447.4,96.0 L434.7,97.0 L439.8,93.9 L436.9,88.8 Z" fill="#e85bd0"/>
<path d="M645.4,96.0 Q733.9,72.0 811.8,93.1" fill="none" stroke="#e85bd0" stroke-width="7" opacity="0.12" stroke-linecap="round"/>
<path d="M645.4,96.0 Q733.9,72.0 811.8,93.1" fill="none" stroke="#e85bd0" stroke-width="2.6" stroke-linecap="round"/>
<path d="M822.4,96.0 L809.7,97.0 L814.8,93.9 L811.9,88.8 Z" fill="#e85bd0"/>
<path d="M1062.0,96.0 Q1150.5,72.0 1228.4,93.1" fill="none" stroke="#e85bd0" stroke-width="7" opacity="0.12" stroke-linecap="round"/>
<path d="M1062.0,96.0 Q1150.5,72.0 1228.4,93.1" fill="none" stroke="#e85bd0" stroke-width="2.6" stroke-linecap="round"/>
<path d="M1239.0,96.0 L1226.3,97.0 L1231.4,93.9 L1228.5,88.8 Z" fill="#e85bd0"/>
<rect x="30.0" y="56.0" width="236" height="80" rx="11" fill="url(#cg)" stroke="#b9a7ff" stroke-width="1.8" filter="url(#sf)"/>
<rect x="30.0" y="56.0" width="6" height="80" rx="3" fill="#b9a7ff"/>
<g><circle cx="61.999999999999986" cy="88.0" r="5.5" fill="none" stroke="#b9a7ff" stroke-width="2"/><path d="M51.999999999999986,106.0 a10,10 0 0 1 20,0" fill="none" stroke="#b9a7ff" stroke-width="2"/></g>
<text x="92.0" y="93.0" font-size="16" fill="#e8eefc" font-weight="bold">Chrisjen</text>
<text x="92.0" y="112.0" font-size="12" fill="#8fa3c8">SP · Secretary-General</text>
<rect x="451.4" y="56.0" width="190" height="80" rx="11" fill="url(#cg)" stroke="#e85bd0" stroke-width="1.8" filter="url(#sf)"/>
<rect x="451.4" y="56.0" width="6" height="80" rx="3" fill="#e85bd0"/>
<g><polygon points="495.5,87.0 495.5,101.0 483.4,108.0 471.3,101.0 471.3,87.0 483.4,80.0" fill="none" stroke="#e85bd0" stroke-width="2"/><circle cx="483.4" cy="94.0" r="3" fill="#e85bd0"/><line x1="483.4" y1="94.0" x2="483.4" y2="86.0" stroke="#e85bd0" stroke-width="1.1" opacity="0.8"/><line x1="483.4" y1="94.0" x2="491.0" y2="91.5" stroke="#e85bd0" stroke-width="1.1" opacity="0.8"/><line x1="483.4" y1="94.0" x2="488.1" y2="100.5" stroke="#e85bd0" stroke-width="1.1" opacity="0.8"/><line x1="483.4" y1="94.0" x2="478.7" y2="100.5" stroke="#e85bd0" stroke-width="1.1" opacity="0.8"/><line x1="483.4" y1="94.0" x2="475.8" y2="91.5" stroke="#e85bd0" stroke-width="1.1" opacity="0.8"/></g>
<text x="513.4" y="93.0" font-size="16" fill="#e8eefc" font-weight="bold">Earthfleet</text>
<text x="513.4" y="112.0" font-size="12" fill="#8fa3c8">AKS cluster</text>
<rect x="826.4" y="56.0" width="232" height="80" rx="11" fill="url(#cg)" stroke="#b9a7ff" stroke-width="1.8" filter="url(#sf)"/>
<rect x="826.4" y="56.0" width="6" height="80" rx="3" fill="#b9a7ff"/>
<g><circle cx="858.4000000000001" cy="88.0" r="5.5" fill="none" stroke="#b9a7ff" stroke-width="2"/><path d="M848.4000000000001,106.0 a10,10 0 0 1 20,0" fill="none" stroke="#b9a7ff" stroke-width="2"/></g>
<text x="888.4" y="93.0" font-size="16" fill="#e8eefc" font-weight="bold">fleet-ops-runner</text>
<text x="888.4" y="112.0" font-size="12" fill="#8fa3c8">SP · k8s secret</text>
<rect x="1243.0" y="56.0" width="190" height="80" rx="11" fill="url(#cg)" stroke="#7fa8ff" stroke-width="1.8" filter="url(#sf)"/>
<rect x="1243.0" y="56.0" width="6" height="80" rx="3" fill="#7fa8ff"/>
<g><rect x="1261.0" y="83.0" width="28" height="19" rx="2.5" fill="none" stroke="#7fa8ff" stroke-width="2"/><line x1="1270.0" y1="102.0" x2="1267.0" y2="106.0" stroke="#7fa8ff" stroke-width="2"/><line x1="1280.0" y1="102.0" x2="1283.0" y2="106.0" stroke="#7fa8ff" stroke-width="2"/><line x1="1265.0" y1="106.0" x2="1285.0" y2="106.0" stroke="#7fa8ff" stroke-width="2"/></g>
<text x="1305.0" y="93.0" font-size="16" fill="#e8eefc" font-weight="bold">Donnager</text>
<text x="1305.0" y="112.0" font-size="12" fill="#8fa3c8">Windows VM</text>
<rect x="305.7" y="73.0" width="106" height="19" rx="9.5" fill="#05070f" stroke="#e85bd0" stroke-width="1" opacity="0.97"/>
<text x="358.9" y="87.0" font-size="11.5" fill="#e85bd0" text-anchor="middle">excessive RBAC</text>
<rect x="690.6" y="73.0" width="87" height="19" rx="9.5" fill="#05070f" stroke="#e85bd0" stroke-width="1" opacity="0.97"/>
<text x="733.9" y="87.0" font-size="11.5" fill="#e85bd0" text-anchor="middle">secret leak</text>
<rect x="1087.4" y="73.0" width="126" height="19" rx="9.5" fill="#05070f" stroke="#e85bd0" stroke-width="1" opacity="0.97"/>
<text x="1150.5" y="87.0" font-size="11.5" fill="#e85bd0" text-anchor="middle">command execution</text>
</svg>