<svg xmlns="http://www.w3.org/2000/svg" width="643" height="166" viewBox="0 0 643 166" font-family="monospace">
<defs>
<radialGradient id="bg" cx="50%" cy="38%" r="90%"><stop offset="0%" stop-color="#0b1330"/><stop offset="100%" stop-color="#05070f"/></radialGradient>
<linearGradient id="cg" x1="0" y1="0" x2="0" y2="1"><stop offset="0%" stop-color="#13203f"/><stop offset="100%" stop-color="#0e1730"/></linearGradient>
<filter id="sf" x="-40%" y="-40%" width="180%" height="180%"><feDropShadow dx="0" dy="2" stdDeviation="4" flood-color="#000" flood-opacity="0.5"/></filter>
</defs>
<rect width="643" height="166" fill="url(#bg)"/>
<g><circle cx="343.9" cy="62.8" r="0.5" fill="#cfe0ff" opacity="0.49"/><circle cx="336.8" cy="50.1" r="0.5" fill="#cfe0ff" opacity="0.54"/><circle cx="428.3" cy="141.2" r="1.0" fill="#cfe0ff" opacity="0.41"/><circle cx="415.8" cy="159.4" r="0.5" fill="#cfe0ff" opacity="0.22"/><circle cx="391.1" cy="14.2" r="0.7" fill="#cfe0ff" opacity="0.23"/><circle cx="541.9" cy="124.4" r="1.0" fill="#cfe0ff" opacity="0.48"/><circle cx="372.2" cy="43.3" r="0.7" fill="#cfe0ff" opacity="0.47"/><circle cx="77.4" cy="9.7" r="0.5" fill="#cfe0ff" opacity="0.20"/><circle cx="368.8" cy="84.7" r="0.5" fill="#cfe0ff" opacity="0.52"/><circle cx="45.1" cy="158.0" r="0.5" fill="#cfe0ff" opacity="0.38"/><circle cx="351.7" cy="112.7" r="0.5" fill="#cfe0ff" opacity="0.16"/><circle cx="119.5" cy="104.0" r="1.0" fill="#cfe0ff" opacity="0.20"/><circle cx="489.5" cy="84.0" r="0.5" fill="#cfe0ff" opacity="0.53"/><circle cx="70.7" cy="101.4" r="0.7" fill="#cfe0ff" opacity="0.51"/><circle cx="419.0" cy="2.4" r="0.5" fill="#cfe0ff" opacity="0.24"/><circle cx="551.3" cy="113.5" r="1.0" fill="#cfe0ff" opacity="0.20"/><circle cx="96.0" cy="144.2" r="0.5" fill="#cfe0ff" opacity="0.52"/><circle cx="275.4" cy="133.3" r="0.5" fill="#cfe0ff" opacity="0.56"/><circle cx="126.0" cy="129.0" r="0.5" fill="#cfe0ff" opacity="0.19"/><circle cx="315.9" cy="154.2" r="1.0" fill="#cfe0ff" opacity="0.59"/><circle cx="92.1" cy="63.9" r="1.0" fill="#cfe0ff" opacity="0.16"/><circle cx="241.7" cy="13.5" r="1.0" fill="#cfe0ff" opacity="0.54"/><circle cx="318.2" cy="28.2" r="1.0" fill="#cfe0ff" opacity="0.26"/><circle cx="91.4" cy="96.3" r="0.5" fill="#cfe0ff" opacity="0.31"/><circle cx="533.4" cy="89.6" r="0.7" fill="#cfe0ff" opacity="0.43"/><circle cx="187.6" cy="25.7" r="1.0" fill="#cfe0ff" opacity="0.47"/><circle cx="68.2" cy="1.4" r="1.0" fill="#cfe0ff" opacity="0.45"/><circle cx="209.8" cy="112.3" r="1.0" fill="#cfe0ff" opacity="0.56"/><circle cx="422.5" cy="54.4" r="1.0" fill="#cfe0ff" opacity="0.37"/><circle cx="586.4" cy="28.5" r="1.0" fill="#cfe0ff" opacity="0.26"/><circle cx="206.9" cy="165.2" r="1.0" fill="#cfe0ff" opacity="0.22"/><circle cx="568.4" cy="29.1" r="0.7" fill="#cfe0ff" opacity="0.39"/><circle cx="631.5" cy="96.5" r="0.7" fill="#cfe0ff" opacity="0.49"/><circle cx="44.1" cy="77.2" r="0.5" fill="#cfe0ff" opacity="0.25"/><circle cx="393.9" cy="81.2" r="1.0" fill="#cfe0ff" opacity="0.20"/><circle cx="450.7" cy="124.4" r="0.7" fill="#cfe0ff" opacity="0.38"/><circle cx="546.0" cy="93.4" r="0.7" fill="#cfe0ff" opacity="0.22"/><circle cx="429.5" cy="76.4" r="1.0" fill="#cfe0ff" opacity="0.54"/><circle cx="233.9" cy="71.7" r="0.5" fill="#cfe0ff" opacity="0.57"/><circle cx="129.2" cy="49.8" r="1.0" fill="#cfe0ff" opacity="0.24"/><circle cx="97.1" cy="13.0" r="0.5" fill="#cfe0ff" opacity="0.58"/><circle cx="160.2" cy="54.9" r="0.7" fill="#cfe0ff" opacity="0.28"/><circle cx="181.1" cy="17.2" r="0.7" fill="#cfe0ff" opacity="0.24"/><circle cx="370.7" cy="148.1" r="0.5" fill="#cfe0ff" opacity="0.37"/><circle cx="159.4" cy="38.0" r="0.5" fill="#cfe0ff" opacity="0.58"/><circle cx="364.9" cy="63.6" r="0.7" fill="#cfe0ff" opacity="0.18"/><circle cx="138.0" cy="7.8" r="0.7" fill="#cfe0ff" opacity="0.39"/><circle cx="47.6" cy="29.4" r="0.7" fill="#cfe0ff" opacity="0.49"/><circle cx="101.5" cy="123.2" r="0.7" fill="#cfe0ff" opacity="0.51"/><circle cx="60.2" cy="29.8" r="0.5" fill="#cfe0ff" opacity="0.48"/><circle cx="333.1" cy="142.1" r="1.0" fill="#cfe0ff" opacity="0.18"/><circle cx="228.2" cy="127.6" r="1.0" fill="#cfe0ff" opacity="0.18"/><circle cx="211.9" cy="131.9" r="0.7" fill="#cfe0ff" opacity="0.38"/></g>
<rect x="3" y="3" width="637" height="160" rx="12" fill="none" stroke="#26345c" stroke-width="1.2" opacity="0.7"/>
<path d="M241.6,96.0 Q330.1,72.0 408.0,93.1" fill="none" stroke="#f3a83a" stroke-width="7" opacity="0.12" stroke-linecap="round"/>
<path d="M241.6,96.0 Q330.1,72.0 408.0,93.1" fill="none" stroke="#f3a83a" stroke-width="2.6" stroke-linecap="round"/>
<path d="M418.6,96.0 L405.9,97.0 L411.0,93.9 L408.1,88.8 Z" fill="#f3a83a"/>
<rect x="30.0" y="56.0" width="208" height="80" rx="11" fill="url(#cg)" stroke="#b9a7ff" stroke-width="1.8" filter="url(#sf)"/>
<rect x="30.0" y="56.0" width="6" height="80" rx="3" fill="#b9a7ff"/>
<g><circle cx="62.000000000000014" cy="88.0" r="5.5" fill="none" stroke="#b9a7ff" stroke-width="2"/><path d="M52.000000000000014,106.0 a10,10 0 0 1 20,0" fill="none" stroke="#b9a7ff" stroke-width="2"/></g>
<text x="92.0" y="93.0" font-size="16" fill="#e8eefc" font-weight="bold">Alex · Jim</text>
<text x="92.0" y="112.0" font-size="12" fill="#8fa3c8">Service Principals</text>
<rect x="422.6" y="56.0" width="190" height="80" rx="11" fill="url(#cg)" stroke="#7fa8ff" stroke-width="1.8" filter="url(#sf)"/>
<rect x="422.6" y="56.0" width="6" height="80" rx="3" fill="#7fa8ff"/>
<g><rect x="440.6" y="83.0" width="28" height="19" rx="2.5" fill="none" stroke="#7fa8ff" stroke-width="2"/><line x1="449.6" y1="102.0" x2="446.6" y2="106.0" stroke="#7fa8ff" stroke-width="2"/><line x1="459.6" y1="102.0" x2="462.6" y2="106.0" stroke="#7fa8ff" stroke-width="2"/><line x1="444.6" y1="106.0" x2="464.6" y2="106.0" stroke="#7fa8ff" stroke-width="2"/></g>
<text x="484.6" y="93.0" font-size="16" fill="#e8eefc" font-weight="bold">Rocinante</text>
<text x="484.6" y="112.0" font-size="12" fill="#8fa3c8">Linux VM</text>
<rect x="267.0" y="73.0" width="126" height="19" rx="9.5" fill="#05070f" stroke="#f3a83a" stroke-width="1" opacity="0.97"/>
<text x="330.1" y="87.0" font-size="11.5" fill="#f3a83a" text-anchor="middle">command execution</text>
</svg>