<svg xmlns="http://www.w3.org/2000/svg" width="643" height="166" viewBox="0 0 643 166" font-family="monospace">
<defs>
<radialGradient id="bg" cx="50%" cy="38%" r="90%"><stop offset="0%" stop-color="#0b1330"/><stop offset="100%" stop-color="#05070f"/></radialGradient>
<linearGradient id="cg" x1="0" y1="0" x2="0" y2="1"><stop offset="0%" stop-color="#13203f"/><stop offset="100%" stop-color="#0e1730"/></linearGradient>
<filter id="sf" x="-40%" y="-40%" width="180%" height="180%"><feDropShadow dx="0" dy="2" stdDeviation="4" flood-color="#000" flood-opacity="0.5"/></filter>
</defs>
<rect width="643" height="166" fill="url(#bg)"/>
<g><circle cx="496.5" cy="86.6" r="1.0" fill="#cfe0ff" opacity="0.32"/><circle cx="230.8" cy="10.8" r="0.5" fill="#cfe0ff" opacity="0.18"/><circle cx="502.4" cy="28.7" r="1.0" fill="#cfe0ff" opacity="0.31"/><circle cx="205.3" cy="111.4" r="0.5" fill="#cfe0ff" opacity="0.32"/><circle cx="571.6" cy="40.1" r="0.7" fill="#cfe0ff" opacity="0.25"/><circle cx="345.0" cy="119.3" r="0.7" fill="#cfe0ff" opacity="0.32"/><circle cx="175.1" cy="23.7" r="0.7" fill="#cfe0ff" opacity="0.39"/><circle cx="296.0" cy="26.6" r="0.5" fill="#cfe0ff" opacity="0.56"/><circle cx="164.9" cy="14.4" r="1.0" fill="#cfe0ff" opacity="0.15"/><circle cx="79.2" cy="50.1" r="1.0" fill="#cfe0ff" opacity="0.51"/><circle cx="496.5" cy="62.9" r="1.0" fill="#cfe0ff" opacity="0.32"/><circle cx="508.1" cy="93.5" r="1.0" fill="#cfe0ff" opacity="0.40"/><circle cx="215.6" cy="52.7" r="0.7" fill="#cfe0ff" opacity="0.46"/><circle cx="437.9" cy="99.5" r="0.5" fill="#cfe0ff" opacity="0.24"/><circle cx="257.3" cy="100.9" r="1.0" fill="#cfe0ff" opacity="0.48"/><circle cx="26.7" cy="46.3" r="0.7" fill="#cfe0ff" opacity="0.50"/><circle cx="585.5" cy="66.8" r="0.5" fill="#cfe0ff" opacity="0.25"/><circle cx="431.9" cy="103.8" r="1.0" fill="#cfe0ff" opacity="0.47"/><circle cx="122.1" cy="67.1" r="0.5" fill="#cfe0ff" opacity="0.51"/><circle cx="153.9" cy="35.0" r="1.0" fill="#cfe0ff" opacity="0.39"/><circle cx="283.4" cy="122.6" r="0.5" fill="#cfe0ff" opacity="0.47"/><circle cx="334.3" cy="0.8" r="1.0" fill="#cfe0ff" opacity="0.19"/><circle cx="614.7" cy="108.8" r="0.5" fill="#cfe0ff" opacity="0.16"/><circle cx="615.9" cy="164.2" r="0.7" fill="#cfe0ff" opacity="0.27"/><circle cx="493.7" cy="40.9" r="0.5" fill="#cfe0ff" opacity="0.56"/><circle cx="627.5" cy="5.0" r="0.5" fill="#cfe0ff" opacity="0.31"/><circle cx="508.2" cy="108.7" r="1.0" fill="#cfe0ff" opacity="0.29"/><circle cx="265.2" cy="68.9" r="0.7" fill="#cfe0ff" opacity="0.42"/><circle cx="450.5" cy="131.1" r="1.0" fill="#cfe0ff" opacity="0.24"/><circle cx="467.1" cy="91.4" r="0.5" fill="#cfe0ff" opacity="0.52"/><circle cx="88.6" cy="1.9" r="0.5" fill="#cfe0ff" opacity="0.17"/><circle cx="444.9" cy="14.7" r="0.5" fill="#cfe0ff" opacity="0.56"/><circle cx="215.8" cy="81.8" r="1.0" fill="#cfe0ff" opacity="0.43"/><circle cx="227.1" cy="110.2" r="0.5" fill="#cfe0ff" opacity="0.42"/><circle cx="513.0" cy="149.3" r="0.7" fill="#cfe0ff" opacity="0.33"/><circle cx="103.0" cy="42.8" r="0.7" fill="#cfe0ff" opacity="0.44"/><circle cx="228.2" cy="117.2" r="1.0" fill="#cfe0ff" opacity="0.53"/><circle cx="486.3" cy="50.0" r="0.7" fill="#cfe0ff" opacity="0.24"/><circle cx="599.0" cy="0.6" r="0.5" fill="#cfe0ff" opacity="0.25"/><circle cx="230.1" cy="83.1" r="0.5" fill="#cfe0ff" opacity="0.41"/><circle cx="547.6" cy="129.7" r="1.0" fill="#cfe0ff" opacity="0.36"/><circle cx="13.1" cy="7.8" r="0.5" fill="#cfe0ff" opacity="0.28"/><circle cx="524.3" cy="163.1" r="0.7" fill="#cfe0ff" opacity="0.47"/><circle cx="344.2" cy="0.9" r="1.0" fill="#cfe0ff" opacity="0.34"/><circle cx="51.8" cy="145.1" r="1.0" fill="#cfe0ff" opacity="0.57"/><circle cx="16.6" cy="5.6" r="0.5" fill="#cfe0ff" opacity="0.17"/><circle cx="212.7" cy="76.0" r="1.0" fill="#cfe0ff" opacity="0.59"/><circle cx="577.7" cy="149.7" r="1.0" fill="#cfe0ff" opacity="0.24"/><circle cx="389.7" cy="109.7" r="0.7" fill="#cfe0ff" opacity="0.37"/><circle cx="448.1" cy="48.6" r="0.7" fill="#cfe0ff" opacity="0.24"/><circle cx="227.3" cy="128.9" r="0.5" fill="#cfe0ff" opacity="0.37"/><circle cx="21.3" cy="101.2" r="1.0" fill="#cfe0ff" opacity="0.51"/><circle cx="272.7" cy="82.6" r="1.0" fill="#cfe0ff" opacity="0.36"/></g>
<rect x="3" y="3" width="637" height="160" rx="12" fill="none" stroke="#26345c" stroke-width="1.2" opacity="0.7"/>
<path d="M241.6,96.0 Q330.1,72.0 408.0,93.1" fill="none" stroke="#f3a83a" stroke-width="7" opacity="0.12" stroke-linecap="round"/>
<path d="M241.6,96.0 Q330.1,72.0 408.0,93.1" fill="none" stroke="#f3a83a" stroke-width="2.6" stroke-linecap="round"/>
<path d="M418.6,96.0 L405.9,97.0 L411.0,93.9 L408.1,88.8 Z" fill="#f3a83a"/>
<rect x="30.0" y="56.0" width="208" height="80" rx="11" fill="url(#cg)" stroke="#b9a7ff" stroke-width="1.8" filter="url(#sf)"/>
<rect x="30.0" y="56.0" width="6" height="80" rx="3" fill="#b9a7ff"/>
<g><circle cx="62.000000000000014" cy="88.0" r="5.5" fill="none" stroke="#b9a7ff" stroke-width="2"/><path d="M52.000000000000014,106.0 a10,10 0 0 1 20,0" fill="none" stroke="#b9a7ff" stroke-width="2"/></g>
<text x="92.0" y="93.0" font-size="16" fill="#e8eefc" font-weight="bold">Alex · Jim</text>
<text x="92.0" y="112.0" font-size="12" fill="#8fa3c8">Service Principals</text>
<rect x="422.6" y="56.0" width="190" height="80" rx="11" fill="url(#cg)" stroke="#7fa8ff" stroke-width="1.8" filter="url(#sf)"/>
<rect x="422.6" y="56.0" width="6" height="80" rx="3" fill="#7fa8ff"/>
<g><rect x="440.6" y="83.0" width="28" height="19" rx="2.5" fill="none" stroke="#7fa8ff" stroke-width="2"/><line x1="449.6" y1="102.0" x2="446.6" y2="106.0" stroke="#7fa8ff" stroke-width="2"/><line x1="459.6" y1="102.0" x2="462.6" y2="106.0" stroke="#7fa8ff" stroke-width="2"/><line x1="444.6" y1="106.0" x2="464.6" y2="106.0" stroke="#7fa8ff" stroke-width="2"/></g>
<text x="484.6" y="93.0" font-size="16" fill="#e8eefc" font-weight="bold">Rocinante</text>
<text x="484.6" y="112.0" font-size="12" fill="#8fa3c8">Linux VM</text>
<rect x="267.0" y="73.0" width="126" height="19" rx="9.5" fill="#05070f" stroke="#f3a83a" stroke-width="1" opacity="0.97"/>
<text x="330.1" y="87.0" font-size="11.5" fill="#f3a83a" text-anchor="middle">command execution</text>
</svg>