<svg xmlns="http://www.w3.org/2000/svg" width="1398" height="166" viewBox="0 0 1398 166" font-family="monospace">
<defs>
<radialGradient id="bg" cx="50%" cy="38%" r="90%"><stop offset="0%" stop-color="#0b1330"/><stop offset="100%" stop-color="#05070f"/></radialGradient>
<linearGradient id="cg" x1="0" y1="0" x2="0" y2="1"><stop offset="0%" stop-color="#13203f"/><stop offset="100%" stop-color="#0e1730"/></linearGradient>
<filter id="sf" x="-40%" y="-40%" width="180%" height="180%"><feDropShadow dx="0" dy="2" stdDeviation="4" flood-color="#000" flood-opacity="0.5"/></filter>
</defs>
<rect width="1398" height="166" fill="url(#bg)"/>
<g><circle cx="235.0" cy="12.2" r="1.0" fill="#cfe0ff" opacity="0.47"/><circle cx="1374.8" cy="121.7" r="0.5" fill="#cfe0ff" opacity="0.27"/><circle cx="265.4" cy="27.6" r="1.0" fill="#cfe0ff" opacity="0.15"/><circle cx="117.4" cy="75.5" r="0.7" fill="#cfe0ff" opacity="0.16"/><circle cx="515.1" cy="28.6" r="0.5" fill="#cfe0ff" opacity="0.52"/><circle cx="1032.7" cy="143.5" r="1.0" fill="#cfe0ff" opacity="0.31"/><circle cx="116.8" cy="75.0" r="0.7" fill="#cfe0ff" opacity="0.23"/><circle cx="560.0" cy="78.1" r="0.7" fill="#cfe0ff" opacity="0.37"/><circle cx="313.8" cy="119.1" r="0.5" fill="#cfe0ff" opacity="0.50"/><circle cx="369.9" cy="16.4" r="1.0" fill="#cfe0ff" opacity="0.28"/><circle cx="149.6" cy="82.0" r="1.0" fill="#cfe0ff" opacity="0.17"/><circle cx="714.8" cy="5.0" r="0.7" fill="#cfe0ff" opacity="0.32"/><circle cx="1212.3" cy="127.3" r="0.7" fill="#cfe0ff" opacity="0.22"/><circle cx="1147.1" cy="163.0" r="1.0" fill="#cfe0ff" opacity="0.18"/><circle cx="264.1" cy="164.6" r="0.5" fill="#cfe0ff" opacity="0.51"/><circle cx="1166.4" cy="49.1" r="0.7" fill="#cfe0ff" opacity="0.21"/><circle cx="914.0" cy="113.0" r="0.5" fill="#cfe0ff" opacity="0.57"/><circle cx="200.8" cy="112.4" r="0.7" fill="#cfe0ff" opacity="0.57"/><circle cx="162.6" cy="30.9" r="1.0" fill="#cfe0ff" opacity="0.37"/><circle cx="1197.4" cy="59.9" r="0.7" fill="#cfe0ff" opacity="0.52"/><circle cx="457.1" cy="159.2" r="0.5" fill="#cfe0ff" opacity="0.35"/><circle cx="771.9" cy="110.1" r="1.0" fill="#cfe0ff" opacity="0.25"/><circle cx="981.6" cy="105.9" r="0.5" fill="#cfe0ff" opacity="0.60"/><circle cx="966.5" cy="166.0" r="0.7" fill="#cfe0ff" opacity="0.31"/><circle cx="583.4" cy="31.4" r="1.0" fill="#cfe0ff" opacity="0.55"/><circle cx="873.3" cy="19.3" r="1.0" fill="#cfe0ff" opacity="0.31"/><circle cx="1193.2" cy="87.8" r="0.7" fill="#cfe0ff" opacity="0.60"/><circle cx="1242.2" cy="64.9" r="1.0" fill="#cfe0ff" opacity="0.19"/><circle cx="1310.0" cy="158.5" r="0.5" fill="#cfe0ff" opacity="0.36"/><circle cx="367.3" cy="104.6" r="0.7" fill="#cfe0ff" opacity="0.49"/><circle cx="239.9" cy="8.5" r="0.5" fill="#cfe0ff" opacity="0.32"/><circle cx="919.2" cy="16.0" r="1.0" fill="#cfe0ff" opacity="0.25"/><circle cx="622.7" cy="154.7" r="0.7" fill="#cfe0ff" opacity="0.37"/><circle cx="592.0" cy="5.6" r="1.0" fill="#cfe0ff" opacity="0.43"/><circle cx="11.3" cy="120.0" r="0.7" fill="#cfe0ff" opacity="0.50"/><circle cx="428.0" cy="118.1" r="0.7" fill="#cfe0ff" opacity="0.29"/><circle cx="1209.8" cy="75.0" r="0.5" fill="#cfe0ff" opacity="0.26"/><circle cx="965.7" cy="125.3" r="0.7" fill="#cfe0ff" opacity="0.21"/><circle cx="1269.6" cy="55.9" r="0.7" fill="#cfe0ff" opacity="0.33"/><circle cx="899.6" cy="76.8" r="1.0" fill="#cfe0ff" opacity="0.23"/><circle cx="333.7" cy="88.9" r="0.7" fill="#cfe0ff" opacity="0.34"/><circle cx="677.8" cy="17.4" r="0.5" fill="#cfe0ff" opacity="0.47"/><circle cx="535.5" cy="64.4" r="0.5" fill="#cfe0ff" opacity="0.29"/><circle cx="1318.4" cy="39.6" r="0.5" fill="#cfe0ff" opacity="0.44"/><circle cx="1128.1" cy="27.0" r="0.7" fill="#cfe0ff" opacity="0.20"/><circle cx="718.4" cy="44.7" r="0.7" fill="#cfe0ff" opacity="0.50"/><circle cx="688.3" cy="9.3" r="0.5" fill="#cfe0ff" opacity="0.56"/><circle cx="206.3" cy="35.7" r="1.0" fill="#cfe0ff" opacity="0.46"/><circle cx="776.8" cy="109.1" r="0.5" fill="#cfe0ff" opacity="0.39"/><circle cx="647.6" cy="77.4" r="0.5" fill="#cfe0ff" opacity="0.51"/><circle cx="794.8" cy="43.3" r="0.7" fill="#cfe0ff" opacity="0.33"/><circle cx="1197.6" cy="31.2" r="0.7" fill="#cfe0ff" opacity="0.53"/><circle cx="785.0" cy="16.3" r="0.7" fill="#cfe0ff" opacity="0.17"/><circle cx="1103.1" cy="4.0" r="0.7" fill="#cfe0ff" opacity="0.56"/><circle cx="1021.5" cy="121.0" r="0.5" fill="#cfe0ff" opacity="0.51"/><circle cx="1061.2" cy="50.1" r="0.7" fill="#cfe0ff" opacity="0.28"/><circle cx="747.5" cy="14.0" r="0.5" fill="#cfe0ff" opacity="0.52"/><circle cx="1139.3" cy="157.7" r="0.7" fill="#cfe0ff" opacity="0.32"/><circle cx="1051.8" cy="140.3" r="1.0" fill="#cfe0ff" opacity="0.17"/><circle cx="166.8" cy="15.5" r="0.5" fill="#cfe0ff" opacity="0.29"/><circle cx="1376.6" cy="148.3" r="0.7" fill="#cfe0ff" opacity="0.37"/><circle cx="967.3" cy="78.7" r="0.5" fill="#cfe0ff" opacity="0.18"/><circle cx="601.8" cy="89.0" r="0.7" fill="#cfe0ff" opacity="0.32"/><circle cx="805.3" cy="102.6" r="0.5" fill="#cfe0ff" opacity="0.57"/><circle cx="763.9" cy="34.5" r="1.0" fill="#cfe0ff" opacity="0.16"/><circle cx="1221.4" cy="41.2" r="0.7" fill="#cfe0ff" opacity="0.36"/><circle cx="360.6" cy="3.6" r="0.5" fill="#cfe0ff" opacity="0.31"/><circle cx="136.3" cy="164.4" r="0.7" fill="#cfe0ff" opacity="0.19"/><circle cx="594.1" cy="12.4" r="0.7" fill="#cfe0ff" opacity="0.34"/><circle cx="530.6" cy="143.8" r="0.7" fill="#cfe0ff" opacity="0.49"/><circle cx="796.1" cy="80.4" r="1.0" fill="#cfe0ff" opacity="0.27"/><circle cx="1385.0" cy="133.7" r="1.0" fill="#cfe0ff" opacity="0.50"/><circle cx="808.3" cy="90.3" r="0.5" fill="#cfe0ff" opacity="0.28"/><circle cx="878.8" cy="126.6" r="0.5" fill="#cfe0ff" opacity="0.46"/><circle cx="981.1" cy="27.5" r="1.0" fill="#cfe0ff" opacity="0.41"/><circle cx="469.9" cy="106.4" r="0.5" fill="#cfe0ff" opacity="0.34"/><circle cx="1368.2" cy="58.2" r="0.7" fill="#cfe0ff" opacity="0.22"/><circle cx="617.9" cy="141.2" r="0.7" fill="#cfe0ff" opacity="0.49"/><circle cx="1036.7" cy="62.4" r="1.0" fill="#cfe0ff" opacity="0.59"/><circle cx="1268.3" cy="114.7" r="0.7" fill="#cfe0ff" opacity="0.53"/><circle cx="166.8" cy="1.6" r="1.0" fill="#cfe0ff" opacity="0.16"/><circle cx="1021.4" cy="18.0" r="0.5" fill="#cfe0ff" opacity="0.38"/><circle cx="314.0" cy="106.1" r="0.7" fill="#cfe0ff" opacity="0.26"/><circle cx="760.2" cy="80.4" r="0.7" fill="#cfe0ff" opacity="0.32"/><circle cx="601.4" cy="140.4" r="0.7" fill="#cfe0ff" opacity="0.47"/><circle cx="181.0" cy="56.9" r="0.7" fill="#cfe0ff" opacity="0.57"/><circle cx="1028.5" cy="114.9" r="0.5" fill="#cfe0ff" opacity="0.53"/><circle cx="737.2" cy="2.8" r="1.0" fill="#cfe0ff" opacity="0.34"/><circle cx="355.4" cy="120.9" r="1.0" fill="#cfe0ff" opacity="0.42"/><circle cx="684.3" cy="90.3" r="0.7" fill="#cfe0ff" opacity="0.20"/><circle cx="482.5" cy="156.9" r="0.7" fill="#cfe0ff" opacity="0.32"/><circle cx="499.5" cy="17.5" r="0.7" fill="#cfe0ff" opacity="0.27"/><circle cx="635.7" cy="98.4" r="1.0" fill="#cfe0ff" opacity="0.28"/><circle cx="1065.1" cy="59.4" r="0.7" fill="#cfe0ff" opacity="0.36"/><circle cx="514.9" cy="79.7" r="1.0" fill="#cfe0ff" opacity="0.20"/><circle cx="365.0" cy="144.3" r="1.0" fill="#cfe0ff" opacity="0.50"/><circle cx="1310.2" cy="155.1" r="1.0" fill="#cfe0ff" opacity="0.31"/><circle cx="506.7" cy="66.2" r="0.5" fill="#cfe0ff" opacity="0.25"/><circle cx="621.1" cy="27.5" r="0.5" fill="#cfe0ff" opacity="0.17"/><circle cx="471.2" cy="106.9" r="0.5" fill="#cfe0ff" opacity="0.25"/><circle cx="678.1" cy="99.0" r="0.5" fill="#cfe0ff" opacity="0.58"/><circle cx="894.0" cy="13.3" r="0.5" fill="#cfe0ff" opacity="0.24"/><circle cx="540.9" cy="147.3" r="0.7" fill="#cfe0ff" opacity="0.29"/><circle cx="1058.9" cy="61.6" r="0.5" fill="#cfe0ff" opacity="0.44"/><circle cx="1072.9" cy="86.2" r="1.0" fill="#cfe0ff" opacity="0.44"/><circle cx="1172.1" cy="33.8" r="1.0" fill="#cfe0ff" opacity="0.27"/><circle cx="78.4" cy="79.0" r="0.7" fill="#cfe0ff" opacity="0.57"/><circle cx="220.8" cy="105.5" r="1.0" fill="#cfe0ff" opacity="0.44"/><circle cx="121.4" cy="19.7" r="0.7" fill="#cfe0ff" opacity="0.42"/><circle cx="1197.8" cy="124.7" r="1.0" fill="#cfe0ff" opacity="0.56"/><circle cx="1033.9" cy="104.7" r="0.5" fill="#cfe0ff" opacity="0.24"/><circle cx="136.0" cy="49.6" r="0.7" fill="#cfe0ff" opacity="0.48"/><circle cx="1280.0" cy="86.1" r="1.0" fill="#cfe0ff" opacity="0.34"/><circle cx="1010.2" cy="83.0" r="0.7" fill="#cfe0ff" opacity="0.15"/><circle cx="972.9" cy="18.2" r="1.0" fill="#cfe0ff" opacity="0.28"/><circle cx="976.3" cy="125.2" r="0.7" fill="#cfe0ff" opacity="0.17"/></g>
<rect x="3" y="3" width="1392" height="160" rx="12" fill="none" stroke="#26345c" stroke-width="1.2" opacity="0.7"/>
<path d="M224.0,96.0 Q312.5,72.0 390.4,93.1" fill="none" stroke="#ffd34d" stroke-width="7" opacity="0.12" stroke-linecap="round"/>
<path d="M224.0,96.0 Q312.5,72.0 390.4,93.1" fill="none" stroke="#ffd34d" stroke-width="2.6" stroke-linecap="round"/>
<path d="M401.0,96.0 L388.3,97.0 L393.4,93.9 L390.5,88.8 Z" fill="#ffd34d"/>
<path d="M599.0,96.0 Q687.5,72.0 765.4,93.1" fill="none" stroke="#ffd34d" stroke-width="7" opacity="0.12" stroke-linecap="round"/>
<path d="M599.0,96.0 Q687.5,72.0 765.4,93.1" fill="none" stroke="#ffd34d" stroke-width="2.6" stroke-linecap="round"/>
<path d="M776.0,96.0 L763.3,97.0 L768.4,93.9 L765.5,88.8 Z" fill="#ffd34d"/>
<path d="M986.8,96.0 Q1075.3,72.0 1153.2,93.1" fill="none" stroke="#ffd34d" stroke-width="7" opacity="0.12" stroke-linecap="round"/>
<path d="M986.8,96.0 Q1075.3,72.0 1153.2,93.1" fill="none" stroke="#ffd34d" stroke-width="2.6" stroke-linecap="round"/>
<path d="M1163.8,96.0 L1151.1,97.0 L1156.2,93.9 L1153.3,88.8 Z" fill="#ffd34d"/>
<rect x="30.0" y="56.0" width="190" height="80" rx="11" fill="url(#cg)" stroke="#7fa8ff" stroke-width="1.8" filter="url(#sf)"/>
<rect x="30.0" y="56.0" width="6" height="80" rx="3" fill="#7fa8ff"/>
<g><rect x="48.0" y="83.0" width="28" height="19" rx="2.5" fill="none" stroke="#7fa8ff" stroke-width="2"/><line x1="57.0" y1="102.0" x2="54.0" y2="106.0" stroke="#7fa8ff" stroke-width="2"/><line x1="67.0" y1="102.0" x2="70.0" y2="106.0" stroke="#7fa8ff" stroke-width="2"/><line x1="52.0" y1="106.0" x2="72.0" y2="106.0" stroke="#7fa8ff" stroke-width="2"/></g>
<text x="92.0" y="93.0" font-size="16" fill="#e8eefc" font-weight="bold">Donnager</text>
<text x="92.0" y="112.0" font-size="12" fill="#8fa3c8">Windows VM</text>
<rect x="405.0" y="56.0" width="190" height="80" rx="11" fill="url(#cg)" stroke="#69f0b0" stroke-width="1.8" filter="url(#sf)"/>
<rect x="405.0" y="56.0" width="6" height="80" rx="3" fill="#69f0b0"/>
<g><circle cx="434.0" cy="90.0" r="7.5" fill="none" stroke="#69f0b0" stroke-width="2.2"/><path d="M438.0,94.0 L447.0,103.0 M443.0,99.0 L447.0,95.0 M447.0,103.0 L444.0,106.0" stroke="#69f0b0" stroke-width="2.2" fill="none"/></g>
<text x="467.0" y="93.0" font-size="16" fill="#e8eefc" font-weight="bold">Ganymede</text>
<text x="467.0" y="112.0" font-size="12" fill="#8fa3c8">Key Vault</text>
<rect x="780.0" y="56.0" width="203" height="80" rx="11" fill="url(#cg)" stroke="#5ad1ff" stroke-width="1.8" filter="url(#sf)"/>
<rect x="780.0" y="56.0" width="6" height="80" rx="3" fill="#5ad1ff"/>
<g><circle cx="812.0" cy="88.0" r="5.5" fill="none" stroke="#5ad1ff" stroke-width="2"/><path d="M802.0,106.0 a10,10 0 0 1 20,0" fill="none" stroke="#5ad1ff" stroke-width="2"/></g>
<text x="842.0" y="93.0" font-size="16" fill="#e8eefc" font-weight="bold">Protomolecule</text>
<text x="842.0" y="112.0" font-size="12" fill="#8fa3c8">Service Principal</text>
<rect x="1167.8" y="56.0" width="200" height="80" rx="11" fill="url(#cg)" stroke="#ffd34d" stroke-width="1.8" filter="url(#sf)"/>
<rect x="1167.8" y="56.0" width="6" height="80" rx="3" fill="#ffd34d"/>
<g><path d="M1184.8,103.0 L1184.8,90.0 L1192.8,97.0 L1199.8,84.0 L1206.8,97.0 L1214.8,90.0 L1214.8,103.0 Z" fill="none" stroke="#ffd34d" stroke-width="2.2" stroke-linejoin="round"/><line x1="1184.8" y1="106.0" x2="1214.8" y2="106.0" stroke="#ffd34d" stroke-width="2.2"/></g>
<text x="1229.8" y="93.0" font-size="16" fill="#e8eefc" font-weight="bold">CROWN JEWELS</text>
<text x="1229.8" y="112.0" font-size="12" fill="#8fa3c8">Contributor on RG</text>
<rect x="232.9" y="73.0" width="159" height="19" rx="9.5" fill="#05070f" stroke="#ffd34d" stroke-width="1" opacity="0.97"/>
<text x="312.5" y="87.0" font-size="11.5" fill="#ffd34d" text-anchor="middle">managed-identity abuse</text>
<rect x="631.0" y="73.0" width="113" height="19" rx="9.5" fill="#05070f" stroke="#ffd34d" stroke-width="1" opacity="0.97"/>
<text x="687.5" y="87.0" font-size="11.5" fill="#ffd34d" text-anchor="middle">credential leak</text>
<rect x="1032.0" y="73.0" width="87" height="19" rx="9.5" fill="#05070f" stroke="#ffd34d" stroke-width="1" opacity="0.97"/>
<text x="1075.3" y="87.0" font-size="11.5" fill="#ffd34d" text-anchor="middle">Contributor</text>
</svg>