<svg xmlns="http://www.w3.org/2000/svg" width="625" height="166" viewBox="0 0 625 166" font-family="monospace">
<defs>
<radialGradient id="bg" cx="50%" cy="38%" r="90%"><stop offset="0%" stop-color="#0b1330"/><stop offset="100%" stop-color="#05070f"/></radialGradient>
<linearGradient id="cg" x1="0" y1="0" x2="0" y2="1"><stop offset="0%" stop-color="#13203f"/><stop offset="100%" stop-color="#0e1730"/></linearGradient>
<filter id="sf" x="-40%" y="-40%" width="180%" height="180%"><feDropShadow dx="0" dy="2" stdDeviation="4" flood-color="#000" flood-opacity="0.5"/></filter>
</defs>
<rect width="625" height="166" fill="url(#bg)"/>
<g><circle cx="582.3" cy="23.6" r="0.7" fill="#cfe0ff" opacity="0.29"/><circle cx="248.4" cy="23.5" r="0.5" fill="#cfe0ff" opacity="0.17"/><circle cx="567.9" cy="67.9" r="0.7" fill="#cfe0ff" opacity="0.59"/><circle cx="497.7" cy="146.5" r="1.0" fill="#cfe0ff" opacity="0.19"/><circle cx="375.9" cy="154.1" r="0.5" fill="#cfe0ff" opacity="0.19"/><circle cx="253.4" cy="87.2" r="0.7" fill="#cfe0ff" opacity="0.40"/><circle cx="432.2" cy="134.7" r="1.0" fill="#cfe0ff" opacity="0.45"/><circle cx="407.8" cy="29.8" r="0.5" fill="#cfe0ff" opacity="0.40"/><circle cx="384.5" cy="30.2" r="0.7" fill="#cfe0ff" opacity="0.26"/><circle cx="189.4" cy="124.5" r="0.7" fill="#cfe0ff" opacity="0.35"/><circle cx="440.6" cy="137.1" r="0.5" fill="#cfe0ff" opacity="0.43"/><circle cx="613.5" cy="161.0" r="0.7" fill="#cfe0ff" opacity="0.42"/><circle cx="40.1" cy="37.1" r="0.5" fill="#cfe0ff" opacity="0.47"/><circle cx="259.5" cy="103.9" r="0.5" fill="#cfe0ff" opacity="0.47"/><circle cx="132.3" cy="122.1" r="0.5" fill="#cfe0ff" opacity="0.44"/><circle cx="436.7" cy="129.5" r="1.0" fill="#cfe0ff" opacity="0.28"/><circle cx="291.5" cy="37.6" r="0.5" fill="#cfe0ff" opacity="0.16"/><circle cx="583.9" cy="64.5" r="0.5" fill="#cfe0ff" opacity="0.23"/><circle cx="146.3" cy="101.8" r="0.5" fill="#cfe0ff" opacity="0.18"/><circle cx="348.7" cy="114.3" r="0.5" fill="#cfe0ff" opacity="0.26"/><circle cx="190.1" cy="98.4" r="1.0" fill="#cfe0ff" opacity="0.26"/><circle cx="53.5" cy="87.6" r="1.0" fill="#cfe0ff" opacity="0.25"/><circle cx="512.2" cy="65.7" r="0.5" fill="#cfe0ff" opacity="0.58"/><circle cx="238.2" cy="59.2" r="0.5" fill="#cfe0ff" opacity="0.37"/><circle cx="288.3" cy="101.9" r="0.5" fill="#cfe0ff" opacity="0.25"/><circle cx="497.1" cy="140.1" r="0.5" fill="#cfe0ff" opacity="0.23"/><circle cx="253.3" cy="19.3" r="0.5" fill="#cfe0ff" opacity="0.55"/><circle cx="590.0" cy="137.7" r="1.0" fill="#cfe0ff" opacity="0.56"/><circle cx="556.3" cy="69.4" r="0.5" fill="#cfe0ff" opacity="0.48"/><circle cx="394.9" cy="122.2" r="1.0" fill="#cfe0ff" opacity="0.30"/><circle cx="285.7" cy="83.0" r="0.7" fill="#cfe0ff" opacity="0.20"/><circle cx="38.5" cy="136.0" r="1.0" fill="#cfe0ff" opacity="0.47"/><circle cx="212.3" cy="10.5" r="1.0" fill="#cfe0ff" opacity="0.55"/><circle cx="7.1" cy="155.1" r="0.7" fill="#cfe0ff" opacity="0.28"/><circle cx="518.8" cy="160.9" r="0.5" fill="#cfe0ff" opacity="0.54"/><circle cx="446.9" cy="142.9" r="1.0" fill="#cfe0ff" opacity="0.19"/><circle cx="544.2" cy="88.3" r="0.5" fill="#cfe0ff" opacity="0.25"/><circle cx="39.6" cy="4.6" r="1.0" fill="#cfe0ff" opacity="0.23"/><circle cx="14.1" cy="141.6" r="1.0" fill="#cfe0ff" opacity="0.31"/><circle cx="65.0" cy="75.9" r="0.7" fill="#cfe0ff" opacity="0.44"/><circle cx="165.9" cy="106.6" r="1.0" fill="#cfe0ff" opacity="0.44"/><circle cx="531.8" cy="156.8" r="0.7" fill="#cfe0ff" opacity="0.33"/><circle cx="184.3" cy="138.3" r="0.7" fill="#cfe0ff" opacity="0.47"/><circle cx="311.9" cy="144.0" r="1.0" fill="#cfe0ff" opacity="0.56"/><circle cx="244.8" cy="158.7" r="0.7" fill="#cfe0ff" opacity="0.46"/><circle cx="217.0" cy="125.5" r="0.7" fill="#cfe0ff" opacity="0.15"/><circle cx="212.8" cy="140.8" r="1.0" fill="#cfe0ff" opacity="0.55"/><circle cx="14.4" cy="92.4" r="0.5" fill="#cfe0ff" opacity="0.21"/><circle cx="509.9" cy="106.2" r="0.7" fill="#cfe0ff" opacity="0.42"/><circle cx="575.0" cy="158.5" r="0.5" fill="#cfe0ff" opacity="0.31"/><circle cx="59.1" cy="92.6" r="0.7" fill="#cfe0ff" opacity="0.16"/><circle cx="103.6" cy="145.8" r="0.5" fill="#cfe0ff" opacity="0.21"/></g>
<rect x="3" y="3" width="619" height="160" rx="12" fill="none" stroke="#26345c" stroke-width="1.2" opacity="0.7"/>
<path d="M224.0,96.0 Q312.5,72.0 390.4,93.1" fill="none" stroke="#ff5d5d" stroke-width="7" opacity="0.12" stroke-linecap="round"/>
<path d="M224.0,96.0 Q312.5,72.0 390.4,93.1" fill="none" stroke="#ff5d5d" stroke-width="2.6" stroke-linecap="round"/>
<path d="M401.0,96.0 L388.3,97.0 L393.4,93.9 L390.5,88.8 Z" fill="#ff5d5d"/>
<rect x="30.0" y="56.0" width="190" height="80" rx="11" fill="url(#cg)" stroke="#7fa8ff" stroke-width="1.8" filter="url(#sf)"/>
<rect x="30.0" y="56.0" width="6" height="80" rx="3" fill="#7fa8ff"/>
<g><rect x="48.0" y="83.0" width="28" height="19" rx="2.5" fill="none" stroke="#7fa8ff" stroke-width="2"/><line x1="57.0" y1="102.0" x2="54.0" y2="106.0" stroke="#7fa8ff" stroke-width="2"/><line x1="67.0" y1="102.0" x2="70.0" y2="106.0" stroke="#7fa8ff" stroke-width="2"/><line x1="52.0" y1="106.0" x2="72.0" y2="106.0" stroke="#7fa8ff" stroke-width="2"/></g>
<text x="92.0" y="93.0" font-size="16" fill="#e8eefc" font-weight="bold">Donnager</text>
<text x="92.0" y="112.0" font-size="12" fill="#8fa3c8">Windows VM</text>
<rect x="405.0" y="56.0" width="190" height="80" rx="11" fill="url(#cg)" stroke="#ef7c28" stroke-width="1.8" filter="url(#sf)"/>
<rect x="405.0" y="56.0" width="6" height="80" rx="3" fill="#ef7c28"/>
<g><rect x="424.0" y="82.0" width="26" height="24" rx="3" fill="none" stroke="#ef7c28" stroke-width="2"/><line x1="424.0" y1="88.0" x2="450.0" y2="88.0" stroke="#ef7c28" stroke-width="1.1" opacity="0.7"/><line x1="424.0" y1="94.0" x2="450.0" y2="94.0" stroke="#ef7c28" stroke-width="1.1" opacity="0.7"/><line x1="424.0" y1="100.0" x2="450.0" y2="100.0" stroke="#ef7c28" stroke-width="1.1" opacity="0.7"/></g>
<text x="467.0" y="93.0" font-size="16" fill="#e8eefc" font-weight="bold">labpallas</text>
<text x="467.0" y="112.0" font-size="12" fill="#8fa3c8">Storage account</text>
<rect x="223.0" y="73.0" width="179" height="19" rx="9.5" fill="#05070f" stroke="#ff5d5d" stroke-width="1" opacity="0.97"/>
<text x="312.5" y="87.0" font-size="11.5" fill="#ff5d5d" text-anchor="middle">key disclosure (listKeys)</text>
</svg>