<svg xmlns="http://www.w3.org/2000/svg" width="1398" height="166" viewBox="0 0 1398 166" font-family="monospace">
<defs>
<radialGradient id="bg" cx="50%" cy="38%" r="90%"><stop offset="0%" stop-color="#0b1330"/><stop offset="100%" stop-color="#05070f"/></radialGradient>
<linearGradient id="cg" x1="0" y1="0" x2="0" y2="1"><stop offset="0%" stop-color="#13203f"/><stop offset="100%" stop-color="#0e1730"/></linearGradient>
<filter id="sf" x="-40%" y="-40%" width="180%" height="180%"><feDropShadow dx="0" dy="2" stdDeviation="4" flood-color="#000" flood-opacity="0.5"/></filter>
</defs>
<rect width="1398" height="166" fill="url(#bg)"/>
<g><circle cx="1207.4" cy="21.3" r="1.0" fill="#cfe0ff" opacity="0.42"/><circle cx="1293.9" cy="134.0" r="0.5" fill="#cfe0ff" opacity="0.54"/><circle cx="1335.8" cy="89.2" r="0.7" fill="#cfe0ff" opacity="0.52"/><circle cx="711.9" cy="34.4" r="0.5" fill="#cfe0ff" opacity="0.49"/><circle cx="672.9" cy="47.0" r="1.0" fill="#cfe0ff" opacity="0.59"/><circle cx="1065.8" cy="98.1" r="1.0" fill="#cfe0ff" opacity="0.46"/><circle cx="621.1" cy="120.9" r="0.5" fill="#cfe0ff" opacity="0.19"/><circle cx="1268.6" cy="82.3" r="0.5" fill="#cfe0ff" opacity="0.24"/><circle cx="1264.3" cy="83.7" r="1.0" fill="#cfe0ff" opacity="0.30"/><circle cx="549.4" cy="150.7" r="0.5" fill="#cfe0ff" opacity="0.41"/><circle cx="970.3" cy="70.0" r="0.5" fill="#cfe0ff" opacity="0.41"/><circle cx="232.7" cy="35.5" r="0.7" fill="#cfe0ff" opacity="0.42"/><circle cx="890.1" cy="41.2" r="0.5" fill="#cfe0ff" opacity="0.50"/><circle cx="1058.3" cy="112.4" r="0.5" fill="#cfe0ff" opacity="0.44"/><circle cx="50.7" cy="165.9" r="0.5" fill="#cfe0ff" opacity="0.27"/><circle cx="665.4" cy="67.0" r="0.7" fill="#cfe0ff" opacity="0.59"/><circle cx="901.0" cy="10.6" r="0.7" fill="#cfe0ff" opacity="0.47"/><circle cx="959.9" cy="142.5" r="1.0" fill="#cfe0ff" opacity="0.36"/><circle cx="882.8" cy="15.8" r="0.7" fill="#cfe0ff" opacity="0.39"/><circle cx="1036.5" cy="112.9" r="1.0" fill="#cfe0ff" opacity="0.26"/><circle cx="246.9" cy="114.8" r="0.5" fill="#cfe0ff" opacity="0.21"/><circle cx="185.9" cy="161.3" r="0.5" fill="#cfe0ff" opacity="0.60"/><circle cx="1368.4" cy="90.5" r="0.7" fill="#cfe0ff" opacity="0.47"/><circle cx="1025.3" cy="156.0" r="0.5" fill="#cfe0ff" opacity="0.36"/><circle cx="26.9" cy="51.1" r="1.0" fill="#cfe0ff" opacity="0.59"/><circle cx="367.0" cy="70.6" r="0.7" fill="#cfe0ff" opacity="0.42"/><circle cx="772.0" cy="21.9" r="0.7" fill="#cfe0ff" opacity="0.16"/><circle cx="803.2" cy="114.0" r="1.0" fill="#cfe0ff" opacity="0.56"/><circle cx="243.9" cy="45.3" r="1.0" fill="#cfe0ff" opacity="0.34"/><circle cx="593.9" cy="41.3" r="0.7" fill="#cfe0ff" opacity="0.39"/><circle cx="1268.2" cy="100.4" r="0.7" fill="#cfe0ff" opacity="0.48"/><circle cx="265.0" cy="50.9" r="0.5" fill="#cfe0ff" opacity="0.32"/><circle cx="863.0" cy="59.8" r="0.5" fill="#cfe0ff" opacity="0.32"/><circle cx="1110.0" cy="103.6" r="0.5" fill="#cfe0ff" opacity="0.26"/><circle cx="1026.0" cy="117.5" r="0.7" fill="#cfe0ff" opacity="0.30"/><circle cx="503.7" cy="143.5" r="0.7" fill="#cfe0ff" opacity="0.31"/><circle cx="371.8" cy="26.5" r="0.7" fill="#cfe0ff" opacity="0.55"/><circle cx="302.4" cy="95.2" r="0.7" fill="#cfe0ff" opacity="0.21"/><circle cx="869.4" cy="114.2" r="1.0" fill="#cfe0ff" opacity="0.54"/><circle cx="691.1" cy="44.4" r="0.5" fill="#cfe0ff" opacity="0.19"/><circle cx="518.7" cy="45.9" r="0.7" fill="#cfe0ff" opacity="0.50"/><circle cx="718.2" cy="165.1" r="1.0" fill="#cfe0ff" opacity="0.45"/><circle cx="23.1" cy="27.3" r="1.0" fill="#cfe0ff" opacity="0.16"/><circle cx="589.6" cy="45.3" r="0.5" fill="#cfe0ff" opacity="0.38"/><circle cx="1325.2" cy="114.2" r="0.5" fill="#cfe0ff" opacity="0.40"/><circle cx="195.6" cy="105.5" r="0.5" fill="#cfe0ff" opacity="0.22"/><circle cx="211.3" cy="9.5" r="0.5" fill="#cfe0ff" opacity="0.33"/><circle cx="1152.2" cy="149.2" r="0.7" fill="#cfe0ff" opacity="0.49"/><circle cx="58.7" cy="157.8" r="0.5" fill="#cfe0ff" opacity="0.55"/><circle cx="809.3" cy="146.2" r="0.5" fill="#cfe0ff" opacity="0.55"/><circle cx="1379.4" cy="96.0" r="0.5" fill="#cfe0ff" opacity="0.53"/><circle cx="547.4" cy="123.0" r="0.5" fill="#cfe0ff" opacity="0.47"/><circle cx="220.9" cy="155.4" r="0.5" fill="#cfe0ff" opacity="0.21"/><circle cx="748.9" cy="31.3" r="0.7" fill="#cfe0ff" opacity="0.37"/><circle cx="539.5" cy="60.1" r="1.0" fill="#cfe0ff" opacity="0.55"/><circle cx="394.8" cy="55.9" r="0.7" fill="#cfe0ff" opacity="0.22"/><circle cx="354.1" cy="63.2" r="1.0" fill="#cfe0ff" opacity="0.36"/><circle cx="673.8" cy="68.3" r="1.0" fill="#cfe0ff" opacity="0.28"/><circle cx="788.2" cy="129.1" r="1.0" fill="#cfe0ff" opacity="0.30"/><circle cx="794.2" cy="113.0" r="0.5" fill="#cfe0ff" opacity="0.40"/><circle cx="1318.1" cy="99.8" r="0.5" fill="#cfe0ff" opacity="0.59"/><circle cx="256.6" cy="45.4" r="0.7" fill="#cfe0ff" opacity="0.60"/><circle cx="408.8" cy="126.6" r="1.0" fill="#cfe0ff" opacity="0.56"/><circle cx="924.6" cy="113.2" r="1.0" fill="#cfe0ff" opacity="0.49"/><circle cx="503.9" cy="114.5" r="0.5" fill="#cfe0ff" opacity="0.46"/><circle cx="1083.5" cy="77.8" r="0.5" fill="#cfe0ff" opacity="0.48"/><circle cx="1072.5" cy="106.5" r="0.7" fill="#cfe0ff" opacity="0.22"/><circle cx="515.0" cy="30.9" r="1.0" fill="#cfe0ff" opacity="0.42"/><circle cx="1264.4" cy="5.7" r="0.7" fill="#cfe0ff" opacity="0.54"/><circle cx="1110.9" cy="164.8" r="1.0" fill="#cfe0ff" opacity="0.24"/><circle cx="1307.5" cy="141.9" r="0.5" fill="#cfe0ff" opacity="0.32"/><circle cx="134.6" cy="115.4" r="0.7" fill="#cfe0ff" opacity="0.38"/><circle cx="515.6" cy="9.3" r="1.0" fill="#cfe0ff" opacity="0.55"/><circle cx="247.9" cy="59.0" r="0.5" fill="#cfe0ff" opacity="0.49"/><circle cx="1281.4" cy="141.6" r="1.0" fill="#cfe0ff" opacity="0.50"/><circle cx="50.1" cy="47.0" r="0.5" fill="#cfe0ff" opacity="0.19"/><circle cx="82.4" cy="128.7" r="0.5" fill="#cfe0ff" opacity="0.45"/><circle cx="1129.1" cy="68.6" r="1.0" fill="#cfe0ff" opacity="0.31"/><circle cx="368.0" cy="15.7" r="1.0" fill="#cfe0ff" opacity="0.17"/><circle cx="1286.5" cy="119.1" r="0.7" fill="#cfe0ff" opacity="0.58"/><circle cx="797.8" cy="98.4" r="0.5" fill="#cfe0ff" opacity="0.18"/><circle cx="993.4" cy="126.1" r="0.7" fill="#cfe0ff" opacity="0.38"/><circle cx="421.8" cy="81.4" r="1.0" fill="#cfe0ff" opacity="0.49"/><circle cx="236.7" cy="63.2" r="0.7" fill="#cfe0ff" opacity="0.24"/><circle cx="1157.7" cy="125.4" r="0.5" fill="#cfe0ff" opacity="0.19"/><circle cx="750.2" cy="149.3" r="0.5" fill="#cfe0ff" opacity="0.36"/><circle cx="210.7" cy="9.4" r="1.0" fill="#cfe0ff" opacity="0.59"/><circle cx="1264.9" cy="1.2" r="0.5" fill="#cfe0ff" opacity="0.56"/><circle cx="432.3" cy="60.3" r="0.5" fill="#cfe0ff" opacity="0.25"/><circle cx="285.7" cy="90.3" r="1.0" fill="#cfe0ff" opacity="0.35"/><circle cx="654.6" cy="158.0" r="0.5" fill="#cfe0ff" opacity="0.37"/><circle cx="382.6" cy="119.1" r="0.7" fill="#cfe0ff" opacity="0.51"/><circle cx="778.9" cy="113.1" r="1.0" fill="#cfe0ff" opacity="0.28"/><circle cx="82.5" cy="131.7" r="0.5" fill="#cfe0ff" opacity="0.31"/><circle cx="8.1" cy="153.7" r="0.7" fill="#cfe0ff" opacity="0.48"/><circle cx="876.6" cy="115.3" r="1.0" fill="#cfe0ff" opacity="0.48"/><circle cx="306.3" cy="58.7" r="0.5" fill="#cfe0ff" opacity="0.57"/><circle cx="106.7" cy="76.2" r="0.5" fill="#cfe0ff" opacity="0.28"/><circle cx="923.0" cy="23.4" r="0.5" fill="#cfe0ff" opacity="0.57"/><circle cx="427.8" cy="61.9" r="0.5" fill="#cfe0ff" opacity="0.40"/><circle cx="200.2" cy="81.1" r="1.0" fill="#cfe0ff" opacity="0.53"/><circle cx="344.4" cy="24.3" r="0.5" fill="#cfe0ff" opacity="0.36"/><circle cx="832.8" cy="135.4" r="1.0" fill="#cfe0ff" opacity="0.28"/><circle cx="786.9" cy="154.9" r="0.5" fill="#cfe0ff" opacity="0.56"/><circle cx="606.0" cy="47.9" r="1.0" fill="#cfe0ff" opacity="0.31"/><circle cx="922.1" cy="31.0" r="0.7" fill="#cfe0ff" opacity="0.18"/><circle cx="505.2" cy="77.4" r="0.5" fill="#cfe0ff" opacity="0.54"/><circle cx="291.6" cy="77.5" r="0.5" fill="#cfe0ff" opacity="0.49"/><circle cx="140.6" cy="152.7" r="0.5" fill="#cfe0ff" opacity="0.18"/><circle cx="1187.7" cy="8.8" r="1.0" fill="#cfe0ff" opacity="0.17"/><circle cx="862.5" cy="107.0" r="0.7" fill="#cfe0ff" opacity="0.33"/><circle cx="169.8" cy="64.3" r="0.5" fill="#cfe0ff" opacity="0.38"/><circle cx="504.7" cy="82.2" r="1.0" fill="#cfe0ff" opacity="0.48"/><circle cx="589.4" cy="151.8" r="0.7" fill="#cfe0ff" opacity="0.49"/><circle cx="523.9" cy="6.1" r="0.5" fill="#cfe0ff" opacity="0.35"/><circle cx="1360.1" cy="63.8" r="1.0" fill="#cfe0ff" opacity="0.48"/></g>
<rect x="3" y="3" width="1392" height="160" rx="12" fill="none" stroke="#26345c" stroke-width="1.2" opacity="0.7"/>
<path d="M224.0,96.0 Q312.5,72.0 390.4,93.1" fill="none" stroke="#ffd34d" stroke-width="7" opacity="0.12" stroke-linecap="round"/>
<path d="M224.0,96.0 Q312.5,72.0 390.4,93.1" fill="none" stroke="#ffd34d" stroke-width="2.6" stroke-linecap="round"/>
<path d="M401.0,96.0 L388.3,97.0 L393.4,93.9 L390.5,88.8 Z" fill="#ffd34d"/>
<path d="M599.0,96.0 Q687.5,72.0 765.4,93.1" fill="none" stroke="#ffd34d" stroke-width="7" opacity="0.12" stroke-linecap="round"/>
<path d="M599.0,96.0 Q687.5,72.0 765.4,93.1" fill="none" stroke="#ffd34d" stroke-width="2.6" stroke-linecap="round"/>
<path d="M776.0,96.0 L763.3,97.0 L768.4,93.9 L765.5,88.8 Z" fill="#ffd34d"/>
<path d="M986.8,96.0 Q1075.3,72.0 1153.2,93.1" fill="none" stroke="#ffd34d" stroke-width="7" opacity="0.12" stroke-linecap="round"/>
<path d="M986.8,96.0 Q1075.3,72.0 1153.2,93.1" fill="none" stroke="#ffd34d" stroke-width="2.6" stroke-linecap="round"/>
<path d="M1163.8,96.0 L1151.1,97.0 L1156.2,93.9 L1153.3,88.8 Z" fill="#ffd34d"/>
<rect x="30.0" y="56.0" width="190" height="80" rx="11" fill="url(#cg)" stroke="#7fa8ff" stroke-width="1.8" filter="url(#sf)"/>
<rect x="30.0" y="56.0" width="6" height="80" rx="3" fill="#7fa8ff"/>
<g><rect x="48.0" y="83.0" width="28" height="19" rx="2.5" fill="none" stroke="#7fa8ff" stroke-width="2"/><line x1="57.0" y1="102.0" x2="54.0" y2="106.0" stroke="#7fa8ff" stroke-width="2"/><line x1="67.0" y1="102.0" x2="70.0" y2="106.0" stroke="#7fa8ff" stroke-width="2"/><line x1="52.0" y1="106.0" x2="72.0" y2="106.0" stroke="#7fa8ff" stroke-width="2"/></g>
<text x="92.0" y="93.0" font-size="16" fill="#e8eefc" font-weight="bold">Donnager</text>
<text x="92.0" y="112.0" font-size="12" fill="#8fa3c8">Windows VM</text>
<rect x="405.0" y="56.0" width="190" height="80" rx="11" fill="url(#cg)" stroke="#69f0b0" stroke-width="1.8" filter="url(#sf)"/>
<rect x="405.0" y="56.0" width="6" height="80" rx="3" fill="#69f0b0"/>
<g><circle cx="434.0" cy="90.0" r="7.5" fill="none" stroke="#69f0b0" stroke-width="2.2"/><path d="M438.0,94.0 L447.0,103.0 M443.0,99.0 L447.0,95.0 M447.0,103.0 L444.0,106.0" stroke="#69f0b0" stroke-width="2.2" fill="none"/></g>
<text x="467.0" y="93.0" font-size="16" fill="#e8eefc" font-weight="bold">Ganymede</text>
<text x="467.0" y="112.0" font-size="12" fill="#8fa3c8">Key Vault</text>
<rect x="780.0" y="56.0" width="203" height="80" rx="11" fill="url(#cg)" stroke="#b9a7ff" stroke-width="1.8" filter="url(#sf)"/>
<rect x="780.0" y="56.0" width="6" height="80" rx="3" fill="#b9a7ff"/>
<g><circle cx="812.0" cy="88.0" r="5.5" fill="none" stroke="#b9a7ff" stroke-width="2"/><path d="M802.0,106.0 a10,10 0 0 1 20,0" fill="none" stroke="#b9a7ff" stroke-width="2"/></g>
<text x="842.0" y="93.0" font-size="16" fill="#e8eefc" font-weight="bold">Protomolecule</text>
<text x="842.0" y="112.0" font-size="12" fill="#8fa3c8">Service Principal</text>
<rect x="1167.8" y="56.0" width="200" height="80" rx="11" fill="url(#cg)" stroke="#ffd34d" stroke-width="1.8" filter="url(#sf)"/>
<rect x="1167.8" y="56.0" width="6" height="80" rx="3" fill="#ffd34d"/>
<g><path d="M1184.8,103.0 L1184.8,90.0 L1192.8,97.0 L1199.8,84.0 L1206.8,97.0 L1214.8,90.0 L1214.8,103.0 Z" fill="none" stroke="#ffd34d" stroke-width="2.2" stroke-linejoin="round"/><line x1="1184.8" y1="106.0" x2="1214.8" y2="106.0" stroke="#ffd34d" stroke-width="2.2"/></g>
<text x="1229.8" y="93.0" font-size="16" fill="#e8eefc" font-weight="bold">CROWN JEWELS</text>
<text x="1229.8" y="112.0" font-size="12" fill="#8fa3c8">Contributor on RG</text>
<rect x="232.9" y="73.0" width="159" height="19" rx="9.5" fill="#05070f" stroke="#ffd34d" stroke-width="1" opacity="0.97"/>
<text x="312.5" y="87.0" font-size="11.5" fill="#ffd34d" text-anchor="middle">managed-identity abuse</text>
<rect x="631.0" y="73.0" width="113" height="19" rx="9.5" fill="#05070f" stroke="#ffd34d" stroke-width="1" opacity="0.97"/>
<text x="687.5" y="87.0" font-size="11.5" fill="#ffd34d" text-anchor="middle">credential leak</text>
<rect x="1032.0" y="73.0" width="87" height="19" rx="9.5" fill="#05070f" stroke="#ffd34d" stroke-width="1" opacity="0.97"/>
<text x="1075.3" y="87.0" font-size="11.5" fill="#ffd34d" text-anchor="middle">Contributor</text>
</svg>