<svg xmlns="http://www.w3.org/2000/svg" width="625" height="166" viewBox="0 0 625 166" font-family="monospace">
<defs>
<radialGradient id="bg" cx="50%" cy="38%" r="90%"><stop offset="0%" stop-color="#0b1330"/><stop offset="100%" stop-color="#05070f"/></radialGradient>
<linearGradient id="cg" x1="0" y1="0" x2="0" y2="1"><stop offset="0%" stop-color="#13203f"/><stop offset="100%" stop-color="#0e1730"/></linearGradient>
<filter id="sf" x="-40%" y="-40%" width="180%" height="180%"><feDropShadow dx="0" dy="2" stdDeviation="4" flood-color="#000" flood-opacity="0.5"/></filter>
</defs>
<rect width="625" height="166" fill="url(#bg)"/>
<g><circle cx="100.5" cy="124.8" r="0.7" fill="#cfe0ff" opacity="0.36"/><circle cx="239.6" cy="19.7" r="1.0" fill="#cfe0ff" opacity="0.27"/><circle cx="443.9" cy="37.8" r="0.7" fill="#cfe0ff" opacity="0.19"/><circle cx="294.1" cy="152.0" r="1.0" fill="#cfe0ff" opacity="0.44"/><circle cx="620.4" cy="45.3" r="1.0" fill="#cfe0ff" opacity="0.43"/><circle cx="61.6" cy="48.8" r="0.7" fill="#cfe0ff" opacity="0.45"/><circle cx="282.7" cy="68.6" r="1.0" fill="#cfe0ff" opacity="0.34"/><circle cx="572.7" cy="66.8" r="0.5" fill="#cfe0ff" opacity="0.37"/><circle cx="318.9" cy="44.2" r="0.5" fill="#cfe0ff" opacity="0.56"/><circle cx="256.6" cy="94.4" r="1.0" fill="#cfe0ff" opacity="0.41"/><circle cx="416.2" cy="80.3" r="1.0" fill="#cfe0ff" opacity="0.36"/><circle cx="543.2" cy="1.7" r="0.5" fill="#cfe0ff" opacity="0.18"/><circle cx="461.9" cy="45.3" r="0.5" fill="#cfe0ff" opacity="0.27"/><circle cx="216.8" cy="69.8" r="1.0" fill="#cfe0ff" opacity="0.24"/><circle cx="110.2" cy="124.8" r="1.0" fill="#cfe0ff" opacity="0.25"/><circle cx="162.7" cy="156.9" r="1.0" fill="#cfe0ff" opacity="0.22"/><circle cx="256.4" cy="41.8" r="0.7" fill="#cfe0ff" opacity="0.54"/><circle cx="289.5" cy="36.2" r="0.7" fill="#cfe0ff" opacity="0.54"/><circle cx="416.4" cy="155.7" r="0.7" fill="#cfe0ff" opacity="0.51"/><circle cx="83.9" cy="138.5" r="1.0" fill="#cfe0ff" opacity="0.19"/><circle cx="245.5" cy="30.4" r="1.0" fill="#cfe0ff" opacity="0.58"/><circle cx="152.6" cy="133.1" r="0.7" fill="#cfe0ff" opacity="0.29"/><circle cx="516.7" cy="106.5" r="0.7" fill="#cfe0ff" opacity="0.21"/><circle cx="605.8" cy="86.4" r="0.5" fill="#cfe0ff" opacity="0.31"/><circle cx="231.6" cy="46.0" r="0.7" fill="#cfe0ff" opacity="0.27"/><circle cx="287.4" cy="22.4" r="0.7" fill="#cfe0ff" opacity="0.37"/><circle cx="537.6" cy="1.8" r="0.7" fill="#cfe0ff" opacity="0.47"/><circle cx="546.1" cy="48.4" r="1.0" fill="#cfe0ff" opacity="0.17"/><circle cx="594.2" cy="71.9" r="0.5" fill="#cfe0ff" opacity="0.51"/><circle cx="541.9" cy="102.2" r="0.7" fill="#cfe0ff" opacity="0.58"/><circle cx="85.1" cy="91.4" r="0.5" fill="#cfe0ff" opacity="0.42"/><circle cx="366.1" cy="117.9" r="0.5" fill="#cfe0ff" opacity="0.31"/><circle cx="469.0" cy="136.7" r="0.7" fill="#cfe0ff" opacity="0.25"/><circle cx="613.9" cy="103.1" r="0.5" fill="#cfe0ff" opacity="0.27"/><circle cx="205.6" cy="57.8" r="0.5" fill="#cfe0ff" opacity="0.34"/><circle cx="236.0" cy="6.8" r="1.0" fill="#cfe0ff" opacity="0.40"/><circle cx="462.5" cy="23.7" r="0.7" fill="#cfe0ff" opacity="0.56"/><circle cx="386.6" cy="27.2" r="0.5" fill="#cfe0ff" opacity="0.39"/><circle cx="392.3" cy="24.4" r="1.0" fill="#cfe0ff" opacity="0.44"/><circle cx="420.0" cy="107.0" r="0.7" fill="#cfe0ff" opacity="0.31"/><circle cx="190.6" cy="96.8" r="0.5" fill="#cfe0ff" opacity="0.49"/><circle cx="224.0" cy="17.1" r="1.0" fill="#cfe0ff" opacity="0.50"/><circle cx="389.9" cy="53.5" r="1.0" fill="#cfe0ff" opacity="0.35"/><circle cx="71.0" cy="51.3" r="0.5" fill="#cfe0ff" opacity="0.56"/><circle cx="474.2" cy="2.6" r="1.0" fill="#cfe0ff" opacity="0.22"/><circle cx="217.0" cy="80.7" r="0.7" fill="#cfe0ff" opacity="0.43"/><circle cx="201.2" cy="62.5" r="1.0" fill="#cfe0ff" opacity="0.58"/><circle cx="298.1" cy="51.6" r="0.7" fill="#cfe0ff" opacity="0.59"/><circle cx="315.5" cy="69.3" r="0.7" fill="#cfe0ff" opacity="0.35"/><circle cx="337.7" cy="142.9" r="1.0" fill="#cfe0ff" opacity="0.33"/><circle cx="255.1" cy="29.0" r="0.7" fill="#cfe0ff" opacity="0.51"/><circle cx="576.9" cy="156.1" r="0.5" fill="#cfe0ff" opacity="0.18"/></g>
<rect x="3" y="3" width="619" height="160" rx="12" fill="none" stroke="#26345c" stroke-width="1.2" opacity="0.7"/>
<path d="M224.0,96.0 Q312.5,72.0 390.4,93.1" fill="none" stroke="#ff5d5d" stroke-width="7" opacity="0.12" stroke-linecap="round"/>
<path d="M224.0,96.0 Q312.5,72.0 390.4,93.1" fill="none" stroke="#ff5d5d" stroke-width="2.6" stroke-linecap="round"/>
<path d="M401.0,96.0 L388.3,97.0 L393.4,93.9 L390.5,88.8 Z" fill="#ff5d5d"/>
<rect x="30.0" y="56.0" width="190" height="80" rx="11" fill="url(#cg)" stroke="#7fa8ff" stroke-width="1.8" filter="url(#sf)"/>
<rect x="30.0" y="56.0" width="6" height="80" rx="3" fill="#7fa8ff"/>
<g><rect x="48.0" y="83.0" width="28" height="19" rx="2.5" fill="none" stroke="#7fa8ff" stroke-width="2"/><line x1="57.0" y1="102.0" x2="54.0" y2="106.0" stroke="#7fa8ff" stroke-width="2"/><line x1="67.0" y1="102.0" x2="70.0" y2="106.0" stroke="#7fa8ff" stroke-width="2"/><line x1="52.0" y1="106.0" x2="72.0" y2="106.0" stroke="#7fa8ff" stroke-width="2"/></g>
<text x="92.0" y="93.0" font-size="16" fill="#e8eefc" font-weight="bold">Donnager</text>
<text x="92.0" y="112.0" font-size="12" fill="#8fa3c8">Windows VM</text>
<rect x="405.0" y="56.0" width="190" height="80" rx="11" fill="url(#cg)" stroke="#f3a83a" stroke-width="1.8" filter="url(#sf)"/>
<rect x="405.0" y="56.0" width="6" height="80" rx="3" fill="#f3a83a"/>
<g><rect x="424.0" y="82.0" width="26" height="24" rx="3" fill="none" stroke="#f3a83a" stroke-width="2"/><line x1="424.0" y1="88.0" x2="450.0" y2="88.0" stroke="#f3a83a" stroke-width="1.1" opacity="0.7"/><line x1="424.0" y1="94.0" x2="450.0" y2="94.0" stroke="#f3a83a" stroke-width="1.1" opacity="0.7"/><line x1="424.0" y1="100.0" x2="450.0" y2="100.0" stroke="#f3a83a" stroke-width="1.1" opacity="0.7"/></g>
<text x="467.0" y="93.0" font-size="16" fill="#e8eefc" font-weight="bold">labpallas</text>
<text x="467.0" y="112.0" font-size="12" fill="#8fa3c8">Storage account</text>
<rect x="223.0" y="73.0" width="179" height="19" rx="9.5" fill="#05070f" stroke="#ff5d5d" stroke-width="1" opacity="0.97"/>
<text x="312.5" y="87.0" font-size="11.5" fill="#ff5d5d" text-anchor="middle">key disclosure (listKeys)</text>
</svg>