<svg xmlns="http://www.w3.org/2000/svg" width="1449" height="166" viewBox="0 0 1449 166" font-family="monospace">
<defs>
<radialGradient id="bg" cx="50%" cy="38%" r="90%"><stop offset="0%" stop-color="#0b1330"/><stop offset="100%" stop-color="#05070f"/></radialGradient>
<linearGradient id="cg" x1="0" y1="0" x2="0" y2="1"><stop offset="0%" stop-color="#13203f"/><stop offset="100%" stop-color="#0e1730"/></linearGradient>
<filter id="sf" x="-40%" y="-40%" width="180%" height="180%"><feDropShadow dx="0" dy="2" stdDeviation="4" flood-color="#000" flood-opacity="0.5"/></filter>
</defs>
<rect width="1449" height="166" fill="url(#bg)"/>
<g><circle cx="1089.9" cy="113.3" r="0.5" fill="#cfe0ff" opacity="0.36"/><circle cx="950.4" cy="82.8" r="0.5" fill="#cfe0ff" opacity="0.17"/><circle cx="285.2" cy="123.2" r="0.7" fill="#cfe0ff" opacity="0.26"/><circle cx="1221.2" cy="119.1" r="1.0" fill="#cfe0ff" opacity="0.58"/><circle cx="163.1" cy="87.2" r="0.7" fill="#cfe0ff" opacity="0.52"/><circle cx="170.6" cy="12.1" r="1.0" fill="#cfe0ff" opacity="0.48"/><circle cx="629.1" cy="73.7" r="0.5" fill="#cfe0ff" opacity="0.60"/><circle cx="503.1" cy="92.1" r="0.7" fill="#cfe0ff" opacity="0.32"/><circle cx="540.4" cy="11.7" r="0.7" fill="#cfe0ff" opacity="0.54"/><circle cx="732.5" cy="135.5" r="0.5" fill="#cfe0ff" opacity="0.54"/><circle cx="443.4" cy="34.2" r="1.0" fill="#cfe0ff" opacity="0.45"/><circle cx="390.1" cy="19.4" r="0.7" fill="#cfe0ff" opacity="0.54"/><circle cx="419.9" cy="41.9" r="1.0" fill="#cfe0ff" opacity="0.27"/><circle cx="305.3" cy="109.8" r="1.0" fill="#cfe0ff" opacity="0.35"/><circle cx="1318.5" cy="111.5" r="0.5" fill="#cfe0ff" opacity="0.47"/><circle cx="63.7" cy="35.7" r="0.5" fill="#cfe0ff" opacity="0.32"/><circle cx="1357.9" cy="35.2" r="0.7" fill="#cfe0ff" opacity="0.58"/><circle cx="805.4" cy="75.4" r="0.5" fill="#cfe0ff" opacity="0.24"/><circle cx="915.2" cy="21.5" r="1.0" fill="#cfe0ff" opacity="0.53"/><circle cx="337.5" cy="57.2" r="0.7" fill="#cfe0ff" opacity="0.45"/><circle cx="333.3" cy="62.0" r="1.0" fill="#cfe0ff" opacity="0.36"/><circle cx="1053.6" cy="33.9" r="0.7" fill="#cfe0ff" opacity="0.36"/><circle cx="619.6" cy="31.8" r="1.0" fill="#cfe0ff" opacity="0.38"/><circle cx="565.8" cy="145.0" r="0.7" fill="#cfe0ff" opacity="0.42"/><circle cx="1209.2" cy="132.2" r="1.0" fill="#cfe0ff" opacity="0.18"/><circle cx="1266.0" cy="67.6" r="0.7" fill="#cfe0ff" opacity="0.43"/><circle cx="201.9" cy="34.7" r="0.7" fill="#cfe0ff" opacity="0.33"/><circle cx="299.1" cy="41.8" r="0.5" fill="#cfe0ff" opacity="0.55"/><circle cx="1115.6" cy="4.0" r="0.7" fill="#cfe0ff" opacity="0.49"/><circle cx="1344.6" cy="93.9" r="1.0" fill="#cfe0ff" opacity="0.53"/><circle cx="871.6" cy="130.2" r="0.5" fill="#cfe0ff" opacity="0.34"/><circle cx="1374.5" cy="67.3" r="0.5" fill="#cfe0ff" opacity="0.57"/><circle cx="147.6" cy="33.5" r="0.7" fill="#cfe0ff" opacity="0.40"/><circle cx="142.1" cy="156.8" r="1.0" fill="#cfe0ff" opacity="0.57"/><circle cx="213.7" cy="40.9" r="1.0" fill="#cfe0ff" opacity="0.35"/><circle cx="174.5" cy="21.2" r="1.0" fill="#cfe0ff" opacity="0.40"/><circle cx="808.9" cy="36.5" r="1.0" fill="#cfe0ff" opacity="0.32"/><circle cx="175.0" cy="124.0" r="0.5" fill="#cfe0ff" opacity="0.33"/><circle cx="69.7" cy="27.1" r="1.0" fill="#cfe0ff" opacity="0.34"/><circle cx="363.9" cy="73.2" r="1.0" fill="#cfe0ff" opacity="0.29"/><circle cx="212.5" cy="80.3" r="1.0" fill="#cfe0ff" opacity="0.39"/><circle cx="172.3" cy="100.5" r="0.7" fill="#cfe0ff" opacity="0.45"/><circle cx="1393.4" cy="9.0" r="1.0" fill="#cfe0ff" opacity="0.56"/><circle cx="886.7" cy="89.0" r="1.0" fill="#cfe0ff" opacity="0.35"/><circle cx="684.9" cy="99.1" r="0.7" fill="#cfe0ff" opacity="0.58"/><circle cx="1329.1" cy="120.2" r="1.0" fill="#cfe0ff" opacity="0.35"/><circle cx="809.3" cy="64.6" r="1.0" fill="#cfe0ff" opacity="0.53"/><circle cx="826.6" cy="146.3" r="0.7" fill="#cfe0ff" opacity="0.22"/><circle cx="1384.3" cy="141.5" r="1.0" fill="#cfe0ff" opacity="0.44"/><circle cx="1148.2" cy="44.7" r="0.7" fill="#cfe0ff" opacity="0.40"/><circle cx="676.9" cy="102.5" r="0.7" fill="#cfe0ff" opacity="0.43"/><circle cx="1297.7" cy="39.3" r="0.7" fill="#cfe0ff" opacity="0.21"/><circle cx="1.8" cy="30.9" r="0.5" fill="#cfe0ff" opacity="0.48"/><circle cx="1066.2" cy="97.0" r="1.0" fill="#cfe0ff" opacity="0.30"/><circle cx="518.7" cy="79.0" r="0.7" fill="#cfe0ff" opacity="0.17"/><circle cx="70.3" cy="32.0" r="1.0" fill="#cfe0ff" opacity="0.60"/><circle cx="1243.8" cy="99.0" r="0.5" fill="#cfe0ff" opacity="0.51"/><circle cx="787.2" cy="120.7" r="0.7" fill="#cfe0ff" opacity="0.57"/><circle cx="900.6" cy="52.9" r="1.0" fill="#cfe0ff" opacity="0.18"/><circle cx="349.7" cy="64.2" r="1.0" fill="#cfe0ff" opacity="0.59"/><circle cx="109.7" cy="84.7" r="0.7" fill="#cfe0ff" opacity="0.30"/><circle cx="1139.9" cy="95.1" r="0.7" fill="#cfe0ff" opacity="0.34"/><circle cx="195.9" cy="66.6" r="0.7" fill="#cfe0ff" opacity="0.27"/><circle cx="530.4" cy="87.2" r="0.7" fill="#cfe0ff" opacity="0.36"/><circle cx="819.6" cy="147.5" r="1.0" fill="#cfe0ff" opacity="0.27"/><circle cx="564.1" cy="164.3" r="1.0" fill="#cfe0ff" opacity="0.49"/><circle cx="699.2" cy="138.7" r="0.5" fill="#cfe0ff" opacity="0.37"/><circle cx="961.2" cy="109.9" r="0.5" fill="#cfe0ff" opacity="0.37"/><circle cx="867.5" cy="164.9" r="1.0" fill="#cfe0ff" opacity="0.50"/><circle cx="274.5" cy="119.4" r="0.7" fill="#cfe0ff" opacity="0.48"/><circle cx="970.1" cy="149.3" r="1.0" fill="#cfe0ff" opacity="0.18"/><circle cx="1014.0" cy="38.3" r="0.7" fill="#cfe0ff" opacity="0.49"/><circle cx="1430.0" cy="61.8" r="0.5" fill="#cfe0ff" opacity="0.36"/><circle cx="743.9" cy="78.4" r="1.0" fill="#cfe0ff" opacity="0.29"/><circle cx="630.8" cy="99.1" r="0.7" fill="#cfe0ff" opacity="0.50"/><circle cx="83.9" cy="36.9" r="0.5" fill="#cfe0ff" opacity="0.48"/><circle cx="743.8" cy="27.7" r="0.7" fill="#cfe0ff" opacity="0.47"/><circle cx="391.7" cy="32.5" r="0.7" fill="#cfe0ff" opacity="0.60"/><circle cx="1397.1" cy="10.0" r="0.5" fill="#cfe0ff" opacity="0.34"/><circle cx="40.1" cy="139.0" r="0.7" fill="#cfe0ff" opacity="0.24"/><circle cx="283.8" cy="81.9" r="0.5" fill="#cfe0ff" opacity="0.27"/><circle cx="310.8" cy="156.1" r="0.7" fill="#cfe0ff" opacity="0.58"/><circle cx="501.7" cy="6.1" r="0.5" fill="#cfe0ff" opacity="0.33"/><circle cx="685.4" cy="91.0" r="1.0" fill="#cfe0ff" opacity="0.35"/><circle cx="21.5" cy="144.1" r="0.7" fill="#cfe0ff" opacity="0.25"/><circle cx="73.6" cy="95.8" r="1.0" fill="#cfe0ff" opacity="0.53"/><circle cx="170.7" cy="132.2" r="1.0" fill="#cfe0ff" opacity="0.34"/><circle cx="110.9" cy="69.8" r="0.5" fill="#cfe0ff" opacity="0.47"/><circle cx="612.0" cy="112.5" r="1.0" fill="#cfe0ff" opacity="0.53"/><circle cx="258.7" cy="84.0" r="1.0" fill="#cfe0ff" opacity="0.19"/><circle cx="534.0" cy="108.7" r="0.7" fill="#cfe0ff" opacity="0.50"/><circle cx="519.5" cy="40.0" r="0.7" fill="#cfe0ff" opacity="0.43"/><circle cx="1222.2" cy="4.8" r="1.0" fill="#cfe0ff" opacity="0.20"/><circle cx="89.1" cy="103.7" r="1.0" fill="#cfe0ff" opacity="0.60"/><circle cx="52.0" cy="115.1" r="0.5" fill="#cfe0ff" opacity="0.43"/><circle cx="643.2" cy="153.8" r="0.7" fill="#cfe0ff" opacity="0.24"/><circle cx="1387.2" cy="50.4" r="1.0" fill="#cfe0ff" opacity="0.53"/><circle cx="1198.9" cy="145.6" r="0.5" fill="#cfe0ff" opacity="0.27"/><circle cx="685.2" cy="45.4" r="0.7" fill="#cfe0ff" opacity="0.54"/><circle cx="782.0" cy="155.2" r="1.0" fill="#cfe0ff" opacity="0.58"/><circle cx="705.4" cy="160.9" r="1.0" fill="#cfe0ff" opacity="0.52"/><circle cx="183.2" cy="41.6" r="0.5" fill="#cfe0ff" opacity="0.54"/><circle cx="1221.7" cy="56.0" r="1.0" fill="#cfe0ff" opacity="0.59"/><circle cx="9.0" cy="45.9" r="0.5" fill="#cfe0ff" opacity="0.40"/><circle cx="22.1" cy="69.2" r="0.5" fill="#cfe0ff" opacity="0.17"/><circle cx="334.0" cy="143.8" r="0.5" fill="#cfe0ff" opacity="0.19"/><circle cx="375.6" cy="156.1" r="0.5" fill="#cfe0ff" opacity="0.53"/><circle cx="397.6" cy="135.8" r="0.7" fill="#cfe0ff" opacity="0.37"/><circle cx="610.3" cy="44.4" r="1.0" fill="#cfe0ff" opacity="0.26"/><circle cx="19.1" cy="55.2" r="1.0" fill="#cfe0ff" opacity="0.27"/><circle cx="414.6" cy="151.3" r="0.7" fill="#cfe0ff" opacity="0.51"/><circle cx="1023.5" cy="55.3" r="0.5" fill="#cfe0ff" opacity="0.28"/><circle cx="1346.4" cy="93.3" r="0.7" fill="#cfe0ff" opacity="0.31"/><circle cx="23.7" cy="71.9" r="0.7" fill="#cfe0ff" opacity="0.16"/><circle cx="1172.6" cy="34.2" r="0.7" fill="#cfe0ff" opacity="0.16"/><circle cx="872.4" cy="128.5" r="0.7" fill="#cfe0ff" opacity="0.23"/><circle cx="702.1" cy="86.7" r="0.5" fill="#cfe0ff" opacity="0.33"/><circle cx="964.2" cy="83.3" r="1.0" fill="#cfe0ff" opacity="0.42"/><circle cx="1196.2" cy="48.0" r="0.5" fill="#cfe0ff" opacity="0.34"/><circle cx="1129.9" cy="134.4" r="0.5" fill="#cfe0ff" opacity="0.19"/></g>
<rect x="3" y="3" width="1443" height="160" rx="12" fill="none" stroke="#26345c" stroke-width="1.2" opacity="0.7"/>
<path d="M275.2,96.0 Q363.7,72.0 441.6,93.1" fill="none" stroke="#37d6e6" stroke-width="7" opacity="0.12" stroke-linecap="round"/>
<path d="M275.2,96.0 Q363.7,72.0 441.6,93.1" fill="none" stroke="#37d6e6" stroke-width="2.6" stroke-linecap="round"/>
<path d="M452.2,96.0 L439.5,97.0 L444.6,93.9 L441.7,88.8 Z" fill="#37d6e6"/>
<path d="M650.2,96.0 Q738.7,72.0 816.6,93.1" fill="none" stroke="#37d6e6" stroke-width="7" opacity="0.12" stroke-linecap="round"/>
<path d="M650.2,96.0 Q738.7,72.0 816.6,93.1" fill="none" stroke="#37d6e6" stroke-width="2.6" stroke-linecap="round"/>
<path d="M827.2,96.0 L814.5,97.0 L819.6,93.9 L816.7,88.8 Z" fill="#37d6e6"/>
<path d="M1038.0,96.0 Q1126.5,72.0 1204.4,93.1" fill="none" stroke="#37d6e6" stroke-width="7" opacity="0.12" stroke-linecap="round"/>
<path d="M1038.0,96.0 Q1126.5,72.0 1204.4,93.1" fill="none" stroke="#37d6e6" stroke-width="2.6" stroke-linecap="round"/>
<path d="M1215.0,96.0 L1202.3,97.0 L1207.4,93.9 L1204.5,88.8 Z" fill="#37d6e6"/>
<rect x="30.0" y="56.0" width="241" height="80" rx="11" fill="url(#cg)" stroke="#b9a7ff" stroke-width="1.8" filter="url(#sf)"/>
<rect x="30.0" y="56.0" width="6" height="80" rx="3" fill="#b9a7ff"/>
<g><circle cx="62.0" cy="88.0" r="5.5" fill="none" stroke="#b9a7ff" stroke-width="2"/><path d="M52.0,106.0 a10,10 0 0 1 20,0" fill="none" stroke="#b9a7ff" stroke-width="2"/></g>
<text x="92.0" y="93.0" font-size="16" fill="#e8eefc" font-weight="bold">tycho-db-exporter</text>
<text x="92.0" y="112.0" font-size="12" fill="#8fa3c8">Service Principal</text>
<rect x="456.2" y="56.0" width="190" height="80" rx="11" fill="url(#cg)" stroke="#69f0b0" stroke-width="1.8" filter="url(#sf)"/>
<rect x="456.2" y="56.0" width="6" height="80" rx="3" fill="#69f0b0"/>
<g><circle cx="485.20000000000005" cy="90.0" r="7.5" fill="none" stroke="#69f0b0" stroke-width="2.2"/><path d="M489.20000000000005,94.0 L498.20000000000005,103.0 M494.20000000000005,99.0 L498.20000000000005,95.0 M498.20000000000005,103.0 L495.20000000000005,106.0" stroke="#69f0b0" stroke-width="2.2" fill="none"/></g>
<text x="518.2" y="93.0" font-size="16" fill="#e8eefc" font-weight="bold">Ganymede</text>
<text x="518.2" y="112.0" font-size="12" fill="#8fa3c8">Key Vault</text>
<rect x="831.2" y="56.0" width="203" height="80" rx="11" fill="url(#cg)" stroke="#b9a7ff" stroke-width="1.8" filter="url(#sf)"/>
<rect x="831.2" y="56.0" width="6" height="80" rx="3" fill="#b9a7ff"/>
<g><circle cx="863.2" cy="88.0" r="5.5" fill="none" stroke="#b9a7ff" stroke-width="2"/><path d="M853.2,106.0 a10,10 0 0 1 20,0" fill="none" stroke="#b9a7ff" stroke-width="2"/></g>
<text x="893.2" y="93.0" font-size="16" fill="#e8eefc" font-weight="bold">Protomolecule</text>
<text x="893.2" y="112.0" font-size="12" fill="#8fa3c8">Service Principal</text>
<rect x="1219.0" y="56.0" width="200" height="80" rx="11" fill="url(#cg)" stroke="#ffd34d" stroke-width="1.8" filter="url(#sf)"/>
<rect x="1219.0" y="56.0" width="6" height="80" rx="3" fill="#ffd34d"/>
<g><path d="M1236.0,103.0 L1236.0,90.0 L1244.0,97.0 L1251.0,84.0 L1258.0,97.0 L1266.0,90.0 L1266.0,103.0 Z" fill="none" stroke="#ffd34d" stroke-width="2.2" stroke-linejoin="round"/><line x1="1236.0" y1="106.0" x2="1266.0" y2="106.0" stroke="#ffd34d" stroke-width="2.2"/></g>
<text x="1281.0" y="93.0" font-size="16" fill="#e8eefc" font-weight="bold">CROWN JEWELS</text>
<text x="1281.0" y="112.0" font-size="12" fill="#8fa3c8">Contributor on RG</text>
<rect x="310.5" y="73.0" width="106" height="19" rx="9.5" fill="#05070f" stroke="#37d6e6" stroke-width="1" opacity="0.97"/>
<text x="363.7" y="87.0" font-size="11.5" fill="#37d6e6" text-anchor="middle">excessive RBAC</text>
<rect x="682.2" y="73.0" width="113" height="19" rx="9.5" fill="#05070f" stroke="#37d6e6" stroke-width="1" opacity="0.97"/>
<text x="738.7" y="87.0" font-size="11.5" fill="#37d6e6" text-anchor="middle">credential leak</text>
<rect x="1083.2" y="73.0" width="87" height="19" rx="9.5" fill="#05070f" stroke="#37d6e6" stroke-width="1" opacity="0.97"/>
<text x="1126.5" y="87.0" font-size="11.5" fill="#37d6e6" text-anchor="middle">Contributor</text>
</svg>