<svg xmlns="http://www.w3.org/2000/svg" width="1449" height="166" viewBox="0 0 1449 166" font-family="monospace">
<defs>
<radialGradient id="bg" cx="50%" cy="38%" r="90%"><stop offset="0%" stop-color="#0b1330"/><stop offset="100%" stop-color="#05070f"/></radialGradient>
<linearGradient id="cg" x1="0" y1="0" x2="0" y2="1"><stop offset="0%" stop-color="#13203f"/><stop offset="100%" stop-color="#0e1730"/></linearGradient>
<filter id="sf" x="-40%" y="-40%" width="180%" height="180%"><feDropShadow dx="0" dy="2" stdDeviation="4" flood-color="#000" flood-opacity="0.5"/></filter>
</defs>
<rect width="1449" height="166" fill="url(#bg)"/>
<g><circle cx="1020.9" cy="18.9" r="0.5" fill="#cfe0ff" opacity="0.36"/><circle cx="44.1" cy="89.9" r="1.0" fill="#cfe0ff" opacity="0.28"/><circle cx="917.9" cy="65.8" r="0.5" fill="#cfe0ff" opacity="0.23"/><circle cx="236.0" cy="32.3" r="0.7" fill="#cfe0ff" opacity="0.19"/><circle cx="446.5" cy="90.2" r="0.5" fill="#cfe0ff" opacity="0.21"/><circle cx="888.6" cy="12.7" r="0.7" fill="#cfe0ff" opacity="0.25"/><circle cx="698.2" cy="110.5" r="0.7" fill="#cfe0ff" opacity="0.27"/><circle cx="269.3" cy="61.2" r="0.5" fill="#cfe0ff" opacity="0.23"/><circle cx="577.8" cy="3.6" r="1.0" fill="#cfe0ff" opacity="0.43"/><circle cx="1010.6" cy="27.4" r="0.7" fill="#cfe0ff" opacity="0.43"/><circle cx="783.5" cy="93.6" r="1.0" fill="#cfe0ff" opacity="0.56"/><circle cx="445.6" cy="48.4" r="0.5" fill="#cfe0ff" opacity="0.31"/><circle cx="1034.8" cy="81.6" r="0.7" fill="#cfe0ff" opacity="0.28"/><circle cx="1448.1" cy="18.2" r="1.0" fill="#cfe0ff" opacity="0.47"/><circle cx="428.3" cy="56.3" r="0.7" fill="#cfe0ff" opacity="0.17"/><circle cx="444.9" cy="164.3" r="1.0" fill="#cfe0ff" opacity="0.25"/><circle cx="330.5" cy="41.3" r="0.5" fill="#cfe0ff" opacity="0.28"/><circle cx="860.7" cy="68.3" r="0.5" fill="#cfe0ff" opacity="0.19"/><circle cx="624.5" cy="24.9" r="1.0" fill="#cfe0ff" opacity="0.36"/><circle cx="1218.5" cy="119.7" r="0.5" fill="#cfe0ff" opacity="0.19"/><circle cx="1006.1" cy="1.0" r="1.0" fill="#cfe0ff" opacity="0.19"/><circle cx="967.5" cy="10.5" r="0.5" fill="#cfe0ff" opacity="0.32"/><circle cx="668.4" cy="6.7" r="0.7" fill="#cfe0ff" opacity="0.21"/><circle cx="1265.3" cy="9.1" r="0.5" fill="#cfe0ff" opacity="0.15"/><circle cx="1209.0" cy="163.2" r="0.5" fill="#cfe0ff" opacity="0.40"/><circle cx="905.0" cy="132.1" r="0.5" fill="#cfe0ff" opacity="0.38"/><circle cx="1110.2" cy="96.1" r="1.0" fill="#cfe0ff" opacity="0.21"/><circle cx="1440.3" cy="83.3" r="0.5" fill="#cfe0ff" opacity="0.32"/><circle cx="234.9" cy="129.1" r="1.0" fill="#cfe0ff" opacity="0.26"/><circle cx="715.5" cy="70.2" r="1.0" fill="#cfe0ff" opacity="0.53"/><circle cx="888.0" cy="12.0" r="1.0" fill="#cfe0ff" opacity="0.19"/><circle cx="1197.0" cy="21.4" r="1.0" fill="#cfe0ff" opacity="0.60"/><circle cx="643.6" cy="54.9" r="1.0" fill="#cfe0ff" opacity="0.35"/><circle cx="228.5" cy="2.0" r="0.7" fill="#cfe0ff" opacity="0.39"/><circle cx="994.9" cy="161.4" r="0.7" fill="#cfe0ff" opacity="0.54"/><circle cx="31.8" cy="111.0" r="0.5" fill="#cfe0ff" opacity="0.30"/><circle cx="1300.0" cy="85.0" r="0.5" fill="#cfe0ff" opacity="0.52"/><circle cx="1376.2" cy="30.9" r="0.5" fill="#cfe0ff" opacity="0.35"/><circle cx="127.9" cy="34.1" r="0.7" fill="#cfe0ff" opacity="0.34"/><circle cx="176.4" cy="116.9" r="0.7" fill="#cfe0ff" opacity="0.54"/><circle cx="1241.5" cy="141.9" r="0.5" fill="#cfe0ff" opacity="0.20"/><circle cx="1006.4" cy="140.8" r="0.7" fill="#cfe0ff" opacity="0.46"/><circle cx="436.1" cy="161.2" r="0.7" fill="#cfe0ff" opacity="0.19"/><circle cx="536.9" cy="90.3" r="0.7" fill="#cfe0ff" opacity="0.47"/><circle cx="1384.3" cy="50.2" r="1.0" fill="#cfe0ff" opacity="0.44"/><circle cx="693.2" cy="58.0" r="0.7" fill="#cfe0ff" opacity="0.31"/><circle cx="582.8" cy="19.6" r="0.7" fill="#cfe0ff" opacity="0.54"/><circle cx="1412.7" cy="121.9" r="0.5" fill="#cfe0ff" opacity="0.44"/><circle cx="653.5" cy="5.6" r="1.0" fill="#cfe0ff" opacity="0.24"/><circle cx="956.1" cy="44.9" r="0.5" fill="#cfe0ff" opacity="0.50"/><circle cx="637.9" cy="88.7" r="0.7" fill="#cfe0ff" opacity="0.42"/><circle cx="13.8" cy="148.9" r="0.7" fill="#cfe0ff" opacity="0.51"/><circle cx="483.9" cy="27.1" r="1.0" fill="#cfe0ff" opacity="0.15"/><circle cx="1340.8" cy="98.6" r="0.5" fill="#cfe0ff" opacity="0.44"/><circle cx="938.0" cy="119.6" r="0.5" fill="#cfe0ff" opacity="0.37"/><circle cx="1078.9" cy="150.6" r="1.0" fill="#cfe0ff" opacity="0.48"/><circle cx="1308.1" cy="42.8" r="1.0" fill="#cfe0ff" opacity="0.43"/><circle cx="1415.6" cy="157.3" r="1.0" fill="#cfe0ff" opacity="0.43"/><circle cx="1122.8" cy="34.4" r="0.7" fill="#cfe0ff" opacity="0.56"/><circle cx="10.5" cy="21.8" r="0.5" fill="#cfe0ff" opacity="0.22"/><circle cx="412.4" cy="4.1" r="0.7" fill="#cfe0ff" opacity="0.39"/><circle cx="827.7" cy="37.6" r="0.5" fill="#cfe0ff" opacity="0.24"/><circle cx="1022.5" cy="39.5" r="1.0" fill="#cfe0ff" opacity="0.55"/><circle cx="1417.5" cy="81.3" r="0.7" fill="#cfe0ff" opacity="0.58"/><circle cx="819.7" cy="63.7" r="1.0" fill="#cfe0ff" opacity="0.58"/><circle cx="1356.6" cy="125.7" r="0.7" fill="#cfe0ff" opacity="0.42"/><circle cx="15.2" cy="149.6" r="1.0" fill="#cfe0ff" opacity="0.23"/><circle cx="735.4" cy="36.2" r="0.7" fill="#cfe0ff" opacity="0.19"/><circle cx="234.9" cy="155.7" r="0.7" fill="#cfe0ff" opacity="0.53"/><circle cx="755.5" cy="161.3" r="0.7" fill="#cfe0ff" opacity="0.56"/><circle cx="304.6" cy="144.4" r="0.7" fill="#cfe0ff" opacity="0.45"/><circle cx="174.7" cy="129.7" r="0.7" fill="#cfe0ff" opacity="0.21"/><circle cx="1406.5" cy="113.8" r="1.0" fill="#cfe0ff" opacity="0.47"/><circle cx="276.0" cy="120.8" r="0.5" fill="#cfe0ff" opacity="0.26"/><circle cx="560.1" cy="6.5" r="0.7" fill="#cfe0ff" opacity="0.17"/><circle cx="509.9" cy="60.7" r="0.5" fill="#cfe0ff" opacity="0.23"/><circle cx="1409.0" cy="90.1" r="1.0" fill="#cfe0ff" opacity="0.56"/><circle cx="378.9" cy="56.6" r="0.5" fill="#cfe0ff" opacity="0.56"/><circle cx="878.1" cy="99.6" r="1.0" fill="#cfe0ff" opacity="0.30"/><circle cx="245.2" cy="153.8" r="0.5" fill="#cfe0ff" opacity="0.36"/><circle cx="478.3" cy="11.6" r="1.0" fill="#cfe0ff" opacity="0.32"/><circle cx="1078.4" cy="92.9" r="1.0" fill="#cfe0ff" opacity="0.49"/><circle cx="485.8" cy="65.7" r="0.7" fill="#cfe0ff" opacity="0.40"/><circle cx="672.1" cy="143.9" r="0.5" fill="#cfe0ff" opacity="0.29"/><circle cx="845.2" cy="152.7" r="0.5" fill="#cfe0ff" opacity="0.42"/><circle cx="1310.8" cy="130.4" r="0.7" fill="#cfe0ff" opacity="0.54"/><circle cx="522.3" cy="90.6" r="0.7" fill="#cfe0ff" opacity="0.39"/><circle cx="617.4" cy="110.2" r="0.5" fill="#cfe0ff" opacity="0.32"/><circle cx="1380.4" cy="7.7" r="0.7" fill="#cfe0ff" opacity="0.40"/><circle cx="546.6" cy="158.2" r="0.5" fill="#cfe0ff" opacity="0.46"/><circle cx="1291.9" cy="51.2" r="1.0" fill="#cfe0ff" opacity="0.47"/><circle cx="974.3" cy="79.4" r="0.7" fill="#cfe0ff" opacity="0.16"/><circle cx="401.7" cy="76.6" r="0.7" fill="#cfe0ff" opacity="0.39"/><circle cx="804.5" cy="115.8" r="1.0" fill="#cfe0ff" opacity="0.57"/><circle cx="178.8" cy="28.2" r="0.5" fill="#cfe0ff" opacity="0.28"/><circle cx="86.3" cy="24.2" r="1.0" fill="#cfe0ff" opacity="0.54"/><circle cx="432.6" cy="47.5" r="1.0" fill="#cfe0ff" opacity="0.50"/><circle cx="1431.6" cy="18.8" r="1.0" fill="#cfe0ff" opacity="0.34"/><circle cx="965.6" cy="71.4" r="0.7" fill="#cfe0ff" opacity="0.51"/><circle cx="769.2" cy="2.4" r="1.0" fill="#cfe0ff" opacity="0.20"/><circle cx="213.3" cy="73.4" r="0.5" fill="#cfe0ff" opacity="0.57"/><circle cx="714.2" cy="149.1" r="1.0" fill="#cfe0ff" opacity="0.32"/><circle cx="472.1" cy="127.6" r="0.5" fill="#cfe0ff" opacity="0.60"/><circle cx="1023.7" cy="136.1" r="1.0" fill="#cfe0ff" opacity="0.25"/><circle cx="1398.8" cy="53.5" r="0.7" fill="#cfe0ff" opacity="0.19"/><circle cx="409.5" cy="155.8" r="1.0" fill="#cfe0ff" opacity="0.58"/><circle cx="378.2" cy="127.7" r="0.5" fill="#cfe0ff" opacity="0.17"/><circle cx="908.5" cy="119.4" r="0.7" fill="#cfe0ff" opacity="0.57"/><circle cx="1116.8" cy="10.3" r="0.5" fill="#cfe0ff" opacity="0.26"/><circle cx="135.8" cy="33.4" r="0.5" fill="#cfe0ff" opacity="0.53"/><circle cx="806.8" cy="5.3" r="1.0" fill="#cfe0ff" opacity="0.42"/><circle cx="1222.6" cy="68.0" r="1.0" fill="#cfe0ff" opacity="0.49"/><circle cx="743.1" cy="110.5" r="0.5" fill="#cfe0ff" opacity="0.37"/><circle cx="732.2" cy="42.5" r="0.5" fill="#cfe0ff" opacity="0.23"/><circle cx="768.9" cy="57.3" r="1.0" fill="#cfe0ff" opacity="0.18"/><circle cx="359.4" cy="99.2" r="0.5" fill="#cfe0ff" opacity="0.35"/><circle cx="666.1" cy="86.0" r="1.0" fill="#cfe0ff" opacity="0.28"/><circle cx="872.1" cy="57.1" r="0.7" fill="#cfe0ff" opacity="0.34"/><circle cx="67.2" cy="51.2" r="0.7" fill="#cfe0ff" opacity="0.22"/><circle cx="279.6" cy="117.4" r="1.0" fill="#cfe0ff" opacity="0.26"/></g>
<rect x="3" y="3" width="1443" height="160" rx="12" fill="none" stroke="#26345c" stroke-width="1.2" opacity="0.7"/>
<path d="M275.2,96.0 Q363.7,72.0 441.6,93.1" fill="none" stroke="#37d6e6" stroke-width="7" opacity="0.12" stroke-linecap="round"/>
<path d="M275.2,96.0 Q363.7,72.0 441.6,93.1" fill="none" stroke="#37d6e6" stroke-width="2.6" stroke-linecap="round"/>
<path d="M452.2,96.0 L439.5,97.0 L444.6,93.9 L441.7,88.8 Z" fill="#37d6e6"/>
<path d="M650.2,96.0 Q738.7,72.0 816.6,93.1" fill="none" stroke="#37d6e6" stroke-width="7" opacity="0.12" stroke-linecap="round"/>
<path d="M650.2,96.0 Q738.7,72.0 816.6,93.1" fill="none" stroke="#37d6e6" stroke-width="2.6" stroke-linecap="round"/>
<path d="M827.2,96.0 L814.5,97.0 L819.6,93.9 L816.7,88.8 Z" fill="#37d6e6"/>
<path d="M1038.0,96.0 Q1126.5,72.0 1204.4,93.1" fill="none" stroke="#37d6e6" stroke-width="7" opacity="0.12" stroke-linecap="round"/>
<path d="M1038.0,96.0 Q1126.5,72.0 1204.4,93.1" fill="none" stroke="#37d6e6" stroke-width="2.6" stroke-linecap="round"/>
<path d="M1215.0,96.0 L1202.3,97.0 L1207.4,93.9 L1204.5,88.8 Z" fill="#37d6e6"/>
<rect x="30.0" y="56.0" width="241" height="80" rx="11" fill="url(#cg)" stroke="#b9a7ff" stroke-width="1.8" filter="url(#sf)"/>
<rect x="30.0" y="56.0" width="6" height="80" rx="3" fill="#b9a7ff"/>
<g><circle cx="62.0" cy="88.0" r="5.5" fill="none" stroke="#b9a7ff" stroke-width="2"/><path d="M52.0,106.0 a10,10 0 0 1 20,0" fill="none" stroke="#b9a7ff" stroke-width="2"/></g>
<text x="92.0" y="93.0" font-size="16" fill="#e8eefc" font-weight="bold">tycho-db-exporter</text>
<text x="92.0" y="112.0" font-size="12" fill="#8fa3c8">Service Principal</text>
<rect x="456.2" y="56.0" width="190" height="80" rx="11" fill="url(#cg)" stroke="#69f0b0" stroke-width="1.8" filter="url(#sf)"/>
<rect x="456.2" y="56.0" width="6" height="80" rx="3" fill="#69f0b0"/>
<g><circle cx="485.20000000000005" cy="90.0" r="7.5" fill="none" stroke="#69f0b0" stroke-width="2.2"/><path d="M489.20000000000005,94.0 L498.20000000000005,103.0 M494.20000000000005,99.0 L498.20000000000005,95.0 M498.20000000000005,103.0 L495.20000000000005,106.0" stroke="#69f0b0" stroke-width="2.2" fill="none"/></g>
<text x="518.2" y="93.0" font-size="16" fill="#e8eefc" font-weight="bold">Ganymede</text>
<text x="518.2" y="112.0" font-size="12" fill="#8fa3c8">Key Vault</text>
<rect x="831.2" y="56.0" width="203" height="80" rx="11" fill="url(#cg)" stroke="#5ad1ff" stroke-width="1.8" filter="url(#sf)"/>
<rect x="831.2" y="56.0" width="6" height="80" rx="3" fill="#5ad1ff"/>
<g><circle cx="863.2" cy="88.0" r="5.5" fill="none" stroke="#5ad1ff" stroke-width="2"/><path d="M853.2,106.0 a10,10 0 0 1 20,0" fill="none" stroke="#5ad1ff" stroke-width="2"/></g>
<text x="893.2" y="93.0" font-size="16" fill="#e8eefc" font-weight="bold">Protomolecule</text>
<text x="893.2" y="112.0" font-size="12" fill="#8fa3c8">Service Principal</text>
<rect x="1219.0" y="56.0" width="200" height="80" rx="11" fill="url(#cg)" stroke="#ffd34d" stroke-width="1.8" filter="url(#sf)"/>
<rect x="1219.0" y="56.0" width="6" height="80" rx="3" fill="#ffd34d"/>
<g><path d="M1236.0,103.0 L1236.0,90.0 L1244.0,97.0 L1251.0,84.0 L1258.0,97.0 L1266.0,90.0 L1266.0,103.0 Z" fill="none" stroke="#ffd34d" stroke-width="2.2" stroke-linejoin="round"/><line x1="1236.0" y1="106.0" x2="1266.0" y2="106.0" stroke="#ffd34d" stroke-width="2.2"/></g>
<text x="1281.0" y="93.0" font-size="16" fill="#e8eefc" font-weight="bold">CROWN JEWELS</text>
<text x="1281.0" y="112.0" font-size="12" fill="#8fa3c8">Contributor on RG</text>
<rect x="310.5" y="73.0" width="106" height="19" rx="9.5" fill="#05070f" stroke="#37d6e6" stroke-width="1" opacity="0.97"/>
<text x="363.7" y="87.0" font-size="11.5" fill="#37d6e6" text-anchor="middle">excessive RBAC</text>
<rect x="682.2" y="73.0" width="113" height="19" rx="9.5" fill="#05070f" stroke="#37d6e6" stroke-width="1" opacity="0.97"/>
<text x="738.7" y="87.0" font-size="11.5" fill="#37d6e6" text-anchor="middle">credential leak</text>
<rect x="1083.2" y="73.0" width="87" height="19" rx="9.5" fill="#05070f" stroke="#37d6e6" stroke-width="1" opacity="0.97"/>
<text x="1126.5" y="87.0" font-size="11.5" fill="#37d6e6" text-anchor="middle">Contributor</text>
</svg>