<svg xmlns="http://www.w3.org/2000/svg" width="625" height="166" viewBox="0 0 625 166" font-family="monospace">
<defs>
<radialGradient id="bg" cx="50%" cy="38%" r="90%"><stop offset="0%" stop-color="#0b1330"/><stop offset="100%" stop-color="#05070f"/></radialGradient>
<linearGradient id="cg" x1="0" y1="0" x2="0" y2="1"><stop offset="0%" stop-color="#13203f"/><stop offset="100%" stop-color="#0e1730"/></linearGradient>
<filter id="sf" x="-40%" y="-40%" width="180%" height="180%"><feDropShadow dx="0" dy="2" stdDeviation="4" flood-color="#000" flood-opacity="0.5"/></filter>
</defs>
<rect width="625" height="166" fill="url(#bg)"/>
<g><circle cx="265.9" cy="60.4" r="0.5" fill="#cfe0ff" opacity="0.25"/><circle cx="71.5" cy="10.0" r="0.5" fill="#cfe0ff" opacity="0.21"/><circle cx="470.0" cy="72.8" r="1.0" fill="#cfe0ff" opacity="0.43"/><circle cx="518.7" cy="146.4" r="0.7" fill="#cfe0ff" opacity="0.43"/><circle cx="67.7" cy="21.5" r="0.7" fill="#cfe0ff" opacity="0.31"/><circle cx="621.5" cy="152.8" r="1.0" fill="#cfe0ff" opacity="0.18"/><circle cx="55.8" cy="165.7" r="1.0" fill="#cfe0ff" opacity="0.56"/><circle cx="570.3" cy="27.8" r="0.7" fill="#cfe0ff" opacity="0.49"/><circle cx="558.9" cy="150.0" r="0.5" fill="#cfe0ff" opacity="0.38"/><circle cx="264.8" cy="72.3" r="0.5" fill="#cfe0ff" opacity="0.52"/><circle cx="486.8" cy="72.1" r="0.7" fill="#cfe0ff" opacity="0.53"/><circle cx="70.9" cy="108.5" r="1.0" fill="#cfe0ff" opacity="0.41"/><circle cx="0.4" cy="41.5" r="1.0" fill="#cfe0ff" opacity="0.56"/><circle cx="158.0" cy="11.4" r="1.0" fill="#cfe0ff" opacity="0.45"/><circle cx="199.2" cy="155.2" r="0.5" fill="#cfe0ff" opacity="0.16"/><circle cx="193.9" cy="4.9" r="0.5" fill="#cfe0ff" opacity="0.21"/><circle cx="315.7" cy="86.4" r="1.0" fill="#cfe0ff" opacity="0.40"/><circle cx="429.0" cy="118.5" r="1.0" fill="#cfe0ff" opacity="0.19"/><circle cx="464.1" cy="11.6" r="0.7" fill="#cfe0ff" opacity="0.46"/><circle cx="360.4" cy="62.5" r="0.7" fill="#cfe0ff" opacity="0.51"/><circle cx="407.4" cy="151.5" r="1.0" fill="#cfe0ff" opacity="0.25"/><circle cx="168.4" cy="85.3" r="0.5" fill="#cfe0ff" opacity="0.18"/><circle cx="507.6" cy="63.4" r="0.5" fill="#cfe0ff" opacity="0.35"/><circle cx="512.6" cy="47.5" r="0.5" fill="#cfe0ff" opacity="0.56"/><circle cx="39.4" cy="128.6" r="0.7" fill="#cfe0ff" opacity="0.51"/><circle cx="217.0" cy="120.6" r="1.0" fill="#cfe0ff" opacity="0.29"/><circle cx="455.4" cy="65.9" r="0.5" fill="#cfe0ff" opacity="0.32"/><circle cx="9.0" cy="117.0" r="1.0" fill="#cfe0ff" opacity="0.35"/><circle cx="557.2" cy="73.4" r="1.0" fill="#cfe0ff" opacity="0.58"/><circle cx="210.3" cy="14.8" r="0.5" fill="#cfe0ff" opacity="0.16"/><circle cx="76.7" cy="48.5" r="0.7" fill="#cfe0ff" opacity="0.21"/><circle cx="115.3" cy="111.8" r="0.5" fill="#cfe0ff" opacity="0.22"/><circle cx="35.4" cy="25.9" r="0.7" fill="#cfe0ff" opacity="0.34"/><circle cx="512.3" cy="24.6" r="1.0" fill="#cfe0ff" opacity="0.40"/><circle cx="567.3" cy="136.6" r="0.5" fill="#cfe0ff" opacity="0.43"/><circle cx="604.2" cy="164.2" r="0.7" fill="#cfe0ff" opacity="0.48"/><circle cx="31.4" cy="125.3" r="0.7" fill="#cfe0ff" opacity="0.24"/><circle cx="455.8" cy="81.6" r="1.0" fill="#cfe0ff" opacity="0.44"/><circle cx="321.9" cy="55.0" r="0.7" fill="#cfe0ff" opacity="0.44"/><circle cx="133.9" cy="42.0" r="0.7" fill="#cfe0ff" opacity="0.17"/><circle cx="314.7" cy="39.5" r="0.5" fill="#cfe0ff" opacity="0.23"/><circle cx="249.0" cy="124.1" r="0.5" fill="#cfe0ff" opacity="0.39"/><circle cx="406.6" cy="46.2" r="0.5" fill="#cfe0ff" opacity="0.53"/><circle cx="594.6" cy="131.9" r="1.0" fill="#cfe0ff" opacity="0.50"/><circle cx="53.3" cy="47.9" r="0.5" fill="#cfe0ff" opacity="0.19"/><circle cx="437.5" cy="67.7" r="0.5" fill="#cfe0ff" opacity="0.41"/><circle cx="241.0" cy="66.4" r="0.5" fill="#cfe0ff" opacity="0.42"/><circle cx="179.2" cy="98.6" r="0.7" fill="#cfe0ff" opacity="0.19"/><circle cx="230.2" cy="134.4" r="0.7" fill="#cfe0ff" opacity="0.58"/><circle cx="353.0" cy="145.9" r="1.0" fill="#cfe0ff" opacity="0.31"/><circle cx="618.7" cy="87.1" r="0.5" fill="#cfe0ff" opacity="0.41"/><circle cx="621.8" cy="40.5" r="0.5" fill="#cfe0ff" opacity="0.52"/></g>
<rect x="3" y="3" width="619" height="160" rx="12" fill="none" stroke="#26345c" stroke-width="1.2" opacity="0.7"/>
<path d="M224.0,96.0 Q312.5,72.0 390.4,93.1" fill="none" stroke="#f3a83a" stroke-width="7" opacity="0.12" stroke-linecap="round"/>
<path d="M224.0,96.0 Q312.5,72.0 390.4,93.1" fill="none" stroke="#f3a83a" stroke-width="2.6" stroke-linecap="round"/>
<path d="M401.0,96.0 L388.3,97.0 L393.4,93.9 L390.5,88.8 Z" fill="#f3a83a"/>
<rect x="30.0" y="56.0" width="190" height="80" rx="11" fill="url(#cg)" stroke="#7fa8ff" stroke-width="1.8" filter="url(#sf)"/>
<rect x="30.0" y="56.0" width="6" height="80" rx="3" fill="#7fa8ff"/>
<g><rect x="48.0" y="83.0" width="28" height="19" rx="2.5" fill="none" stroke="#7fa8ff" stroke-width="2"/><line x1="57.0" y1="102.0" x2="54.0" y2="106.0" stroke="#7fa8ff" stroke-width="2"/><line x1="67.0" y1="102.0" x2="70.0" y2="106.0" stroke="#7fa8ff" stroke-width="2"/><line x1="52.0" y1="106.0" x2="72.0" y2="106.0" stroke="#7fa8ff" stroke-width="2"/></g>
<text x="92.0" y="93.0" font-size="16" fill="#e8eefc" font-weight="bold">Rocinante</text>
<text x="92.0" y="112.0" font-size="12" fill="#8fa3c8">Linux VM</text>
<rect x="405.0" y="56.0" width="190" height="80" rx="11" fill="url(#cg)" stroke="#7fa8ff" stroke-width="1.8" filter="url(#sf)"/>
<rect x="405.0" y="56.0" width="6" height="80" rx="3" fill="#7fa8ff"/>
<g><rect x="423.0" y="83.0" width="28" height="19" rx="2.5" fill="none" stroke="#7fa8ff" stroke-width="2"/><line x1="432.0" y1="102.0" x2="429.0" y2="106.0" stroke="#7fa8ff" stroke-width="2"/><line x1="442.0" y1="102.0" x2="445.0" y2="106.0" stroke="#7fa8ff" stroke-width="2"/><line x1="427.0" y1="106.0" x2="447.0" y2="106.0" stroke="#7fa8ff" stroke-width="2"/></g>
<text x="467.0" y="93.0" font-size="16" fill="#e8eefc" font-weight="bold">Scopuli</text>
<text x="467.0" y="112.0" font-size="12" fill="#8fa3c8">Linux VM</text>
<rect x="232.9" y="73.0" width="159" height="19" rx="9.5" fill="#05070f" stroke="#f3a83a" stroke-width="1" opacity="0.97"/>
<text x="312.5" y="87.0" font-size="11.5" fill="#f3a83a" text-anchor="middle">managed-identity abuse</text>
</svg>