<svg xmlns="http://www.w3.org/2000/svg" width="625" height="166" viewBox="0 0 625 166" font-family="monospace">
<defs>
<radialGradient id="bg" cx="50%" cy="38%" r="90%"><stop offset="0%" stop-color="#0b1330"/><stop offset="100%" stop-color="#05070f"/></radialGradient>
<linearGradient id="cg" x1="0" y1="0" x2="0" y2="1"><stop offset="0%" stop-color="#13203f"/><stop offset="100%" stop-color="#0e1730"/></linearGradient>
<filter id="sf" x="-40%" y="-40%" width="180%" height="180%"><feDropShadow dx="0" dy="2" stdDeviation="4" flood-color="#000" flood-opacity="0.5"/></filter>
</defs>
<rect width="625" height="166" fill="url(#bg)"/>
<g><circle cx="509.0" cy="74.1" r="0.5" fill="#cfe0ff" opacity="0.20"/><circle cx="474.9" cy="54.6" r="1.0" fill="#cfe0ff" opacity="0.48"/><circle cx="507.9" cy="56.1" r="0.5" fill="#cfe0ff" opacity="0.32"/><circle cx="562.1" cy="74.0" r="0.7" fill="#cfe0ff" opacity="0.29"/><circle cx="437.8" cy="147.9" r="1.0" fill="#cfe0ff" opacity="0.19"/><circle cx="322.4" cy="152.5" r="0.7" fill="#cfe0ff" opacity="0.34"/><circle cx="226.6" cy="38.3" r="1.0" fill="#cfe0ff" opacity="0.30"/><circle cx="604.1" cy="66.2" r="0.5" fill="#cfe0ff" opacity="0.25"/><circle cx="134.9" cy="6.1" r="0.7" fill="#cfe0ff" opacity="0.50"/><circle cx="44.0" cy="67.1" r="0.5" fill="#cfe0ff" opacity="0.21"/><circle cx="496.0" cy="121.0" r="0.5" fill="#cfe0ff" opacity="0.30"/><circle cx="279.0" cy="135.5" r="0.5" fill="#cfe0ff" opacity="0.24"/><circle cx="282.2" cy="3.7" r="0.5" fill="#cfe0ff" opacity="0.32"/><circle cx="70.0" cy="23.0" r="1.0" fill="#cfe0ff" opacity="0.37"/><circle cx="448.4" cy="150.2" r="0.5" fill="#cfe0ff" opacity="0.53"/><circle cx="53.8" cy="150.8" r="1.0" fill="#cfe0ff" opacity="0.54"/><circle cx="96.2" cy="80.5" r="1.0" fill="#cfe0ff" opacity="0.25"/><circle cx="389.2" cy="55.2" r="0.5" fill="#cfe0ff" opacity="0.41"/><circle cx="405.5" cy="12.1" r="1.0" fill="#cfe0ff" opacity="0.45"/><circle cx="61.1" cy="105.3" r="0.5" fill="#cfe0ff" opacity="0.57"/><circle cx="316.5" cy="30.6" r="1.0" fill="#cfe0ff" opacity="0.54"/><circle cx="333.8" cy="25.8" r="0.7" fill="#cfe0ff" opacity="0.50"/><circle cx="487.5" cy="54.7" r="0.7" fill="#cfe0ff" opacity="0.58"/><circle cx="226.1" cy="23.7" r="0.7" fill="#cfe0ff" opacity="0.57"/><circle cx="202.5" cy="20.3" r="0.7" fill="#cfe0ff" opacity="0.56"/><circle cx="337.8" cy="6.2" r="0.5" fill="#cfe0ff" opacity="0.38"/><circle cx="194.0" cy="156.8" r="1.0" fill="#cfe0ff" opacity="0.41"/><circle cx="97.2" cy="77.5" r="1.0" fill="#cfe0ff" opacity="0.18"/><circle cx="451.7" cy="119.8" r="0.5" fill="#cfe0ff" opacity="0.48"/><circle cx="216.3" cy="158.1" r="0.7" fill="#cfe0ff" opacity="0.53"/><circle cx="278.0" cy="44.6" r="1.0" fill="#cfe0ff" opacity="0.43"/><circle cx="320.7" cy="75.6" r="1.0" fill="#cfe0ff" opacity="0.52"/><circle cx="561.0" cy="136.3" r="0.5" fill="#cfe0ff" opacity="0.41"/><circle cx="412.0" cy="94.0" r="1.0" fill="#cfe0ff" opacity="0.43"/><circle cx="274.9" cy="97.5" r="0.7" fill="#cfe0ff" opacity="0.49"/><circle cx="95.2" cy="35.2" r="0.7" fill="#cfe0ff" opacity="0.27"/><circle cx="323.3" cy="27.5" r="1.0" fill="#cfe0ff" opacity="0.43"/><circle cx="561.6" cy="128.8" r="0.5" fill="#cfe0ff" opacity="0.20"/><circle cx="189.1" cy="91.3" r="0.5" fill="#cfe0ff" opacity="0.38"/><circle cx="619.3" cy="33.7" r="0.7" fill="#cfe0ff" opacity="0.57"/><circle cx="462.8" cy="110.0" r="0.7" fill="#cfe0ff" opacity="0.41"/><circle cx="473.5" cy="7.2" r="0.7" fill="#cfe0ff" opacity="0.56"/><circle cx="474.5" cy="86.5" r="0.7" fill="#cfe0ff" opacity="0.51"/><circle cx="77.1" cy="82.8" r="1.0" fill="#cfe0ff" opacity="0.42"/><circle cx="334.6" cy="107.1" r="1.0" fill="#cfe0ff" opacity="0.28"/><circle cx="204.2" cy="161.2" r="0.7" fill="#cfe0ff" opacity="0.17"/><circle cx="208.9" cy="135.0" r="0.7" fill="#cfe0ff" opacity="0.26"/><circle cx="182.1" cy="55.6" r="0.7" fill="#cfe0ff" opacity="0.38"/><circle cx="210.5" cy="153.2" r="0.7" fill="#cfe0ff" opacity="0.27"/><circle cx="473.4" cy="13.5" r="0.7" fill="#cfe0ff" opacity="0.59"/><circle cx="344.3" cy="95.3" r="0.5" fill="#cfe0ff" opacity="0.44"/><circle cx="297.1" cy="154.0" r="1.0" fill="#cfe0ff" opacity="0.23"/></g>
<rect x="3" y="3" width="619" height="160" rx="12" fill="none" stroke="#26345c" stroke-width="1.2" opacity="0.7"/>
<path d="M224.0,96.0 Q312.5,72.0 390.4,93.1" fill="none" stroke="#f3a83a" stroke-width="7" opacity="0.12" stroke-linecap="round"/>
<path d="M224.0,96.0 Q312.5,72.0 390.4,93.1" fill="none" stroke="#f3a83a" stroke-width="2.6" stroke-linecap="round"/>
<path d="M401.0,96.0 L388.3,97.0 L393.4,93.9 L390.5,88.8 Z" fill="#f3a83a"/>
<rect x="30.0" y="56.0" width="190" height="80" rx="11" fill="url(#cg)" stroke="#7fa8ff" stroke-width="1.8" filter="url(#sf)"/>
<rect x="30.0" y="56.0" width="6" height="80" rx="3" fill="#7fa8ff"/>
<g><rect x="48.0" y="83.0" width="28" height="19" rx="2.5" fill="none" stroke="#7fa8ff" stroke-width="2"/><line x1="57.0" y1="102.0" x2="54.0" y2="106.0" stroke="#7fa8ff" stroke-width="2"/><line x1="67.0" y1="102.0" x2="70.0" y2="106.0" stroke="#7fa8ff" stroke-width="2"/><line x1="52.0" y1="106.0" x2="72.0" y2="106.0" stroke="#7fa8ff" stroke-width="2"/></g>
<text x="92.0" y="93.0" font-size="16" fill="#e8eefc" font-weight="bold">Rocinante</text>
<text x="92.0" y="112.0" font-size="12" fill="#8fa3c8">Linux VM</text>
<rect x="405.0" y="56.0" width="190" height="80" rx="11" fill="url(#cg)" stroke="#7fa8ff" stroke-width="1.8" filter="url(#sf)"/>
<rect x="405.0" y="56.0" width="6" height="80" rx="3" fill="#7fa8ff"/>
<g><rect x="423.0" y="83.0" width="28" height="19" rx="2.5" fill="none" stroke="#7fa8ff" stroke-width="2"/><line x1="432.0" y1="102.0" x2="429.0" y2="106.0" stroke="#7fa8ff" stroke-width="2"/><line x1="442.0" y1="102.0" x2="445.0" y2="106.0" stroke="#7fa8ff" stroke-width="2"/><line x1="427.0" y1="106.0" x2="447.0" y2="106.0" stroke="#7fa8ff" stroke-width="2"/></g>
<text x="467.0" y="93.0" font-size="16" fill="#e8eefc" font-weight="bold">Scopuli</text>
<text x="467.0" y="112.0" font-size="12" fill="#8fa3c8">Linux VM</text>
<rect x="232.9" y="73.0" width="159" height="19" rx="9.5" fill="#05070f" stroke="#f3a83a" stroke-width="1" opacity="0.97"/>
<text x="312.5" y="87.0" font-size="11.5" fill="#f3a83a" text-anchor="middle">managed-identity abuse</text>
</svg>