<svg xmlns="http://www.w3.org/2000/svg" width="1051" height="166" viewBox="0 0 1051 166" font-family="monospace">
<defs>
<radialGradient id="bg" cx="50%" cy="38%" r="90%"><stop offset="0%" stop-color="#0b1330"/><stop offset="100%" stop-color="#05070f"/></radialGradient>
<linearGradient id="cg" x1="0" y1="0" x2="0" y2="1"><stop offset="0%" stop-color="#13203f"/><stop offset="100%" stop-color="#0e1730"/></linearGradient>
<filter id="sf" x="-40%" y="-40%" width="180%" height="180%"><feDropShadow dx="0" dy="2" stdDeviation="4" flood-color="#000" flood-opacity="0.5"/></filter>
</defs>
<rect width="1051" height="166" fill="url(#bg)"/>
<g><circle cx="348.4" cy="62.3" r="0.5" fill="#cfe0ff" opacity="0.36"/><circle cx="495.5" cy="29.0" r="0.5" fill="#cfe0ff" opacity="0.53"/><circle cx="515.0" cy="58.1" r="1.0" fill="#cfe0ff" opacity="0.49"/><circle cx="675.4" cy="9.5" r="0.5" fill="#cfe0ff" opacity="0.55"/><circle cx="890.3" cy="89.5" r="1.0" fill="#cfe0ff" opacity="0.60"/><circle cx="80.6" cy="126.0" r="0.5" fill="#cfe0ff" opacity="0.57"/><circle cx="390.7" cy="51.4" r="1.0" fill="#cfe0ff" opacity="0.59"/><circle cx="1018.4" cy="158.0" r="1.0" fill="#cfe0ff" opacity="0.35"/><circle cx="318.6" cy="56.3" r="1.0" fill="#cfe0ff" opacity="0.18"/><circle cx="612.8" cy="154.9" r="0.5" fill="#cfe0ff" opacity="0.37"/><circle cx="946.7" cy="114.9" r="1.0" fill="#cfe0ff" opacity="0.39"/><circle cx="91.0" cy="0.7" r="0.5" fill="#cfe0ff" opacity="0.20"/><circle cx="560.7" cy="129.2" r="0.5" fill="#cfe0ff" opacity="0.49"/><circle cx="574.5" cy="65.7" r="1.0" fill="#cfe0ff" opacity="0.15"/><circle cx="77.8" cy="12.2" r="1.0" fill="#cfe0ff" opacity="0.43"/><circle cx="542.0" cy="22.1" r="0.5" fill="#cfe0ff" opacity="0.28"/><circle cx="540.1" cy="60.3" r="0.7" fill="#cfe0ff" opacity="0.39"/><circle cx="999.3" cy="1.1" r="1.0" fill="#cfe0ff" opacity="0.55"/><circle cx="691.7" cy="9.3" r="1.0" fill="#cfe0ff" opacity="0.17"/><circle cx="675.4" cy="123.4" r="0.7" fill="#cfe0ff" opacity="0.29"/><circle cx="218.7" cy="88.7" r="0.5" fill="#cfe0ff" opacity="0.50"/><circle cx="1019.2" cy="141.4" r="1.0" fill="#cfe0ff" opacity="0.24"/><circle cx="670.5" cy="60.1" r="0.7" fill="#cfe0ff" opacity="0.43"/><circle cx="349.1" cy="3.7" r="1.0" fill="#cfe0ff" opacity="0.15"/><circle cx="220.9" cy="10.6" r="0.7" fill="#cfe0ff" opacity="0.54"/><circle cx="97.2" cy="107.5" r="0.5" fill="#cfe0ff" opacity="0.19"/><circle cx="1047.3" cy="80.8" r="0.5" fill="#cfe0ff" opacity="0.25"/><circle cx="416.2" cy="11.0" r="0.5" fill="#cfe0ff" opacity="0.40"/><circle cx="983.5" cy="124.0" r="0.7" fill="#cfe0ff" opacity="0.28"/><circle cx="481.8" cy="131.0" r="0.5" fill="#cfe0ff" opacity="0.31"/><circle cx="326.0" cy="149.0" r="0.5" fill="#cfe0ff" opacity="0.23"/><circle cx="53.2" cy="44.0" r="0.5" fill="#cfe0ff" opacity="0.37"/><circle cx="248.2" cy="128.1" r="1.0" fill="#cfe0ff" opacity="0.52"/><circle cx="30.4" cy="71.0" r="1.0" fill="#cfe0ff" opacity="0.32"/><circle cx="811.7" cy="72.8" r="1.0" fill="#cfe0ff" opacity="0.52"/><circle cx="1048.6" cy="29.6" r="0.5" fill="#cfe0ff" opacity="0.18"/><circle cx="739.1" cy="28.4" r="0.7" fill="#cfe0ff" opacity="0.20"/><circle cx="350.8" cy="135.9" r="0.7" fill="#cfe0ff" opacity="0.29"/><circle cx="209.8" cy="17.9" r="1.0" fill="#cfe0ff" opacity="0.58"/><circle cx="75.6" cy="109.3" r="0.7" fill="#cfe0ff" opacity="0.49"/><circle cx="777.4" cy="12.7" r="0.5" fill="#cfe0ff" opacity="0.46"/><circle cx="803.3" cy="151.0" r="0.7" fill="#cfe0ff" opacity="0.23"/><circle cx="480.3" cy="151.5" r="1.0" fill="#cfe0ff" opacity="0.52"/><circle cx="284.0" cy="6.2" r="0.5" fill="#cfe0ff" opacity="0.60"/><circle cx="916.2" cy="64.7" r="1.0" fill="#cfe0ff" opacity="0.47"/><circle cx="729.6" cy="135.4" r="1.0" fill="#cfe0ff" opacity="0.24"/><circle cx="102.3" cy="59.7" r="0.7" fill="#cfe0ff" opacity="0.45"/><circle cx="357.3" cy="148.4" r="0.5" fill="#cfe0ff" opacity="0.46"/><circle cx="639.1" cy="27.9" r="1.0" fill="#cfe0ff" opacity="0.53"/><circle cx="156.9" cy="125.8" r="1.0" fill="#cfe0ff" opacity="0.23"/><circle cx="485.9" cy="16.0" r="0.7" fill="#cfe0ff" opacity="0.36"/><circle cx="670.3" cy="52.1" r="1.0" fill="#cfe0ff" opacity="0.37"/><circle cx="871.6" cy="18.6" r="0.7" fill="#cfe0ff" opacity="0.15"/><circle cx="235.7" cy="112.2" r="0.7" fill="#cfe0ff" opacity="0.47"/><circle cx="440.6" cy="51.0" r="0.7" fill="#cfe0ff" opacity="0.28"/><circle cx="517.8" cy="13.4" r="0.5" fill="#cfe0ff" opacity="0.39"/><circle cx="459.7" cy="12.2" r="0.7" fill="#cfe0ff" opacity="0.54"/><circle cx="900.1" cy="83.9" r="1.0" fill="#cfe0ff" opacity="0.45"/><circle cx="225.9" cy="105.7" r="0.5" fill="#cfe0ff" opacity="0.41"/><circle cx="598.6" cy="52.3" r="0.5" fill="#cfe0ff" opacity="0.16"/><circle cx="1048.1" cy="91.6" r="0.7" fill="#cfe0ff" opacity="0.50"/><circle cx="571.1" cy="148.0" r="0.5" fill="#cfe0ff" opacity="0.58"/><circle cx="391.4" cy="70.2" r="1.0" fill="#cfe0ff" opacity="0.40"/><circle cx="50.7" cy="8.7" r="1.0" fill="#cfe0ff" opacity="0.48"/><circle cx="219.2" cy="142.2" r="1.0" fill="#cfe0ff" opacity="0.40"/><circle cx="930.2" cy="101.8" r="1.0" fill="#cfe0ff" opacity="0.16"/><circle cx="700.7" cy="136.9" r="0.7" fill="#cfe0ff" opacity="0.46"/><circle cx="982.2" cy="115.1" r="0.7" fill="#cfe0ff" opacity="0.15"/><circle cx="962.9" cy="159.2" r="1.0" fill="#cfe0ff" opacity="0.47"/><circle cx="381.5" cy="155.6" r="0.5" fill="#cfe0ff" opacity="0.59"/><circle cx="307.7" cy="120.1" r="1.0" fill="#cfe0ff" opacity="0.23"/><circle cx="329.4" cy="146.6" r="1.0" fill="#cfe0ff" opacity="0.50"/><circle cx="135.4" cy="134.0" r="1.0" fill="#cfe0ff" opacity="0.28"/><circle cx="811.5" cy="9.3" r="0.7" fill="#cfe0ff" opacity="0.43"/><circle cx="65.8" cy="149.9" r="0.5" fill="#cfe0ff" opacity="0.45"/><circle cx="577.4" cy="20.7" r="1.0" fill="#cfe0ff" opacity="0.46"/><circle cx="780.4" cy="154.9" r="0.5" fill="#cfe0ff" opacity="0.31"/><circle cx="956.7" cy="47.5" r="0.5" fill="#cfe0ff" opacity="0.48"/><circle cx="509.7" cy="124.8" r="0.5" fill="#cfe0ff" opacity="0.39"/><circle cx="674.6" cy="102.8" r="0.5" fill="#cfe0ff" opacity="0.32"/><circle cx="150.9" cy="143.3" r="0.7" fill="#cfe0ff" opacity="0.38"/><circle cx="727.5" cy="88.6" r="0.7" fill="#cfe0ff" opacity="0.58"/><circle cx="892.4" cy="16.7" r="1.0" fill="#cfe0ff" opacity="0.53"/><circle cx="101.5" cy="164.4" r="0.5" fill="#cfe0ff" opacity="0.28"/><circle cx="911.6" cy="20.3" r="1.0" fill="#cfe0ff" opacity="0.45"/><circle cx="580.6" cy="113.8" r="0.7" fill="#cfe0ff" opacity="0.26"/><circle cx="419.7" cy="58.3" r="0.7" fill="#cfe0ff" opacity="0.56"/></g>
<rect x="3" y="3" width="1045" height="160" rx="12" fill="none" stroke="#26345c" stroke-width="1.2" opacity="0.7"/>
<path d="M224.0,96.0 Q312.5,72.0 390.4,93.1" fill="none" stroke="#37d6e6" stroke-width="7" opacity="0.12" stroke-linecap="round"/>
<path d="M224.0,96.0 Q312.5,72.0 390.4,93.1" fill="none" stroke="#37d6e6" stroke-width="2.6" stroke-linecap="round"/>
<path d="M401.0,96.0 L388.3,97.0 L393.4,93.9 L390.5,88.8 Z" fill="#37d6e6"/>
<path d="M599.0,96.0 Q687.5,72.0 765.4,93.1" fill="none" stroke="#37d6e6" stroke-width="7" opacity="0.12" stroke-linecap="round"/>
<path d="M599.0,96.0 Q687.5,72.0 765.4,93.1" fill="none" stroke="#37d6e6" stroke-width="2.6" stroke-linecap="round"/>
<path d="M776.0,96.0 L763.3,97.0 L768.4,93.9 L765.5,88.8 Z" fill="#37d6e6"/>
<rect x="30.0" y="56.0" width="190" height="80" rx="11" fill="url(#cg)" stroke="#37d6e6" stroke-width="1.8" filter="url(#sf)"/>
<rect x="30.0" y="56.0" width="6" height="80" rx="3" fill="#37d6e6"/>
<g><ellipse cx="62.0" cy="84.0" rx="13" ry="4.5" fill="none" stroke="#37d6e6" stroke-width="2"/><path d="M49.0,84.0 V104.0 A13,4.5 0 0 0 75.0,104.0 V84.0" fill="none" stroke="#37d6e6" stroke-width="2"/><ellipse cx="62.0" cy="94.0" rx="13" ry="4.5" fill="none" stroke="#37d6e6" stroke-width="1.2" opacity="0.7"/></g>
<text x="92.0" y="93.0" font-size="16" fill="#e8eefc" font-weight="bold">tycho-db</text>
<text x="92.0" y="112.0" font-size="12" fill="#8fa3c8">Azure SQL</text>
<rect x="405.0" y="56.0" width="190" height="80" rx="11" fill="url(#cg)" stroke="#f3a83a" stroke-width="1.8" filter="url(#sf)"/>
<rect x="405.0" y="56.0" width="6" height="80" rx="3" fill="#f3a83a"/>
<g><rect x="424.0" y="82.0" width="26" height="24" rx="3" fill="none" stroke="#f3a83a" stroke-width="2"/><line x1="424.0" y1="88.0" x2="450.0" y2="88.0" stroke="#f3a83a" stroke-width="1.1" opacity="0.7"/><line x1="424.0" y1="94.0" x2="450.0" y2="94.0" stroke="#f3a83a" stroke-width="1.1" opacity="0.7"/><line x1="424.0" y1="100.0" x2="450.0" y2="100.0" stroke="#f3a83a" stroke-width="1.1" opacity="0.7"/></g>
<text x="467.0" y="93.0" font-size="16" fill="#e8eefc" font-weight="bold">Ceres</text>
<text x="467.0" y="112.0" font-size="12" fill="#8fa3c8">Storage account</text>
<rect x="780.0" y="56.0" width="241" height="80" rx="11" fill="url(#cg)" stroke="#b9a7ff" stroke-width="1.8" filter="url(#sf)"/>
<rect x="780.0" y="56.0" width="6" height="80" rx="3" fill="#b9a7ff"/>
<g><circle cx="812.0" cy="88.0" r="5.5" fill="none" stroke="#b9a7ff" stroke-width="2"/><path d="M802.0,106.0 a10,10 0 0 1 20,0" fill="none" stroke="#b9a7ff" stroke-width="2"/></g>
<text x="842.0" y="93.0" font-size="16" fill="#e8eefc" font-weight="bold">tycho-db-exporter</text>
<text x="842.0" y="112.0" font-size="12" fill="#8fa3c8">Service Principal</text>
<rect x="232.9" y="73.0" width="159" height="19" rx="9.5" fill="#05070f" stroke="#37d6e6" stroke-width="1" opacity="0.97"/>
<text x="312.5" y="87.0" font-size="11.5" fill="#37d6e6" text-anchor="middle">managed-identity abuse</text>
<rect x="631.0" y="73.0" width="113" height="19" rx="9.5" fill="#05070f" stroke="#37d6e6" stroke-width="1" opacity="0.97"/>
<text x="687.5" y="87.0" font-size="11.5" fill="#37d6e6" text-anchor="middle">credential leak</text>
</svg>