<svg xmlns="http://www.w3.org/2000/svg" width="1051" height="166" viewBox="0 0 1051 166" font-family="monospace">
<defs>
<radialGradient id="bg" cx="50%" cy="38%" r="90%"><stop offset="0%" stop-color="#0b1330"/><stop offset="100%" stop-color="#05070f"/></radialGradient>
<linearGradient id="cg" x1="0" y1="0" x2="0" y2="1"><stop offset="0%" stop-color="#13203f"/><stop offset="100%" stop-color="#0e1730"/></linearGradient>
<filter id="sf" x="-40%" y="-40%" width="180%" height="180%"><feDropShadow dx="0" dy="2" stdDeviation="4" flood-color="#000" flood-opacity="0.5"/></filter>
</defs>
<rect width="1051" height="166" fill="url(#bg)"/>
<g><circle cx="487.6" cy="65.1" r="0.7" fill="#cfe0ff" opacity="0.42"/><circle cx="568.4" cy="50.3" r="1.0" fill="#cfe0ff" opacity="0.49"/><circle cx="256.6" cy="138.4" r="0.5" fill="#cfe0ff" opacity="0.55"/><circle cx="1019.3" cy="144.6" r="0.5" fill="#cfe0ff" opacity="0.52"/><circle cx="807.1" cy="156.1" r="0.5" fill="#cfe0ff" opacity="0.46"/><circle cx="532.6" cy="102.5" r="0.7" fill="#cfe0ff" opacity="0.43"/><circle cx="117.0" cy="31.4" r="1.0" fill="#cfe0ff" opacity="0.23"/><circle cx="664.7" cy="158.2" r="0.7" fill="#cfe0ff" opacity="0.46"/><circle cx="978.4" cy="51.7" r="0.7" fill="#cfe0ff" opacity="0.26"/><circle cx="185.5" cy="86.7" r="0.7" fill="#cfe0ff" opacity="0.28"/><circle cx="608.3" cy="30.5" r="1.0" fill="#cfe0ff" opacity="0.29"/><circle cx="658.6" cy="143.8" r="0.7" fill="#cfe0ff" opacity="0.45"/><circle cx="346.7" cy="106.6" r="1.0" fill="#cfe0ff" opacity="0.27"/><circle cx="975.7" cy="5.0" r="0.5" fill="#cfe0ff" opacity="0.26"/><circle cx="786.2" cy="69.8" r="0.7" fill="#cfe0ff" opacity="0.46"/><circle cx="802.3" cy="84.9" r="0.5" fill="#cfe0ff" opacity="0.51"/><circle cx="971.6" cy="109.2" r="0.7" fill="#cfe0ff" opacity="0.46"/><circle cx="867.8" cy="109.7" r="0.5" fill="#cfe0ff" opacity="0.50"/><circle cx="235.4" cy="88.2" r="0.5" fill="#cfe0ff" opacity="0.38"/><circle cx="308.1" cy="45.8" r="0.7" fill="#cfe0ff" opacity="0.32"/><circle cx="65.3" cy="147.1" r="0.5" fill="#cfe0ff" opacity="0.34"/><circle cx="338.4" cy="114.9" r="0.5" fill="#cfe0ff" opacity="0.54"/><circle cx="755.0" cy="124.1" r="0.5" fill="#cfe0ff" opacity="0.33"/><circle cx="1039.0" cy="164.6" r="1.0" fill="#cfe0ff" opacity="0.38"/><circle cx="812.2" cy="158.7" r="0.7" fill="#cfe0ff" opacity="0.51"/><circle cx="756.5" cy="77.4" r="0.7" fill="#cfe0ff" opacity="0.32"/><circle cx="876.6" cy="75.0" r="0.5" fill="#cfe0ff" opacity="0.17"/><circle cx="240.5" cy="104.3" r="0.5" fill="#cfe0ff" opacity="0.39"/><circle cx="742.8" cy="47.6" r="0.7" fill="#cfe0ff" opacity="0.35"/><circle cx="593.1" cy="131.5" r="0.7" fill="#cfe0ff" opacity="0.45"/><circle cx="256.8" cy="89.8" r="0.5" fill="#cfe0ff" opacity="0.52"/><circle cx="593.4" cy="45.7" r="0.5" fill="#cfe0ff" opacity="0.36"/><circle cx="975.7" cy="149.4" r="0.7" fill="#cfe0ff" opacity="0.42"/><circle cx="59.6" cy="106.6" r="1.0" fill="#cfe0ff" opacity="0.25"/><circle cx="1045.6" cy="98.2" r="0.7" fill="#cfe0ff" opacity="0.55"/><circle cx="658.2" cy="62.9" r="0.5" fill="#cfe0ff" opacity="0.54"/><circle cx="6.0" cy="31.6" r="1.0" fill="#cfe0ff" opacity="0.50"/><circle cx="740.8" cy="28.0" r="0.5" fill="#cfe0ff" opacity="0.25"/><circle cx="578.0" cy="35.1" r="1.0" fill="#cfe0ff" opacity="0.60"/><circle cx="519.3" cy="90.7" r="1.0" fill="#cfe0ff" opacity="0.35"/><circle cx="952.4" cy="152.0" r="1.0" fill="#cfe0ff" opacity="0.52"/><circle cx="224.9" cy="119.0" r="1.0" fill="#cfe0ff" opacity="0.55"/><circle cx="266.6" cy="144.0" r="0.7" fill="#cfe0ff" opacity="0.57"/><circle cx="587.4" cy="52.2" r="1.0" fill="#cfe0ff" opacity="0.36"/><circle cx="558.1" cy="9.0" r="0.5" fill="#cfe0ff" opacity="0.58"/><circle cx="760.2" cy="19.8" r="1.0" fill="#cfe0ff" opacity="0.54"/><circle cx="272.3" cy="109.3" r="0.7" fill="#cfe0ff" opacity="0.32"/><circle cx="68.4" cy="14.5" r="0.5" fill="#cfe0ff" opacity="0.55"/><circle cx="878.7" cy="74.0" r="0.7" fill="#cfe0ff" opacity="0.37"/><circle cx="403.1" cy="78.0" r="0.5" fill="#cfe0ff" opacity="0.32"/><circle cx="884.3" cy="133.8" r="0.7" fill="#cfe0ff" opacity="0.20"/><circle cx="674.4" cy="63.1" r="0.7" fill="#cfe0ff" opacity="0.22"/><circle cx="300.2" cy="150.8" r="0.7" fill="#cfe0ff" opacity="0.20"/><circle cx="433.1" cy="12.7" r="0.5" fill="#cfe0ff" opacity="0.35"/><circle cx="1009.3" cy="156.0" r="0.7" fill="#cfe0ff" opacity="0.47"/><circle cx="443.5" cy="4.2" r="1.0" fill="#cfe0ff" opacity="0.39"/><circle cx="916.4" cy="92.9" r="0.7" fill="#cfe0ff" opacity="0.57"/><circle cx="1028.0" cy="95.0" r="0.5" fill="#cfe0ff" opacity="0.21"/><circle cx="1001.9" cy="133.4" r="0.7" fill="#cfe0ff" opacity="0.59"/><circle cx="709.2" cy="86.8" r="1.0" fill="#cfe0ff" opacity="0.25"/><circle cx="679.3" cy="111.5" r="0.7" fill="#cfe0ff" opacity="0.22"/><circle cx="255.0" cy="142.7" r="0.5" fill="#cfe0ff" opacity="0.40"/><circle cx="124.3" cy="117.2" r="1.0" fill="#cfe0ff" opacity="0.23"/><circle cx="381.2" cy="38.7" r="0.5" fill="#cfe0ff" opacity="0.30"/><circle cx="207.2" cy="5.6" r="1.0" fill="#cfe0ff" opacity="0.23"/><circle cx="190.7" cy="64.3" r="0.7" fill="#cfe0ff" opacity="0.51"/><circle cx="333.0" cy="143.3" r="0.5" fill="#cfe0ff" opacity="0.45"/><circle cx="112.1" cy="102.9" r="1.0" fill="#cfe0ff" opacity="0.24"/><circle cx="316.5" cy="97.0" r="0.7" fill="#cfe0ff" opacity="0.49"/><circle cx="203.0" cy="72.7" r="0.7" fill="#cfe0ff" opacity="0.16"/><circle cx="987.7" cy="77.4" r="1.0" fill="#cfe0ff" opacity="0.32"/><circle cx="463.5" cy="65.7" r="1.0" fill="#cfe0ff" opacity="0.22"/><circle cx="939.3" cy="113.2" r="0.7" fill="#cfe0ff" opacity="0.34"/><circle cx="965.5" cy="75.6" r="0.7" fill="#cfe0ff" opacity="0.54"/><circle cx="893.0" cy="108.2" r="0.7" fill="#cfe0ff" opacity="0.32"/><circle cx="823.9" cy="125.1" r="1.0" fill="#cfe0ff" opacity="0.51"/><circle cx="78.2" cy="117.4" r="0.7" fill="#cfe0ff" opacity="0.18"/><circle cx="704.5" cy="107.2" r="0.5" fill="#cfe0ff" opacity="0.24"/><circle cx="111.9" cy="28.7" r="1.0" fill="#cfe0ff" opacity="0.26"/><circle cx="367.0" cy="103.9" r="0.5" fill="#cfe0ff" opacity="0.48"/><circle cx="22.8" cy="114.6" r="0.5" fill="#cfe0ff" opacity="0.38"/><circle cx="157.7" cy="88.1" r="1.0" fill="#cfe0ff" opacity="0.21"/><circle cx="554.0" cy="100.8" r="0.7" fill="#cfe0ff" opacity="0.48"/><circle cx="590.7" cy="15.2" r="1.0" fill="#cfe0ff" opacity="0.41"/><circle cx="623.9" cy="4.3" r="0.7" fill="#cfe0ff" opacity="0.20"/><circle cx="132.6" cy="14.9" r="0.5" fill="#cfe0ff" opacity="0.42"/><circle cx="174.0" cy="67.0" r="1.0" fill="#cfe0ff" opacity="0.32"/></g>
<rect x="3" y="3" width="1045" height="160" rx="12" fill="none" stroke="#26345c" stroke-width="1.2" opacity="0.7"/>
<path d="M224.0,96.0 Q312.5,72.0 390.4,93.1" fill="none" stroke="#37d6e6" stroke-width="7" opacity="0.12" stroke-linecap="round"/>
<path d="M224.0,96.0 Q312.5,72.0 390.4,93.1" fill="none" stroke="#37d6e6" stroke-width="2.6" stroke-linecap="round"/>
<path d="M401.0,96.0 L388.3,97.0 L393.4,93.9 L390.5,88.8 Z" fill="#37d6e6"/>
<path d="M599.0,96.0 Q687.5,72.0 765.4,93.1" fill="none" stroke="#37d6e6" stroke-width="7" opacity="0.12" stroke-linecap="round"/>
<path d="M599.0,96.0 Q687.5,72.0 765.4,93.1" fill="none" stroke="#37d6e6" stroke-width="2.6" stroke-linecap="round"/>
<path d="M776.0,96.0 L763.3,97.0 L768.4,93.9 L765.5,88.8 Z" fill="#37d6e6"/>
<rect x="30.0" y="56.0" width="190" height="80" rx="11" fill="url(#cg)" stroke="#37d6e6" stroke-width="1.8" filter="url(#sf)"/>
<rect x="30.0" y="56.0" width="6" height="80" rx="3" fill="#37d6e6"/>
<g><ellipse cx="62.0" cy="84.0" rx="13" ry="4.5" fill="none" stroke="#37d6e6" stroke-width="2"/><path d="M49.0,84.0 V104.0 A13,4.5 0 0 0 75.0,104.0 V84.0" fill="none" stroke="#37d6e6" stroke-width="2"/><ellipse cx="62.0" cy="94.0" rx="13" ry="4.5" fill="none" stroke="#37d6e6" stroke-width="1.2" opacity="0.7"/></g>
<text x="92.0" y="93.0" font-size="16" fill="#e8eefc" font-weight="bold">tycho-db</text>
<text x="92.0" y="112.0" font-size="12" fill="#8fa3c8">Azure SQL</text>
<rect x="405.0" y="56.0" width="190" height="80" rx="11" fill="url(#cg)" stroke="#ef7c28" stroke-width="1.8" filter="url(#sf)"/>
<rect x="405.0" y="56.0" width="6" height="80" rx="3" fill="#ef7c28"/>
<g><rect x="424.0" y="82.0" width="26" height="24" rx="3" fill="none" stroke="#ef7c28" stroke-width="2"/><line x1="424.0" y1="88.0" x2="450.0" y2="88.0" stroke="#ef7c28" stroke-width="1.1" opacity="0.7"/><line x1="424.0" y1="94.0" x2="450.0" y2="94.0" stroke="#ef7c28" stroke-width="1.1" opacity="0.7"/><line x1="424.0" y1="100.0" x2="450.0" y2="100.0" stroke="#ef7c28" stroke-width="1.1" opacity="0.7"/></g>
<text x="467.0" y="93.0" font-size="16" fill="#e8eefc" font-weight="bold">Ceres</text>
<text x="467.0" y="112.0" font-size="12" fill="#8fa3c8">Storage account</text>
<rect x="780.0" y="56.0" width="241" height="80" rx="11" fill="url(#cg)" stroke="#b9a7ff" stroke-width="1.8" filter="url(#sf)"/>
<rect x="780.0" y="56.0" width="6" height="80" rx="3" fill="#b9a7ff"/>
<g><circle cx="812.0" cy="88.0" r="5.5" fill="none" stroke="#b9a7ff" stroke-width="2"/><path d="M802.0,106.0 a10,10 0 0 1 20,0" fill="none" stroke="#b9a7ff" stroke-width="2"/></g>
<text x="842.0" y="93.0" font-size="16" fill="#e8eefc" font-weight="bold">tycho-db-exporter</text>
<text x="842.0" y="112.0" font-size="12" fill="#8fa3c8">Service Principal</text>
<rect x="232.9" y="73.0" width="159" height="19" rx="9.5" fill="#05070f" stroke="#37d6e6" stroke-width="1" opacity="0.97"/>
<text x="312.5" y="87.0" font-size="11.5" fill="#37d6e6" text-anchor="middle">managed-identity abuse</text>
<rect x="631.0" y="73.0" width="113" height="19" rx="9.5" fill="#05070f" stroke="#37d6e6" stroke-width="1" opacity="0.97"/>
<text x="687.5" y="87.0" font-size="11.5" fill="#37d6e6" text-anchor="middle">credential leak</text>
</svg>