<svg xmlns="http://www.w3.org/2000/svg" width="625" height="166" viewBox="0 0 625 166" font-family="monospace">
<defs>
<radialGradient id="bg" cx="50%" cy="38%" r="90%"><stop offset="0%" stop-color="#0b1330"/><stop offset="100%" stop-color="#05070f"/></radialGradient>
<linearGradient id="cg" x1="0" y1="0" x2="0" y2="1"><stop offset="0%" stop-color="#13203f"/><stop offset="100%" stop-color="#0e1730"/></linearGradient>
<filter id="sf" x="-40%" y="-40%" width="180%" height="180%"><feDropShadow dx="0" dy="2" stdDeviation="4" flood-color="#000" flood-opacity="0.5"/></filter>
</defs>
<rect width="625" height="166" fill="url(#bg)"/>
<g><circle cx="214.2" cy="148.7" r="1.0" fill="#cfe0ff" opacity="0.39"/><circle cx="478.2" cy="162.2" r="0.7" fill="#cfe0ff" opacity="0.48"/><circle cx="487.7" cy="38.9" r="0.5" fill="#cfe0ff" opacity="0.40"/><circle cx="44.0" cy="54.8" r="1.0" fill="#cfe0ff" opacity="0.45"/><circle cx="472.3" cy="14.6" r="0.7" fill="#cfe0ff" opacity="0.56"/><circle cx="523.6" cy="1.2" r="0.7" fill="#cfe0ff" opacity="0.49"/><circle cx="412.2" cy="24.6" r="0.5" fill="#cfe0ff" opacity="0.48"/><circle cx="427.7" cy="117.1" r="1.0" fill="#cfe0ff" opacity="0.60"/><circle cx="304.3" cy="55.7" r="0.7" fill="#cfe0ff" opacity="0.18"/><circle cx="371.8" cy="109.9" r="0.7" fill="#cfe0ff" opacity="0.36"/><circle cx="23.9" cy="0.5" r="0.5" fill="#cfe0ff" opacity="0.32"/><circle cx="45.1" cy="140.4" r="0.5" fill="#cfe0ff" opacity="0.58"/><circle cx="168.0" cy="29.4" r="0.7" fill="#cfe0ff" opacity="0.22"/><circle cx="457.8" cy="154.5" r="1.0" fill="#cfe0ff" opacity="0.39"/><circle cx="215.6" cy="108.9" r="1.0" fill="#cfe0ff" opacity="0.55"/><circle cx="324.4" cy="84.0" r="1.0" fill="#cfe0ff" opacity="0.58"/><circle cx="179.6" cy="4.5" r="1.0" fill="#cfe0ff" opacity="0.47"/><circle cx="463.3" cy="128.6" r="0.5" fill="#cfe0ff" opacity="0.58"/><circle cx="231.5" cy="120.6" r="1.0" fill="#cfe0ff" opacity="0.50"/><circle cx="371.7" cy="142.6" r="0.5" fill="#cfe0ff" opacity="0.36"/><circle cx="532.1" cy="81.1" r="1.0" fill="#cfe0ff" opacity="0.57"/><circle cx="335.8" cy="157.8" r="0.7" fill="#cfe0ff" opacity="0.44"/><circle cx="505.3" cy="6.4" r="0.7" fill="#cfe0ff" opacity="0.30"/><circle cx="453.4" cy="0.1" r="0.5" fill="#cfe0ff" opacity="0.44"/><circle cx="138.8" cy="75.9" r="0.5" fill="#cfe0ff" opacity="0.48"/><circle cx="574.8" cy="151.2" r="0.7" fill="#cfe0ff" opacity="0.50"/><circle cx="375.7" cy="23.8" r="0.5" fill="#cfe0ff" opacity="0.56"/><circle cx="329.6" cy="63.9" r="1.0" fill="#cfe0ff" opacity="0.29"/><circle cx="86.9" cy="155.7" r="0.7" fill="#cfe0ff" opacity="0.41"/><circle cx="381.2" cy="104.9" r="0.7" fill="#cfe0ff" opacity="0.17"/><circle cx="145.4" cy="38.7" r="0.5" fill="#cfe0ff" opacity="0.55"/><circle cx="412.1" cy="42.0" r="1.0" fill="#cfe0ff" opacity="0.49"/><circle cx="276.5" cy="122.3" r="1.0" fill="#cfe0ff" opacity="0.41"/><circle cx="567.9" cy="67.1" r="0.7" fill="#cfe0ff" opacity="0.21"/><circle cx="264.1" cy="106.6" r="1.0" fill="#cfe0ff" opacity="0.26"/><circle cx="40.9" cy="88.3" r="0.7" fill="#cfe0ff" opacity="0.15"/><circle cx="151.2" cy="86.9" r="0.5" fill="#cfe0ff" opacity="0.47"/><circle cx="232.2" cy="106.2" r="1.0" fill="#cfe0ff" opacity="0.30"/><circle cx="482.1" cy="144.7" r="1.0" fill="#cfe0ff" opacity="0.40"/><circle cx="532.9" cy="39.1" r="1.0" fill="#cfe0ff" opacity="0.56"/><circle cx="568.1" cy="146.7" r="1.0" fill="#cfe0ff" opacity="0.60"/><circle cx="472.9" cy="120.5" r="1.0" fill="#cfe0ff" opacity="0.60"/><circle cx="25.2" cy="116.0" r="1.0" fill="#cfe0ff" opacity="0.38"/><circle cx="397.0" cy="102.3" r="1.0" fill="#cfe0ff" opacity="0.23"/><circle cx="538.2" cy="105.8" r="0.7" fill="#cfe0ff" opacity="0.28"/><circle cx="246.8" cy="8.9" r="1.0" fill="#cfe0ff" opacity="0.24"/><circle cx="285.6" cy="12.9" r="0.7" fill="#cfe0ff" opacity="0.25"/><circle cx="126.8" cy="33.9" r="0.7" fill="#cfe0ff" opacity="0.31"/><circle cx="600.9" cy="6.6" r="0.7" fill="#cfe0ff" opacity="0.59"/><circle cx="519.1" cy="73.8" r="1.0" fill="#cfe0ff" opacity="0.34"/><circle cx="75.1" cy="73.5" r="0.5" fill="#cfe0ff" opacity="0.57"/><circle cx="168.5" cy="129.6" r="1.0" fill="#cfe0ff" opacity="0.36"/></g>
<rect x="3" y="3" width="619" height="160" rx="12" fill="none" stroke="#26345c" stroke-width="1.2" opacity="0.7"/>
<path d="M224.0,96.0 Q312.5,72.0 390.4,93.1" fill="none" stroke="#f3a83a" stroke-width="7" opacity="0.12" stroke-linecap="round"/>
<path d="M224.0,96.0 Q312.5,72.0 390.4,93.1" fill="none" stroke="#f3a83a" stroke-width="2.6" stroke-linecap="round"/>
<path d="M401.0,96.0 L388.3,97.0 L393.4,93.9 L390.5,88.8 Z" fill="#f3a83a"/>
<rect x="30.0" y="56.0" width="190" height="80" rx="11" fill="url(#cg)" stroke="#7fa8ff" stroke-width="1.8" filter="url(#sf)"/>
<rect x="30.0" y="56.0" width="6" height="80" rx="3" fill="#7fa8ff"/>
<g><rect x="48.0" y="83.0" width="28" height="19" rx="2.5" fill="none" stroke="#7fa8ff" stroke-width="2"/><line x1="57.0" y1="102.0" x2="54.0" y2="106.0" stroke="#7fa8ff" stroke-width="2"/><line x1="67.0" y1="102.0" x2="70.0" y2="106.0" stroke="#7fa8ff" stroke-width="2"/><line x1="52.0" y1="106.0" x2="72.0" y2="106.0" stroke="#7fa8ff" stroke-width="2"/></g>
<text x="92.0" y="93.0" font-size="16" fill="#e8eefc" font-weight="bold">Scopuli</text>
<text x="92.0" y="112.0" font-size="12" fill="#8fa3c8">Linux VM</text>
<rect x="405.0" y="56.0" width="190" height="80" rx="11" fill="url(#cg)" stroke="#7fa8ff" stroke-width="1.8" filter="url(#sf)"/>
<rect x="405.0" y="56.0" width="6" height="80" rx="3" fill="#7fa8ff"/>
<g><rect x="423.0" y="83.0" width="28" height="19" rx="2.5" fill="none" stroke="#7fa8ff" stroke-width="2"/><line x1="432.0" y1="102.0" x2="429.0" y2="106.0" stroke="#7fa8ff" stroke-width="2"/><line x1="442.0" y1="102.0" x2="445.0" y2="106.0" stroke="#7fa8ff" stroke-width="2"/><line x1="427.0" y1="106.0" x2="447.0" y2="106.0" stroke="#7fa8ff" stroke-width="2"/></g>
<text x="467.0" y="93.0" font-size="16" fill="#e8eefc" font-weight="bold">Donnager</text>
<text x="467.0" y="112.0" font-size="12" fill="#8fa3c8">Windows VM</text>
<rect x="249.4" y="73.0" width="126" height="19" rx="9.5" fill="#05070f" stroke="#f3a83a" stroke-width="1" opacity="0.97"/>
<text x="312.5" y="87.0" font-size="11.5" fill="#f3a83a" text-anchor="middle">command execution</text>
</svg>