<svg xmlns="http://www.w3.org/2000/svg" width="625" height="166" viewBox="0 0 625 166" font-family="monospace">
<defs>
<radialGradient id="bg" cx="50%" cy="38%" r="90%"><stop offset="0%" stop-color="#0b1330"/><stop offset="100%" stop-color="#05070f"/></radialGradient>
<linearGradient id="cg" x1="0" y1="0" x2="0" y2="1"><stop offset="0%" stop-color="#13203f"/><stop offset="100%" stop-color="#0e1730"/></linearGradient>
<filter id="sf" x="-40%" y="-40%" width="180%" height="180%"><feDropShadow dx="0" dy="2" stdDeviation="4" flood-color="#000" flood-opacity="0.5"/></filter>
</defs>
<rect width="625" height="166" fill="url(#bg)"/>
<g><circle cx="381.6" cy="148.8" r="1.0" fill="#cfe0ff" opacity="0.39"/><circle cx="355.5" cy="150.9" r="1.0" fill="#cfe0ff" opacity="0.28"/><circle cx="398.1" cy="124.4" r="0.5" fill="#cfe0ff" opacity="0.38"/><circle cx="600.6" cy="143.9" r="0.7" fill="#cfe0ff" opacity="0.52"/><circle cx="566.3" cy="58.7" r="1.0" fill="#cfe0ff" opacity="0.27"/><circle cx="366.8" cy="49.6" r="0.5" fill="#cfe0ff" opacity="0.46"/><circle cx="204.8" cy="43.0" r="1.0" fill="#cfe0ff" opacity="0.35"/><circle cx="331.6" cy="80.8" r="1.0" fill="#cfe0ff" opacity="0.43"/><circle cx="459.0" cy="16.9" r="0.5" fill="#cfe0ff" opacity="0.18"/><circle cx="570.6" cy="96.9" r="1.0" fill="#cfe0ff" opacity="0.45"/><circle cx="473.2" cy="137.0" r="0.7" fill="#cfe0ff" opacity="0.26"/><circle cx="351.1" cy="85.3" r="0.7" fill="#cfe0ff" opacity="0.29"/><circle cx="213.0" cy="111.3" r="0.5" fill="#cfe0ff" opacity="0.28"/><circle cx="440.9" cy="58.1" r="1.0" fill="#cfe0ff" opacity="0.54"/><circle cx="459.2" cy="62.2" r="0.5" fill="#cfe0ff" opacity="0.59"/><circle cx="344.4" cy="77.1" r="0.7" fill="#cfe0ff" opacity="0.21"/><circle cx="154.1" cy="50.2" r="1.0" fill="#cfe0ff" opacity="0.36"/><circle cx="128.7" cy="25.5" r="0.5" fill="#cfe0ff" opacity="0.58"/><circle cx="36.5" cy="100.4" r="1.0" fill="#cfe0ff" opacity="0.57"/><circle cx="220.1" cy="159.0" r="0.5" fill="#cfe0ff" opacity="0.49"/><circle cx="84.7" cy="69.0" r="0.5" fill="#cfe0ff" opacity="0.24"/><circle cx="294.7" cy="158.0" r="0.5" fill="#cfe0ff" opacity="0.45"/><circle cx="369.6" cy="106.6" r="0.5" fill="#cfe0ff" opacity="0.47"/><circle cx="535.3" cy="63.8" r="0.5" fill="#cfe0ff" opacity="0.57"/><circle cx="154.0" cy="22.3" r="0.7" fill="#cfe0ff" opacity="0.51"/><circle cx="8.0" cy="136.8" r="1.0" fill="#cfe0ff" opacity="0.29"/><circle cx="321.0" cy="87.6" r="0.7" fill="#cfe0ff" opacity="0.16"/><circle cx="103.4" cy="92.9" r="1.0" fill="#cfe0ff" opacity="0.50"/><circle cx="398.3" cy="120.2" r="0.7" fill="#cfe0ff" opacity="0.19"/><circle cx="143.7" cy="79.9" r="1.0" fill="#cfe0ff" opacity="0.25"/><circle cx="183.9" cy="57.1" r="1.0" fill="#cfe0ff" opacity="0.22"/><circle cx="137.7" cy="92.2" r="0.5" fill="#cfe0ff" opacity="0.24"/><circle cx="220.8" cy="133.6" r="0.7" fill="#cfe0ff" opacity="0.25"/><circle cx="612.5" cy="75.6" r="1.0" fill="#cfe0ff" opacity="0.53"/><circle cx="580.2" cy="131.2" r="0.7" fill="#cfe0ff" opacity="0.38"/><circle cx="417.3" cy="123.5" r="0.7" fill="#cfe0ff" opacity="0.31"/><circle cx="249.7" cy="87.4" r="0.7" fill="#cfe0ff" opacity="0.26"/><circle cx="342.0" cy="96.0" r="0.7" fill="#cfe0ff" opacity="0.55"/><circle cx="159.1" cy="118.2" r="0.5" fill="#cfe0ff" opacity="0.24"/><circle cx="500.8" cy="123.4" r="0.5" fill="#cfe0ff" opacity="0.47"/><circle cx="448.1" cy="127.7" r="0.7" fill="#cfe0ff" opacity="0.31"/><circle cx="324.6" cy="130.4" r="0.5" fill="#cfe0ff" opacity="0.29"/><circle cx="134.0" cy="5.7" r="0.7" fill="#cfe0ff" opacity="0.34"/><circle cx="120.7" cy="154.7" r="1.0" fill="#cfe0ff" opacity="0.58"/><circle cx="119.5" cy="63.8" r="0.5" fill="#cfe0ff" opacity="0.37"/><circle cx="209.9" cy="7.7" r="0.7" fill="#cfe0ff" opacity="0.20"/><circle cx="496.2" cy="152.6" r="1.0" fill="#cfe0ff" opacity="0.20"/><circle cx="21.0" cy="114.7" r="0.7" fill="#cfe0ff" opacity="0.59"/><circle cx="126.5" cy="105.2" r="1.0" fill="#cfe0ff" opacity="0.44"/><circle cx="577.3" cy="76.5" r="1.0" fill="#cfe0ff" opacity="0.31"/><circle cx="553.3" cy="80.7" r="1.0" fill="#cfe0ff" opacity="0.30"/><circle cx="514.5" cy="54.4" r="1.0" fill="#cfe0ff" opacity="0.17"/></g>
<rect x="3" y="3" width="619" height="160" rx="12" fill="none" stroke="#26345c" stroke-width="1.2" opacity="0.7"/>
<path d="M224.0,96.0 Q312.5,72.0 390.4,93.1" fill="none" stroke="#f3a83a" stroke-width="7" opacity="0.12" stroke-linecap="round"/>
<path d="M224.0,96.0 Q312.5,72.0 390.4,93.1" fill="none" stroke="#f3a83a" stroke-width="2.6" stroke-linecap="round"/>
<path d="M401.0,96.0 L388.3,97.0 L393.4,93.9 L390.5,88.8 Z" fill="#f3a83a"/>
<rect x="30.0" y="56.0" width="190" height="80" rx="11" fill="url(#cg)" stroke="#7fa8ff" stroke-width="1.8" filter="url(#sf)"/>
<rect x="30.0" y="56.0" width="6" height="80" rx="3" fill="#7fa8ff"/>
<g><rect x="48.0" y="83.0" width="28" height="19" rx="2.5" fill="none" stroke="#7fa8ff" stroke-width="2"/><line x1="57.0" y1="102.0" x2="54.0" y2="106.0" stroke="#7fa8ff" stroke-width="2"/><line x1="67.0" y1="102.0" x2="70.0" y2="106.0" stroke="#7fa8ff" stroke-width="2"/><line x1="52.0" y1="106.0" x2="72.0" y2="106.0" stroke="#7fa8ff" stroke-width="2"/></g>
<text x="92.0" y="93.0" font-size="16" fill="#e8eefc" font-weight="bold">Scopuli</text>
<text x="92.0" y="112.0" font-size="12" fill="#8fa3c8">Linux VM</text>
<rect x="405.0" y="56.0" width="190" height="80" rx="11" fill="url(#cg)" stroke="#37d6e6" stroke-width="1.8" filter="url(#sf)"/>
<rect x="405.0" y="56.0" width="6" height="80" rx="3" fill="#37d6e6"/>
<g><ellipse cx="437.0" cy="84.0" rx="13" ry="4.5" fill="none" stroke="#37d6e6" stroke-width="2"/><path d="M424.0,84.0 V104.0 A13,4.5 0 0 0 450.0,104.0 V84.0" fill="none" stroke="#37d6e6" stroke-width="2"/><ellipse cx="437.0" cy="94.0" rx="13" ry="4.5" fill="none" stroke="#37d6e6" stroke-width="1.2" opacity="0.7"/></g>
<text x="467.0" y="93.0" font-size="16" fill="#e8eefc" font-weight="bold">tycho-db</text>
<text x="467.0" y="112.0" font-size="12" fill="#8fa3c8">Azure SQL</text>
<rect x="232.9" y="73.0" width="159" height="19" rx="9.5" fill="#05070f" stroke="#f3a83a" stroke-width="1" opacity="0.97"/>
<text x="312.5" y="87.0" font-size="11.5" fill="#f3a83a" text-anchor="middle">excessive RBAC (Owner)</text>
</svg>