<svg xmlns="http://www.w3.org/2000/svg" width="625" height="166" viewBox="0 0 625 166" font-family="monospace">
<defs>
<radialGradient id="bg" cx="50%" cy="38%" r="90%"><stop offset="0%" stop-color="#0b1330"/><stop offset="100%" stop-color="#05070f"/></radialGradient>
<linearGradient id="cg" x1="0" y1="0" x2="0" y2="1"><stop offset="0%" stop-color="#13203f"/><stop offset="100%" stop-color="#0e1730"/></linearGradient>
<filter id="sf" x="-40%" y="-40%" width="180%" height="180%"><feDropShadow dx="0" dy="2" stdDeviation="4" flood-color="#000" flood-opacity="0.5"/></filter>
</defs>
<rect width="625" height="166" fill="url(#bg)"/>
<g><circle cx="212.9" cy="126.6" r="1.0" fill="#cfe0ff" opacity="0.37"/><circle cx="66.7" cy="42.1" r="1.0" fill="#cfe0ff" opacity="0.55"/><circle cx="280.7" cy="157.6" r="0.5" fill="#cfe0ff" opacity="0.27"/><circle cx="483.2" cy="120.4" r="1.0" fill="#cfe0ff" opacity="0.16"/><circle cx="507.2" cy="70.3" r="0.5" fill="#cfe0ff" opacity="0.26"/><circle cx="564.2" cy="142.0" r="0.5" fill="#cfe0ff" opacity="0.19"/><circle cx="311.1" cy="96.7" r="0.7" fill="#cfe0ff" opacity="0.23"/><circle cx="572.8" cy="12.9" r="1.0" fill="#cfe0ff" opacity="0.57"/><circle cx="393.3" cy="124.5" r="1.0" fill="#cfe0ff" opacity="0.40"/><circle cx="274.6" cy="90.3" r="0.7" fill="#cfe0ff" opacity="0.32"/><circle cx="369.9" cy="21.8" r="1.0" fill="#cfe0ff" opacity="0.20"/><circle cx="287.7" cy="36.2" r="1.0" fill="#cfe0ff" opacity="0.45"/><circle cx="586.6" cy="17.9" r="0.5" fill="#cfe0ff" opacity="0.28"/><circle cx="560.8" cy="34.2" r="1.0" fill="#cfe0ff" opacity="0.24"/><circle cx="301.5" cy="29.1" r="1.0" fill="#cfe0ff" opacity="0.42"/><circle cx="462.1" cy="8.3" r="0.5" fill="#cfe0ff" opacity="0.30"/><circle cx="472.0" cy="95.6" r="1.0" fill="#cfe0ff" opacity="0.35"/><circle cx="485.9" cy="68.2" r="1.0" fill="#cfe0ff" opacity="0.44"/><circle cx="216.3" cy="120.3" r="1.0" fill="#cfe0ff" opacity="0.58"/><circle cx="507.6" cy="8.4" r="1.0" fill="#cfe0ff" opacity="0.33"/><circle cx="343.0" cy="149.8" r="0.7" fill="#cfe0ff" opacity="0.59"/><circle cx="241.7" cy="112.2" r="0.7" fill="#cfe0ff" opacity="0.46"/><circle cx="393.7" cy="105.9" r="0.5" fill="#cfe0ff" opacity="0.50"/><circle cx="87.5" cy="57.2" r="0.5" fill="#cfe0ff" opacity="0.39"/><circle cx="132.2" cy="11.5" r="0.7" fill="#cfe0ff" opacity="0.52"/><circle cx="180.5" cy="108.3" r="1.0" fill="#cfe0ff" opacity="0.54"/><circle cx="39.0" cy="74.0" r="0.7" fill="#cfe0ff" opacity="0.56"/><circle cx="176.7" cy="31.9" r="1.0" fill="#cfe0ff" opacity="0.41"/><circle cx="298.3" cy="152.0" r="1.0" fill="#cfe0ff" opacity="0.20"/><circle cx="28.8" cy="133.7" r="1.0" fill="#cfe0ff" opacity="0.57"/><circle cx="182.9" cy="91.3" r="0.5" fill="#cfe0ff" opacity="0.50"/><circle cx="229.5" cy="12.0" r="0.7" fill="#cfe0ff" opacity="0.44"/><circle cx="538.3" cy="3.9" r="0.5" fill="#cfe0ff" opacity="0.47"/><circle cx="193.4" cy="60.6" r="0.7" fill="#cfe0ff" opacity="0.25"/><circle cx="283.7" cy="34.0" r="0.7" fill="#cfe0ff" opacity="0.24"/><circle cx="22.5" cy="70.8" r="0.7" fill="#cfe0ff" opacity="0.35"/><circle cx="405.9" cy="105.7" r="0.5" fill="#cfe0ff" opacity="0.31"/><circle cx="355.6" cy="75.5" r="1.0" fill="#cfe0ff" opacity="0.51"/><circle cx="90.8" cy="158.1" r="0.7" fill="#cfe0ff" opacity="0.51"/><circle cx="232.5" cy="146.7" r="0.7" fill="#cfe0ff" opacity="0.24"/><circle cx="136.6" cy="5.7" r="1.0" fill="#cfe0ff" opacity="0.50"/><circle cx="624.5" cy="95.0" r="0.5" fill="#cfe0ff" opacity="0.49"/><circle cx="186.1" cy="156.4" r="0.5" fill="#cfe0ff" opacity="0.42"/><circle cx="205.2" cy="124.5" r="1.0" fill="#cfe0ff" opacity="0.16"/><circle cx="612.1" cy="148.7" r="0.5" fill="#cfe0ff" opacity="0.41"/><circle cx="537.7" cy="62.1" r="0.5" fill="#cfe0ff" opacity="0.18"/><circle cx="175.2" cy="112.6" r="0.5" fill="#cfe0ff" opacity="0.49"/><circle cx="171.8" cy="40.8" r="0.5" fill="#cfe0ff" opacity="0.50"/><circle cx="555.6" cy="65.7" r="1.0" fill="#cfe0ff" opacity="0.60"/><circle cx="367.6" cy="53.3" r="1.0" fill="#cfe0ff" opacity="0.24"/><circle cx="178.8" cy="121.5" r="0.5" fill="#cfe0ff" opacity="0.28"/><circle cx="115.6" cy="9.3" r="0.7" fill="#cfe0ff" opacity="0.34"/></g>
<rect x="3" y="3" width="619" height="160" rx="12" fill="none" stroke="#26345c" stroke-width="1.2" opacity="0.7"/>
<path d="M224.0,96.0 Q312.5,72.0 390.4,93.1" fill="none" stroke="#f3a83a" stroke-width="7" opacity="0.12" stroke-linecap="round"/>
<path d="M224.0,96.0 Q312.5,72.0 390.4,93.1" fill="none" stroke="#f3a83a" stroke-width="2.6" stroke-linecap="round"/>
<path d="M401.0,96.0 L388.3,97.0 L393.4,93.9 L390.5,88.8 Z" fill="#f3a83a"/>
<rect x="30.0" y="56.0" width="190" height="80" rx="11" fill="url(#cg)" stroke="#7fa8ff" stroke-width="1.8" filter="url(#sf)"/>
<rect x="30.0" y="56.0" width="6" height="80" rx="3" fill="#7fa8ff"/>
<g><rect x="48.0" y="83.0" width="28" height="19" rx="2.5" fill="none" stroke="#7fa8ff" stroke-width="2"/><line x1="57.0" y1="102.0" x2="54.0" y2="106.0" stroke="#7fa8ff" stroke-width="2"/><line x1="67.0" y1="102.0" x2="70.0" y2="106.0" stroke="#7fa8ff" stroke-width="2"/><line x1="52.0" y1="106.0" x2="72.0" y2="106.0" stroke="#7fa8ff" stroke-width="2"/></g>
<text x="92.0" y="93.0" font-size="16" fill="#e8eefc" font-weight="bold">Scopuli</text>
<text x="92.0" y="112.0" font-size="12" fill="#8fa3c8">Linux VM</text>
<rect x="405.0" y="56.0" width="190" height="80" rx="11" fill="url(#cg)" stroke="#7fa8ff" stroke-width="1.8" filter="url(#sf)"/>
<rect x="405.0" y="56.0" width="6" height="80" rx="3" fill="#7fa8ff"/>
<g><rect x="423.0" y="83.0" width="28" height="19" rx="2.5" fill="none" stroke="#7fa8ff" stroke-width="2"/><line x1="432.0" y1="102.0" x2="429.0" y2="106.0" stroke="#7fa8ff" stroke-width="2"/><line x1="442.0" y1="102.0" x2="445.0" y2="106.0" stroke="#7fa8ff" stroke-width="2"/><line x1="427.0" y1="106.0" x2="447.0" y2="106.0" stroke="#7fa8ff" stroke-width="2"/></g>
<text x="467.0" y="93.0" font-size="16" fill="#e8eefc" font-weight="bold">Donnager</text>
<text x="467.0" y="112.0" font-size="12" fill="#8fa3c8">Windows VM</text>
<rect x="249.4" y="73.0" width="126" height="19" rx="9.5" fill="#05070f" stroke="#f3a83a" stroke-width="1" opacity="0.97"/>
<text x="312.5" y="87.0" font-size="11.5" fill="#f3a83a" text-anchor="middle">command execution</text>
</svg>