<svg xmlns="http://www.w3.org/2000/svg" width="625" height="166" viewBox="0 0 625 166" font-family="monospace">
<defs>
<radialGradient id="bg" cx="50%" cy="38%" r="90%"><stop offset="0%" stop-color="#0b1330"/><stop offset="100%" stop-color="#05070f"/></radialGradient>
<linearGradient id="cg" x1="0" y1="0" x2="0" y2="1"><stop offset="0%" stop-color="#13203f"/><stop offset="100%" stop-color="#0e1730"/></linearGradient>
<filter id="sf" x="-40%" y="-40%" width="180%" height="180%"><feDropShadow dx="0" dy="2" stdDeviation="4" flood-color="#000" flood-opacity="0.5"/></filter>
</defs>
<rect width="625" height="166" fill="url(#bg)"/>
<g><circle cx="92.6" cy="24.9" r="0.5" fill="#cfe0ff" opacity="0.56"/><circle cx="165.7" cy="4.7" r="1.0" fill="#cfe0ff" opacity="0.15"/><circle cx="587.4" cy="104.7" r="1.0" fill="#cfe0ff" opacity="0.28"/><circle cx="282.0" cy="23.0" r="0.5" fill="#cfe0ff" opacity="0.28"/><circle cx="601.3" cy="102.5" r="0.5" fill="#cfe0ff" opacity="0.53"/><circle cx="42.0" cy="10.7" r="1.0" fill="#cfe0ff" opacity="0.41"/><circle cx="566.2" cy="10.3" r="0.7" fill="#cfe0ff" opacity="0.54"/><circle cx="84.6" cy="19.4" r="1.0" fill="#cfe0ff" opacity="0.46"/><circle cx="540.3" cy="41.1" r="1.0" fill="#cfe0ff" opacity="0.38"/><circle cx="19.6" cy="8.8" r="0.7" fill="#cfe0ff" opacity="0.21"/><circle cx="459.2" cy="60.9" r="1.0" fill="#cfe0ff" opacity="0.59"/><circle cx="116.3" cy="152.7" r="0.7" fill="#cfe0ff" opacity="0.29"/><circle cx="450.8" cy="34.5" r="1.0" fill="#cfe0ff" opacity="0.35"/><circle cx="180.3" cy="49.4" r="0.7" fill="#cfe0ff" opacity="0.42"/><circle cx="109.8" cy="57.4" r="0.5" fill="#cfe0ff" opacity="0.20"/><circle cx="411.4" cy="102.4" r="0.7" fill="#cfe0ff" opacity="0.54"/><circle cx="65.5" cy="107.4" r="0.7" fill="#cfe0ff" opacity="0.25"/><circle cx="616.9" cy="26.4" r="0.7" fill="#cfe0ff" opacity="0.28"/><circle cx="502.5" cy="118.3" r="1.0" fill="#cfe0ff" opacity="0.26"/><circle cx="48.7" cy="154.7" r="0.5" fill="#cfe0ff" opacity="0.32"/><circle cx="168.5" cy="61.9" r="0.7" fill="#cfe0ff" opacity="0.17"/><circle cx="535.2" cy="123.4" r="1.0" fill="#cfe0ff" opacity="0.28"/><circle cx="43.0" cy="162.7" r="1.0" fill="#cfe0ff" opacity="0.53"/><circle cx="205.1" cy="23.5" r="1.0" fill="#cfe0ff" opacity="0.26"/><circle cx="160.3" cy="86.4" r="0.7" fill="#cfe0ff" opacity="0.17"/><circle cx="449.6" cy="165.0" r="0.5" fill="#cfe0ff" opacity="0.27"/><circle cx="272.3" cy="158.2" r="0.5" fill="#cfe0ff" opacity="0.47"/><circle cx="176.3" cy="90.4" r="0.5" fill="#cfe0ff" opacity="0.46"/><circle cx="333.4" cy="126.9" r="1.0" fill="#cfe0ff" opacity="0.29"/><circle cx="406.5" cy="3.5" r="0.5" fill="#cfe0ff" opacity="0.36"/><circle cx="589.1" cy="79.4" r="0.7" fill="#cfe0ff" opacity="0.50"/><circle cx="465.3" cy="55.6" r="0.5" fill="#cfe0ff" opacity="0.45"/><circle cx="218.1" cy="37.1" r="0.5" fill="#cfe0ff" opacity="0.31"/><circle cx="529.4" cy="37.9" r="0.7" fill="#cfe0ff" opacity="0.22"/><circle cx="247.7" cy="114.7" r="1.0" fill="#cfe0ff" opacity="0.43"/><circle cx="214.1" cy="76.1" r="0.7" fill="#cfe0ff" opacity="0.53"/><circle cx="97.1" cy="4.5" r="0.7" fill="#cfe0ff" opacity="0.40"/><circle cx="481.8" cy="47.6" r="1.0" fill="#cfe0ff" opacity="0.56"/><circle cx="387.9" cy="149.6" r="0.7" fill="#cfe0ff" opacity="0.38"/><circle cx="331.6" cy="31.6" r="1.0" fill="#cfe0ff" opacity="0.47"/><circle cx="565.9" cy="70.4" r="1.0" fill="#cfe0ff" opacity="0.27"/><circle cx="201.5" cy="88.2" r="0.5" fill="#cfe0ff" opacity="0.59"/><circle cx="336.6" cy="102.7" r="0.5" fill="#cfe0ff" opacity="0.28"/><circle cx="129.5" cy="85.6" r="0.7" fill="#cfe0ff" opacity="0.60"/><circle cx="145.4" cy="1.0" r="0.5" fill="#cfe0ff" opacity="0.59"/><circle cx="190.3" cy="19.0" r="1.0" fill="#cfe0ff" opacity="0.39"/><circle cx="568.8" cy="146.5" r="0.7" fill="#cfe0ff" opacity="0.58"/><circle cx="49.9" cy="9.7" r="1.0" fill="#cfe0ff" opacity="0.30"/><circle cx="609.9" cy="150.7" r="0.7" fill="#cfe0ff" opacity="0.59"/><circle cx="498.7" cy="10.8" r="1.0" fill="#cfe0ff" opacity="0.20"/><circle cx="210.8" cy="67.0" r="0.5" fill="#cfe0ff" opacity="0.55"/><circle cx="443.8" cy="83.6" r="1.0" fill="#cfe0ff" opacity="0.38"/></g>
<rect x="3" y="3" width="619" height="160" rx="12" fill="none" stroke="#26345c" stroke-width="1.2" opacity="0.7"/>
<path d="M224.0,96.0 Q312.5,72.0 390.4,93.1" fill="none" stroke="#f3a83a" stroke-width="7" opacity="0.12" stroke-linecap="round"/>
<path d="M224.0,96.0 Q312.5,72.0 390.4,93.1" fill="none" stroke="#f3a83a" stroke-width="2.6" stroke-linecap="round"/>
<path d="M401.0,96.0 L388.3,97.0 L393.4,93.9 L390.5,88.8 Z" fill="#f3a83a"/>
<rect x="30.0" y="56.0" width="190" height="80" rx="11" fill="url(#cg)" stroke="#7fa8ff" stroke-width="1.8" filter="url(#sf)"/>
<rect x="30.0" y="56.0" width="6" height="80" rx="3" fill="#7fa8ff"/>
<g><rect x="48.0" y="83.0" width="28" height="19" rx="2.5" fill="none" stroke="#7fa8ff" stroke-width="2"/><line x1="57.0" y1="102.0" x2="54.0" y2="106.0" stroke="#7fa8ff" stroke-width="2"/><line x1="67.0" y1="102.0" x2="70.0" y2="106.0" stroke="#7fa8ff" stroke-width="2"/><line x1="52.0" y1="106.0" x2="72.0" y2="106.0" stroke="#7fa8ff" stroke-width="2"/></g>
<text x="92.0" y="93.0" font-size="16" fill="#e8eefc" font-weight="bold">Scopuli</text>
<text x="92.0" y="112.0" font-size="12" fill="#8fa3c8">Linux VM</text>
<rect x="405.0" y="56.0" width="190" height="80" rx="11" fill="url(#cg)" stroke="#37d6e6" stroke-width="1.8" filter="url(#sf)"/>
<rect x="405.0" y="56.0" width="6" height="80" rx="3" fill="#37d6e6"/>
<g><ellipse cx="437.0" cy="84.0" rx="13" ry="4.5" fill="none" stroke="#37d6e6" stroke-width="2"/><path d="M424.0,84.0 V104.0 A13,4.5 0 0 0 450.0,104.0 V84.0" fill="none" stroke="#37d6e6" stroke-width="2"/><ellipse cx="437.0" cy="94.0" rx="13" ry="4.5" fill="none" stroke="#37d6e6" stroke-width="1.2" opacity="0.7"/></g>
<text x="467.0" y="93.0" font-size="16" fill="#e8eefc" font-weight="bold">tycho-db</text>
<text x="467.0" y="112.0" font-size="12" fill="#8fa3c8">Azure SQL</text>
<rect x="232.9" y="73.0" width="159" height="19" rx="9.5" fill="#05070f" stroke="#f3a83a" stroke-width="1" opacity="0.97"/>
<text x="312.5" y="87.0" font-size="11.5" fill="#f3a83a" text-anchor="middle">excessive RBAC (Owner)</text>
</svg>