<svg xmlns="http://www.w3.org/2000/svg" width="647" height="166" viewBox="0 0 647 166" font-family="monospace">
<defs>
<radialGradient id="bg" cx="50%" cy="38%" r="90%"><stop offset="0%" stop-color="#0b1330"/><stop offset="100%" stop-color="#05070f"/></radialGradient>
<linearGradient id="cg" x1="0" y1="0" x2="0" y2="1"><stop offset="0%" stop-color="#13203f"/><stop offset="100%" stop-color="#0e1730"/></linearGradient>
<filter id="sf" x="-40%" y="-40%" width="180%" height="180%"><feDropShadow dx="0" dy="2" stdDeviation="4" flood-color="#000" flood-opacity="0.5"/></filter>
</defs>
<rect width="647" height="166" fill="url(#bg)"/>
<g><circle cx="450.7" cy="146.8" r="0.7" fill="#cfe0ff" opacity="0.40"/><circle cx="46.0" cy="38.0" r="0.7" fill="#cfe0ff" opacity="0.50"/><circle cx="384.1" cy="36.3" r="1.0" fill="#cfe0ff" opacity="0.40"/><circle cx="126.2" cy="0.2" r="0.5" fill="#cfe0ff" opacity="0.26"/><circle cx="403.6" cy="48.0" r="0.7" fill="#cfe0ff" opacity="0.21"/><circle cx="477.5" cy="126.9" r="1.0" fill="#cfe0ff" opacity="0.49"/><circle cx="200.3" cy="154.3" r="0.7" fill="#cfe0ff" opacity="0.45"/><circle cx="18.4" cy="77.8" r="0.7" fill="#cfe0ff" opacity="0.31"/><circle cx="135.0" cy="68.3" r="1.0" fill="#cfe0ff" opacity="0.38"/><circle cx="394.1" cy="108.0" r="0.5" fill="#cfe0ff" opacity="0.36"/><circle cx="391.7" cy="31.2" r="1.0" fill="#cfe0ff" opacity="0.34"/><circle cx="119.9" cy="153.8" r="0.5" fill="#cfe0ff" opacity="0.42"/><circle cx="134.1" cy="65.9" r="0.7" fill="#cfe0ff" opacity="0.22"/><circle cx="577.5" cy="152.7" r="0.7" fill="#cfe0ff" opacity="0.56"/><circle cx="602.0" cy="58.1" r="0.7" fill="#cfe0ff" opacity="0.59"/><circle cx="363.8" cy="28.2" r="0.7" fill="#cfe0ff" opacity="0.22"/><circle cx="288.3" cy="87.1" r="0.5" fill="#cfe0ff" opacity="0.56"/><circle cx="3.8" cy="10.2" r="0.7" fill="#cfe0ff" opacity="0.29"/><circle cx="608.2" cy="136.6" r="1.0" fill="#cfe0ff" opacity="0.46"/><circle cx="32.7" cy="44.8" r="0.5" fill="#cfe0ff" opacity="0.49"/><circle cx="78.8" cy="134.3" r="0.7" fill="#cfe0ff" opacity="0.32"/><circle cx="499.0" cy="119.8" r="1.0" fill="#cfe0ff" opacity="0.16"/><circle cx="126.8" cy="160.9" r="0.7" fill="#cfe0ff" opacity="0.32"/><circle cx="546.7" cy="66.2" r="1.0" fill="#cfe0ff" opacity="0.27"/><circle cx="249.0" cy="22.4" r="0.5" fill="#cfe0ff" opacity="0.20"/><circle cx="224.8" cy="70.0" r="0.7" fill="#cfe0ff" opacity="0.37"/><circle cx="31.5" cy="7.7" r="0.7" fill="#cfe0ff" opacity="0.42"/><circle cx="373.1" cy="44.0" r="0.5" fill="#cfe0ff" opacity="0.57"/><circle cx="131.8" cy="136.0" r="0.7" fill="#cfe0ff" opacity="0.53"/><circle cx="191.6" cy="121.9" r="0.7" fill="#cfe0ff" opacity="0.54"/><circle cx="278.0" cy="113.7" r="0.5" fill="#cfe0ff" opacity="0.33"/><circle cx="174.7" cy="22.9" r="0.7" fill="#cfe0ff" opacity="0.55"/><circle cx="371.0" cy="64.0" r="1.0" fill="#cfe0ff" opacity="0.23"/><circle cx="565.6" cy="112.5" r="1.0" fill="#cfe0ff" opacity="0.32"/><circle cx="544.6" cy="50.3" r="0.5" fill="#cfe0ff" opacity="0.60"/><circle cx="512.0" cy="121.3" r="0.5" fill="#cfe0ff" opacity="0.50"/><circle cx="545.5" cy="158.5" r="0.7" fill="#cfe0ff" opacity="0.53"/><circle cx="77.3" cy="1.0" r="0.7" fill="#cfe0ff" opacity="0.34"/><circle cx="607.4" cy="161.8" r="0.7" fill="#cfe0ff" opacity="0.49"/><circle cx="387.9" cy="103.4" r="0.5" fill="#cfe0ff" opacity="0.24"/><circle cx="179.5" cy="96.0" r="0.5" fill="#cfe0ff" opacity="0.57"/><circle cx="221.2" cy="120.0" r="1.0" fill="#cfe0ff" opacity="0.52"/><circle cx="245.6" cy="70.5" r="0.5" fill="#cfe0ff" opacity="0.49"/><circle cx="483.7" cy="100.5" r="1.0" fill="#cfe0ff" opacity="0.19"/><circle cx="227.3" cy="151.5" r="0.7" fill="#cfe0ff" opacity="0.49"/><circle cx="132.5" cy="121.0" r="0.7" fill="#cfe0ff" opacity="0.57"/><circle cx="532.8" cy="152.2" r="1.0" fill="#cfe0ff" opacity="0.44"/><circle cx="63.3" cy="54.2" r="0.5" fill="#cfe0ff" opacity="0.57"/><circle cx="21.2" cy="108.8" r="0.5" fill="#cfe0ff" opacity="0.58"/><circle cx="274.9" cy="160.5" r="0.5" fill="#cfe0ff" opacity="0.38"/><circle cx="613.2" cy="107.0" r="0.7" fill="#cfe0ff" opacity="0.28"/><circle cx="382.6" cy="34.5" r="0.5" fill="#cfe0ff" opacity="0.33"/><circle cx="11.6" cy="152.3" r="1.0" fill="#cfe0ff" opacity="0.16"/></g>
<rect x="3" y="3" width="641" height="160" rx="12" fill="none" stroke="#26345c" stroke-width="1.2" opacity="0.7"/>
<path d="M246.4,96.0 Q334.9,72.0 412.8,93.1" fill="none" stroke="#37d6e6" stroke-width="7" opacity="0.12" stroke-linecap="round"/>
<path d="M246.4,96.0 Q334.9,72.0 412.8,93.1" fill="none" stroke="#37d6e6" stroke-width="2.6" stroke-linecap="round"/>
<path d="M423.4,96.0 L410.7,97.0 L415.8,93.9 L412.9,88.8 Z" fill="#37d6e6"/>
<rect x="30.0" y="56.0" width="212" height="80" rx="11" fill="url(#cg)" stroke="#ffcf4d" stroke-width="1.8" filter="url(#sf)"/>
<rect x="30.0" y="56.0" width="6" height="80" rx="3" fill="#ffcf4d"/>
<g><circle cx="61.999999999999986" cy="94.0" r="13" fill="none" stroke="#ffcf4d" stroke-width="2"/><ellipse cx="61.999999999999986" cy="94.0" rx="5.5" ry="13" fill="none" stroke="#ffcf4d" stroke-width="1.5"/><line x1="48.999999999999986" y1="94.0" x2="74.99999999999999" y2="94.0" stroke="#ffcf4d" stroke-width="1.5"/></g>
<text x="92.0" y="93.0" font-size="16" fill="#e8eefc" font-weight="bold">Tycho Terminal</text>
<text x="92.0" y="112.0" font-size="12" fill="#8fa3c8">App Service</text>
<rect x="427.4" y="56.0" width="190" height="80" rx="11" fill="url(#cg)" stroke="#37d6e6" stroke-width="1.8" filter="url(#sf)"/>
<rect x="427.4" y="56.0" width="6" height="80" rx="3" fill="#37d6e6"/>
<g><ellipse cx="459.4" cy="84.0" rx="13" ry="4.5" fill="none" stroke="#37d6e6" stroke-width="2"/><path d="M446.4,84.0 V104.0 A13,4.5 0 0 0 472.4,104.0 V84.0" fill="none" stroke="#37d6e6" stroke-width="2"/><ellipse cx="459.4" cy="94.0" rx="13" ry="4.5" fill="none" stroke="#37d6e6" stroke-width="1.2" opacity="0.7"/></g>
<text x="489.4" y="93.0" font-size="16" fill="#e8eefc" font-weight="bold">tycho-db</text>
<text x="489.4" y="112.0" font-size="12" fill="#8fa3c8">Azure SQL</text>
<rect x="285.0" y="73.0" width="100" height="19" rx="9.5" fill="#05070f" stroke="#37d6e6" stroke-width="1" opacity="0.97"/>
<text x="334.9" y="87.0" font-size="11.5" fill="#37d6e6" text-anchor="middle">SQL injection</text>
</svg>