<svg xmlns="http://www.w3.org/2000/svg" width="647" height="166" viewBox="0 0 647 166" font-family="monospace">
<defs>
<radialGradient id="bg" cx="50%" cy="38%" r="90%"><stop offset="0%" stop-color="#0b1330"/><stop offset="100%" stop-color="#05070f"/></radialGradient>
<linearGradient id="cg" x1="0" y1="0" x2="0" y2="1"><stop offset="0%" stop-color="#13203f"/><stop offset="100%" stop-color="#0e1730"/></linearGradient>
<filter id="sf" x="-40%" y="-40%" width="180%" height="180%"><feDropShadow dx="0" dy="2" stdDeviation="4" flood-color="#000" flood-opacity="0.5"/></filter>
</defs>
<rect width="647" height="166" fill="url(#bg)"/>
<g><circle cx="99.0" cy="154.3" r="0.7" fill="#cfe0ff" opacity="0.36"/><circle cx="296.2" cy="4.1" r="0.5" fill="#cfe0ff" opacity="0.57"/><circle cx="266.7" cy="15.5" r="0.5" fill="#cfe0ff" opacity="0.27"/><circle cx="106.2" cy="118.9" r="0.7" fill="#cfe0ff" opacity="0.36"/><circle cx="381.6" cy="16.4" r="0.5" fill="#cfe0ff" opacity="0.32"/><circle cx="455.2" cy="153.6" r="0.7" fill="#cfe0ff" opacity="0.32"/><circle cx="530.0" cy="26.8" r="0.5" fill="#cfe0ff" opacity="0.42"/><circle cx="359.8" cy="133.8" r="0.5" fill="#cfe0ff" opacity="0.21"/><circle cx="543.2" cy="91.7" r="1.0" fill="#cfe0ff" opacity="0.56"/><circle cx="642.1" cy="28.2" r="0.5" fill="#cfe0ff" opacity="0.26"/><circle cx="105.1" cy="56.0" r="0.7" fill="#cfe0ff" opacity="0.37"/><circle cx="78.1" cy="106.0" r="0.7" fill="#cfe0ff" opacity="0.41"/><circle cx="294.8" cy="43.4" r="0.7" fill="#cfe0ff" opacity="0.51"/><circle cx="299.9" cy="96.6" r="1.0" fill="#cfe0ff" opacity="0.48"/><circle cx="322.7" cy="88.2" r="0.5" fill="#cfe0ff" opacity="0.43"/><circle cx="110.8" cy="71.0" r="1.0" fill="#cfe0ff" opacity="0.19"/><circle cx="72.2" cy="60.7" r="0.7" fill="#cfe0ff" opacity="0.33"/><circle cx="643.1" cy="105.1" r="1.0" fill="#cfe0ff" opacity="0.51"/><circle cx="582.2" cy="16.2" r="1.0" fill="#cfe0ff" opacity="0.43"/><circle cx="365.4" cy="81.7" r="1.0" fill="#cfe0ff" opacity="0.17"/><circle cx="354.2" cy="160.6" r="1.0" fill="#cfe0ff" opacity="0.41"/><circle cx="416.4" cy="26.9" r="0.7" fill="#cfe0ff" opacity="0.34"/><circle cx="568.9" cy="3.5" r="0.5" fill="#cfe0ff" opacity="0.51"/><circle cx="114.9" cy="106.7" r="1.0" fill="#cfe0ff" opacity="0.44"/><circle cx="453.4" cy="57.8" r="1.0" fill="#cfe0ff" opacity="0.19"/><circle cx="562.7" cy="112.1" r="0.7" fill="#cfe0ff" opacity="0.17"/><circle cx="56.8" cy="16.9" r="1.0" fill="#cfe0ff" opacity="0.55"/><circle cx="259.6" cy="71.0" r="0.5" fill="#cfe0ff" opacity="0.38"/><circle cx="580.4" cy="97.3" r="0.5" fill="#cfe0ff" opacity="0.36"/><circle cx="576.0" cy="8.4" r="0.5" fill="#cfe0ff" opacity="0.35"/><circle cx="513.7" cy="69.5" r="1.0" fill="#cfe0ff" opacity="0.30"/><circle cx="617.9" cy="106.0" r="1.0" fill="#cfe0ff" opacity="0.23"/><circle cx="12.1" cy="69.9" r="0.7" fill="#cfe0ff" opacity="0.45"/><circle cx="135.9" cy="80.7" r="1.0" fill="#cfe0ff" opacity="0.30"/><circle cx="56.9" cy="95.0" r="1.0" fill="#cfe0ff" opacity="0.26"/><circle cx="237.2" cy="40.4" r="0.7" fill="#cfe0ff" opacity="0.19"/><circle cx="79.2" cy="143.6" r="0.5" fill="#cfe0ff" opacity="0.39"/><circle cx="214.0" cy="45.4" r="1.0" fill="#cfe0ff" opacity="0.44"/><circle cx="219.0" cy="47.6" r="0.7" fill="#cfe0ff" opacity="0.52"/><circle cx="367.5" cy="145.8" r="1.0" fill="#cfe0ff" opacity="0.37"/><circle cx="187.3" cy="165.8" r="0.5" fill="#cfe0ff" opacity="0.46"/><circle cx="255.8" cy="69.4" r="0.5" fill="#cfe0ff" opacity="0.28"/><circle cx="123.2" cy="34.7" r="0.5" fill="#cfe0ff" opacity="0.44"/><circle cx="89.9" cy="154.8" r="1.0" fill="#cfe0ff" opacity="0.53"/><circle cx="163.5" cy="104.0" r="0.5" fill="#cfe0ff" opacity="0.57"/><circle cx="92.5" cy="57.4" r="1.0" fill="#cfe0ff" opacity="0.30"/><circle cx="622.9" cy="96.7" r="0.7" fill="#cfe0ff" opacity="0.41"/><circle cx="28.4" cy="15.8" r="0.5" fill="#cfe0ff" opacity="0.51"/><circle cx="448.6" cy="11.4" r="0.5" fill="#cfe0ff" opacity="0.52"/><circle cx="445.3" cy="119.6" r="0.5" fill="#cfe0ff" opacity="0.50"/><circle cx="346.9" cy="44.1" r="0.5" fill="#cfe0ff" opacity="0.32"/><circle cx="204.0" cy="84.6" r="1.0" fill="#cfe0ff" opacity="0.41"/><circle cx="617.8" cy="100.0" r="0.5" fill="#cfe0ff" opacity="0.22"/></g>
<rect x="3" y="3" width="641" height="160" rx="12" fill="none" stroke="#26345c" stroke-width="1.2" opacity="0.7"/>
<path d="M246.4,96.0 Q334.9,72.0 412.8,93.1" fill="none" stroke="#37d6e6" stroke-width="7" opacity="0.12" stroke-linecap="round"/>
<path d="M246.4,96.0 Q334.9,72.0 412.8,93.1" fill="none" stroke="#37d6e6" stroke-width="2.6" stroke-linecap="round"/>
<path d="M423.4,96.0 L410.7,97.0 L415.8,93.9 L412.9,88.8 Z" fill="#37d6e6"/>
<rect x="30.0" y="56.0" width="212" height="80" rx="11" fill="url(#cg)" stroke="#ffcf4d" stroke-width="1.8" filter="url(#sf)"/>
<rect x="30.0" y="56.0" width="6" height="80" rx="3" fill="#ffcf4d"/>
<g><circle cx="61.999999999999986" cy="94.0" r="13" fill="none" stroke="#ffcf4d" stroke-width="2"/><ellipse cx="61.999999999999986" cy="94.0" rx="5.5" ry="13" fill="none" stroke="#ffcf4d" stroke-width="1.5"/><line x1="48.999999999999986" y1="94.0" x2="74.99999999999999" y2="94.0" stroke="#ffcf4d" stroke-width="1.5"/></g>
<text x="92.0" y="93.0" font-size="16" fill="#e8eefc" font-weight="bold">Tycho Terminal</text>
<text x="92.0" y="112.0" font-size="12" fill="#8fa3c8">App Service</text>
<rect x="427.4" y="56.0" width="190" height="80" rx="11" fill="url(#cg)" stroke="#37d6e6" stroke-width="1.8" filter="url(#sf)"/>
<rect x="427.4" y="56.0" width="6" height="80" rx="3" fill="#37d6e6"/>
<g><ellipse cx="459.4" cy="84.0" rx="13" ry="4.5" fill="none" stroke="#37d6e6" stroke-width="2"/><path d="M446.4,84.0 V104.0 A13,4.5 0 0 0 472.4,104.0 V84.0" fill="none" stroke="#37d6e6" stroke-width="2"/><ellipse cx="459.4" cy="94.0" rx="13" ry="4.5" fill="none" stroke="#37d6e6" stroke-width="1.2" opacity="0.7"/></g>
<text x="489.4" y="93.0" font-size="16" fill="#e8eefc" font-weight="bold">tycho-db</text>
<text x="489.4" y="112.0" font-size="12" fill="#8fa3c8">Azure SQL</text>
<rect x="285.0" y="73.0" width="100" height="19" rx="9.5" fill="#05070f" stroke="#37d6e6" stroke-width="1" opacity="0.97"/>
<text x="334.9" y="87.0" font-size="11.5" fill="#37d6e6" text-anchor="middle">SQL injection</text>
</svg>