<svg xmlns="http://www.w3.org/2000/svg" width="650" height="166" viewBox="0 0 650 166" font-family="monospace">
<defs>
<radialGradient id="bg" cx="50%" cy="38%" r="90%"><stop offset="0%" stop-color="#0b1330"/><stop offset="100%" stop-color="#05070f"/></radialGradient>
<linearGradient id="cg" x1="0" y1="0" x2="0" y2="1"><stop offset="0%" stop-color="#13203f"/><stop offset="100%" stop-color="#0e1730"/></linearGradient>
<filter id="sf" x="-40%" y="-40%" width="180%" height="180%"><feDropShadow dx="0" dy="2" stdDeviation="4" flood-color="#000" flood-opacity="0.5"/></filter>
</defs>
<rect width="650" height="166" fill="url(#bg)"/>
<g><circle cx="77.2" cy="18.3" r="0.5" fill="#cfe0ff" opacity="0.22"/><circle cx="489.6" cy="3.6" r="0.5" fill="#cfe0ff" opacity="0.21"/><circle cx="632.5" cy="20.7" r="0.7" fill="#cfe0ff" opacity="0.41"/><circle cx="341.2" cy="154.8" r="0.5" fill="#cfe0ff" opacity="0.31"/><circle cx="278.1" cy="19.5" r="1.0" fill="#cfe0ff" opacity="0.48"/><circle cx="63.6" cy="101.8" r="0.5" fill="#cfe0ff" opacity="0.46"/><circle cx="232.1" cy="93.5" r="0.7" fill="#cfe0ff" opacity="0.56"/><circle cx="146.4" cy="104.3" r="0.7" fill="#cfe0ff" opacity="0.54"/><circle cx="484.8" cy="9.9" r="0.5" fill="#cfe0ff" opacity="0.21"/><circle cx="54.3" cy="9.4" r="0.5" fill="#cfe0ff" opacity="0.58"/><circle cx="480.4" cy="148.4" r="0.7" fill="#cfe0ff" opacity="0.31"/><circle cx="108.4" cy="119.7" r="0.5" fill="#cfe0ff" opacity="0.60"/><circle cx="7.6" cy="151.0" r="0.7" fill="#cfe0ff" opacity="0.25"/><circle cx="331.5" cy="49.0" r="1.0" fill="#cfe0ff" opacity="0.36"/><circle cx="455.4" cy="42.2" r="1.0" fill="#cfe0ff" opacity="0.53"/><circle cx="352.1" cy="142.4" r="0.7" fill="#cfe0ff" opacity="0.52"/><circle cx="111.2" cy="138.8" r="1.0" fill="#cfe0ff" opacity="0.29"/><circle cx="386.7" cy="122.6" r="0.5" fill="#cfe0ff" opacity="0.51"/><circle cx="320.7" cy="66.5" r="0.7" fill="#cfe0ff" opacity="0.42"/><circle cx="587.8" cy="13.3" r="0.5" fill="#cfe0ff" opacity="0.47"/><circle cx="445.6" cy="105.2" r="0.7" fill="#cfe0ff" opacity="0.50"/><circle cx="592.5" cy="56.2" r="1.0" fill="#cfe0ff" opacity="0.59"/><circle cx="564.9" cy="107.3" r="0.5" fill="#cfe0ff" opacity="0.34"/><circle cx="231.4" cy="110.0" r="0.5" fill="#cfe0ff" opacity="0.39"/><circle cx="457.4" cy="143.8" r="0.7" fill="#cfe0ff" opacity="0.55"/><circle cx="33.7" cy="130.4" r="0.7" fill="#cfe0ff" opacity="0.32"/><circle cx="149.4" cy="94.6" r="0.5" fill="#cfe0ff" opacity="0.25"/><circle cx="394.3" cy="55.7" r="0.5" fill="#cfe0ff" opacity="0.55"/><circle cx="132.7" cy="150.4" r="0.5" fill="#cfe0ff" opacity="0.43"/><circle cx="401.2" cy="46.6" r="1.0" fill="#cfe0ff" opacity="0.44"/><circle cx="381.0" cy="6.1" r="0.7" fill="#cfe0ff" opacity="0.44"/><circle cx="146.8" cy="137.2" r="0.7" fill="#cfe0ff" opacity="0.19"/><circle cx="635.1" cy="137.1" r="0.5" fill="#cfe0ff" opacity="0.17"/><circle cx="368.7" cy="137.2" r="0.7" fill="#cfe0ff" opacity="0.26"/><circle cx="266.2" cy="55.1" r="0.7" fill="#cfe0ff" opacity="0.54"/><circle cx="573.5" cy="24.4" r="0.5" fill="#cfe0ff" opacity="0.54"/><circle cx="64.1" cy="33.3" r="1.0" fill="#cfe0ff" opacity="0.45"/><circle cx="191.8" cy="131.9" r="0.7" fill="#cfe0ff" opacity="0.44"/><circle cx="150.4" cy="125.9" r="0.7" fill="#cfe0ff" opacity="0.30"/><circle cx="164.9" cy="53.0" r="0.5" fill="#cfe0ff" opacity="0.59"/><circle cx="386.5" cy="41.4" r="0.5" fill="#cfe0ff" opacity="0.60"/><circle cx="231.8" cy="125.7" r="0.5" fill="#cfe0ff" opacity="0.26"/><circle cx="375.2" cy="96.3" r="1.0" fill="#cfe0ff" opacity="0.33"/><circle cx="124.4" cy="52.7" r="0.7" fill="#cfe0ff" opacity="0.20"/><circle cx="498.5" cy="55.9" r="0.5" fill="#cfe0ff" opacity="0.19"/><circle cx="646.1" cy="19.2" r="0.5" fill="#cfe0ff" opacity="0.34"/><circle cx="125.4" cy="148.4" r="0.5" fill="#cfe0ff" opacity="0.17"/><circle cx="79.2" cy="128.7" r="1.0" fill="#cfe0ff" opacity="0.18"/><circle cx="588.2" cy="20.5" r="0.5" fill="#cfe0ff" opacity="0.53"/><circle cx="157.3" cy="150.1" r="0.7" fill="#cfe0ff" opacity="0.52"/><circle cx="584.3" cy="35.3" r="0.7" fill="#cfe0ff" opacity="0.40"/><circle cx="592.2" cy="21.5" r="0.7" fill="#cfe0ff" opacity="0.53"/><circle cx="109.9" cy="165.0" r="0.5" fill="#cfe0ff" opacity="0.15"/><circle cx="448.9" cy="84.1" r="0.5" fill="#cfe0ff" opacity="0.32"/></g>
<rect x="3" y="3" width="644" height="160" rx="12" fill="none" stroke="#26345c" stroke-width="1.2" opacity="0.7"/>
<path d="M248.8,96.0 Q337.3,72.0 415.2,93.1" fill="none" stroke="#f3a83a" stroke-width="7" opacity="0.12" stroke-linecap="round"/>
<path d="M248.8,96.0 Q337.3,72.0 415.2,93.1" fill="none" stroke="#f3a83a" stroke-width="2.6" stroke-linecap="round"/>
<path d="M425.8,96.0 L413.1,97.0 L418.2,93.9 L415.3,88.8 Z" fill="#f3a83a"/>
<rect x="30.0" y="56.0" width="215" height="80" rx="11" fill="url(#cg)" stroke="#ffcf4d" stroke-width="1.8" filter="url(#sf)"/>
<rect x="30.0" y="56.0" width="6" height="80" rx="3" fill="#ffcf4d"/>
<g><rect x="47.0" y="82.0" width="30" height="24" rx="3" fill="none" stroke="#ffcf4d" stroke-width="2"/><path d="M53.0,91.0 L58.0,95.0 L53.0,99.0" fill="none" stroke="#ffcf4d" stroke-width="2" stroke-linecap="round" stroke-linejoin="round"/><line x1="61.0" y1="99.0" x2="71.0" y2="99.0" stroke="#ffcf4d" stroke-width="2" stroke-linecap="round"/></g>
<text x="92.0" y="93.0" font-size="16" fill="#e8eefc" font-weight="bold">Operator</text>
<text x="92.0" y="112.0" font-size="12" fill="#8fa3c8">you · AzureAD / SSH</text>
<rect x="429.8" y="56.0" width="190" height="80" rx="11" fill="url(#cg)" stroke="#7fa8ff" stroke-width="1.8" filter="url(#sf)"/>
<rect x="429.8" y="56.0" width="6" height="80" rx="3" fill="#7fa8ff"/>
<g><rect x="447.79999999999995" y="83.0" width="28" height="19" rx="2.5" fill="none" stroke="#7fa8ff" stroke-width="2"/><line x1="456.79999999999995" y1="102.0" x2="453.79999999999995" y2="106.0" stroke="#7fa8ff" stroke-width="2"/><line x1="466.79999999999995" y1="102.0" x2="469.79999999999995" y2="106.0" stroke="#7fa8ff" stroke-width="2"/><line x1="451.79999999999995" y1="106.0" x2="471.79999999999995" y2="106.0" stroke="#7fa8ff" stroke-width="2"/></g>
<text x="491.8" y="93.0" font-size="16" fill="#e8eefc" font-weight="bold">Rocinante</text>
<text x="491.8" y="112.0" font-size="12" fill="#8fa3c8">Linux VM</text>
<rect x="294.0" y="73.0" width="87" height="19" rx="9.5" fill="#05070f" stroke="#f3a83a" stroke-width="1" opacity="0.97"/>
<text x="337.3" y="87.0" font-size="11.5" fill="#f3a83a" text-anchor="middle">AzureAD SSH</text>
</svg>