<svg xmlns="http://www.w3.org/2000/svg" width="672" height="304" viewBox="0 0 672 304" font-family="monospace">
<defs>
<radialGradient id="bg" cx="50%" cy="38%" r="90%"><stop offset="0%" stop-color="#0b1330"/><stop offset="100%" stop-color="#05070f"/></radialGradient>
<linearGradient id="cg" x1="0" y1="0" x2="0" y2="1"><stop offset="0%" stop-color="#13203f"/><stop offset="100%" stop-color="#0e1730"/></linearGradient>
<filter id="sf" x="-40%" y="-40%" width="180%" height="180%"><feDropShadow dx="0" dy="2" stdDeviation="4" flood-color="#000" flood-opacity="0.5"/></filter>
</defs>
<rect width="672" height="304" fill="url(#bg)"/>
<g><circle cx="325.0" cy="295.6" r="0.5" fill="#cfe0ff" opacity="0.24"/><circle cx="334.6" cy="285.6" r="0.7" fill="#cfe0ff" opacity="0.19"/><circle cx="588.3" cy="237.9" r="0.5" fill="#cfe0ff" opacity="0.44"/><circle cx="34.3" cy="285.0" r="0.7" fill="#cfe0ff" opacity="0.29"/><circle cx="471.5" cy="115.3" r="1.0" fill="#cfe0ff" opacity="0.30"/><circle cx="404.1" cy="51.3" r="0.5" fill="#cfe0ff" opacity="0.38"/><circle cx="460.5" cy="116.6" r="0.7" fill="#cfe0ff" opacity="0.27"/><circle cx="601.9" cy="67.6" r="0.5" fill="#cfe0ff" opacity="0.29"/><circle cx="456.0" cy="261.9" r="0.7" fill="#cfe0ff" opacity="0.29"/><circle cx="569.3" cy="210.1" r="0.7" fill="#cfe0ff" opacity="0.29"/><circle cx="111.4" cy="132.6" r="0.5" fill="#cfe0ff" opacity="0.39"/><circle cx="338.8" cy="4.3" r="0.5" fill="#cfe0ff" opacity="0.33"/><circle cx="132.8" cy="266.6" r="0.7" fill="#cfe0ff" opacity="0.30"/><circle cx="494.0" cy="0.8" r="1.0" fill="#cfe0ff" opacity="0.27"/><circle cx="292.2" cy="165.1" r="1.0" fill="#cfe0ff" opacity="0.54"/><circle cx="293.8" cy="256.8" r="1.0" fill="#cfe0ff" opacity="0.48"/><circle cx="519.2" cy="273.4" r="0.5" fill="#cfe0ff" opacity="0.52"/><circle cx="600.5" cy="202.8" r="0.7" fill="#cfe0ff" opacity="0.15"/><circle cx="407.8" cy="258.6" r="0.7" fill="#cfe0ff" opacity="0.37"/><circle cx="601.2" cy="198.1" r="1.0" fill="#cfe0ff" opacity="0.36"/><circle cx="378.0" cy="21.4" r="0.5" fill="#cfe0ff" opacity="0.26"/><circle cx="591.4" cy="90.1" r="0.5" fill="#cfe0ff" opacity="0.44"/><circle cx="415.4" cy="212.6" r="0.7" fill="#cfe0ff" opacity="0.56"/><circle cx="203.9" cy="24.8" r="1.0" fill="#cfe0ff" opacity="0.24"/><circle cx="452.0" cy="95.7" r="1.0" fill="#cfe0ff" opacity="0.49"/><circle cx="591.0" cy="95.3" r="0.7" fill="#cfe0ff" opacity="0.54"/><circle cx="594.6" cy="216.4" r="0.7" fill="#cfe0ff" opacity="0.50"/><circle cx="81.0" cy="149.4" r="1.0" fill="#cfe0ff" opacity="0.53"/><circle cx="303.5" cy="198.8" r="1.0" fill="#cfe0ff" opacity="0.32"/><circle cx="584.1" cy="253.6" r="0.7" fill="#cfe0ff" opacity="0.58"/><circle cx="380.1" cy="58.6" r="0.5" fill="#cfe0ff" opacity="0.37"/><circle cx="27.5" cy="15.7" r="1.0" fill="#cfe0ff" opacity="0.20"/><circle cx="202.6" cy="94.1" r="0.7" fill="#cfe0ff" opacity="0.16"/><circle cx="363.2" cy="8.8" r="0.5" fill="#cfe0ff" opacity="0.52"/><circle cx="130.1" cy="156.3" r="0.5" fill="#cfe0ff" opacity="0.40"/><circle cx="612.7" cy="10.4" r="0.7" fill="#cfe0ff" opacity="0.45"/><circle cx="648.4" cy="283.5" r="0.7" fill="#cfe0ff" opacity="0.28"/><circle cx="207.0" cy="198.0" r="0.7" fill="#cfe0ff" opacity="0.23"/><circle cx="289.1" cy="42.1" r="0.7" fill="#cfe0ff" opacity="0.44"/><circle cx="557.8" cy="282.3" r="0.7" fill="#cfe0ff" opacity="0.53"/><circle cx="615.9" cy="237.7" r="0.7" fill="#cfe0ff" opacity="0.26"/><circle cx="31.3" cy="111.9" r="0.7" fill="#cfe0ff" opacity="0.39"/><circle cx="454.9" cy="35.9" r="0.5" fill="#cfe0ff" opacity="0.47"/><circle cx="592.0" cy="14.5" r="0.7" fill="#cfe0ff" opacity="0.36"/><circle cx="233.8" cy="47.9" r="1.0" fill="#cfe0ff" opacity="0.52"/><circle cx="156.6" cy="302.0" r="0.5" fill="#cfe0ff" opacity="0.39"/><circle cx="392.2" cy="297.7" r="0.7" fill="#cfe0ff" opacity="0.28"/><circle cx="501.8" cy="140.4" r="0.7" fill="#cfe0ff" opacity="0.26"/><circle cx="349.8" cy="280.8" r="0.5" fill="#cfe0ff" opacity="0.35"/><circle cx="449.5" cy="218.0" r="0.5" fill="#cfe0ff" opacity="0.41"/><circle cx="517.1" cy="247.4" r="0.7" fill="#cfe0ff" opacity="0.29"/><circle cx="410.1" cy="154.5" r="0.7" fill="#cfe0ff" opacity="0.33"/><circle cx="581.6" cy="172.0" r="0.7" fill="#cfe0ff" opacity="0.18"/><circle cx="259.5" cy="82.2" r="0.5" fill="#cfe0ff" opacity="0.33"/><circle cx="585.8" cy="76.0" r="0.5" fill="#cfe0ff" opacity="0.42"/><circle cx="156.0" cy="223.9" r="0.5" fill="#cfe0ff" opacity="0.40"/></g>
<rect x="3" y="3" width="666" height="298" rx="12" fill="none" stroke="#26345c" stroke-width="1.2" opacity="0.7"/>
<path d="M248.8,142.6 Q343.4,93.4 437.6,109.6" fill="none" stroke="#f3a83a" stroke-width="7" opacity="0.12" stroke-linecap="round"/>
<path d="M248.8,142.6 Q343.4,93.4 437.6,109.6" fill="none" stroke="#f3a83a" stroke-width="2.6" stroke-linecap="round"/>
<path d="M448.4,111.5 L435.9,113.6 L440.6,110.1 L437.3,105.2 Z" fill="#f3a83a"/>
<path d="M248.8,180.1 Q342.6,231.6 437.5,217.7" fill="none" stroke="#f3a83a" stroke-width="7" opacity="0.12" stroke-linecap="round"/>
<path d="M248.8,180.1 Q342.6,231.6 437.5,217.7" fill="none" stroke="#f3a83a" stroke-width="2.6" stroke-linecap="round"/>
<path d="M448.4,216.1 L437.1,222.1 L440.6,217.3 L435.9,213.7 Z" fill="#f3a83a"/>
<rect x="30.0" y="120.0" width="215" height="80" rx="11" fill="url(#cg)" stroke="#ffcf4d" stroke-width="1.8" filter="url(#sf)"/>
<rect x="30.0" y="120.0" width="6" height="80" rx="3" fill="#ffcf4d"/>
<g><rect x="47.0" y="146.0" width="30" height="24" rx="3" fill="none" stroke="#ffcf4d" stroke-width="2"/><path d="M53.0,155.0 L58.0,159.0 L53.0,163.0" fill="none" stroke="#ffcf4d" stroke-width="2" stroke-linecap="round" stroke-linejoin="round"/><line x1="61.0" y1="163.0" x2="71.0" y2="163.0" stroke="#ffcf4d" stroke-width="2" stroke-linecap="round"/></g>
<text x="92.0" y="157.0" font-size="16" fill="#e8eefc" font-weight="bold">Operator</text>
<text x="92.0" y="176.0" font-size="12" fill="#8fa3c8">you · AzureAD / SSH</text>
<rect x="452.4" y="56.0" width="190" height="80" rx="11" fill="url(#cg)" stroke="#7fa8ff" stroke-width="1.8" filter="url(#sf)"/>
<rect x="452.4" y="56.0" width="6" height="80" rx="3" fill="#7fa8ff"/>
<g><rect x="470.4" y="83.0" width="28" height="19" rx="2.5" fill="none" stroke="#7fa8ff" stroke-width="2"/><line x1="479.4" y1="102.0" x2="476.4" y2="106.0" stroke="#7fa8ff" stroke-width="2"/><line x1="489.4" y1="102.0" x2="492.4" y2="106.0" stroke="#7fa8ff" stroke-width="2"/><line x1="474.4" y1="106.0" x2="494.4" y2="106.0" stroke="#7fa8ff" stroke-width="2"/></g>
<text x="514.4" y="93.0" font-size="16" fill="#e8eefc" font-weight="bold">Rocinante</text>
<text x="514.4" y="112.0" font-size="12" fill="#8fa3c8">Linux VM</text>
<rect x="452.4" y="194.0" width="190" height="80" rx="11" fill="url(#cg)" stroke="#7fa8ff" stroke-width="1.8" filter="url(#sf)"/>
<rect x="452.4" y="194.0" width="6" height="80" rx="3" fill="#7fa8ff"/>
<g><rect x="470.4" y="221.0" width="28" height="19" rx="2.5" fill="none" stroke="#7fa8ff" stroke-width="2"/><line x1="479.4" y1="240.0" x2="476.4" y2="244.0" stroke="#7fa8ff" stroke-width="2"/><line x1="489.4" y1="240.0" x2="492.4" y2="244.0" stroke="#7fa8ff" stroke-width="2"/><line x1="474.4" y1="244.0" x2="494.4" y2="244.0" stroke="#7fa8ff" stroke-width="2"/></g>
<text x="514.4" y="231.0" font-size="16" fill="#e8eefc" font-weight="bold">Scopuli</text>
<text x="514.4" y="250.0" font-size="12" fill="#8fa3c8">Linux VM</text>
<rect x="315.9" y="99.2" width="60" height="19" rx="9.5" fill="#05070f" stroke="#f3a83a" stroke-width="1" opacity="0.97"/>
<text x="346.0" y="113.2" font-size="11.5" fill="#f3a83a" text-anchor="middle">SSH key</text>
<rect x="315.5" y="203.8" width="60" height="19" rx="9.5" fill="#05070f" stroke="#f3a83a" stroke-width="1" opacity="0.97"/>
<text x="345.6" y="217.8" font-size="11.5" fill="#f3a83a" text-anchor="middle">SSH key</text>
</svg>