<svg xmlns="http://www.w3.org/2000/svg" width="650" height="166" viewBox="0 0 650 166" font-family="monospace">
<defs>
<radialGradient id="bg" cx="50%" cy="38%" r="90%"><stop offset="0%" stop-color="#0b1330"/><stop offset="100%" stop-color="#05070f"/></radialGradient>
<linearGradient id="cg" x1="0" y1="0" x2="0" y2="1"><stop offset="0%" stop-color="#13203f"/><stop offset="100%" stop-color="#0e1730"/></linearGradient>
<filter id="sf" x="-40%" y="-40%" width="180%" height="180%"><feDropShadow dx="0" dy="2" stdDeviation="4" flood-color="#000" flood-opacity="0.5"/></filter>
</defs>
<rect width="650" height="166" fill="url(#bg)"/>
<g><circle cx="47.3" cy="48.0" r="0.7" fill="#cfe0ff" opacity="0.56"/><circle cx="536.3" cy="45.3" r="1.0" fill="#cfe0ff" opacity="0.41"/><circle cx="634.7" cy="46.2" r="0.7" fill="#cfe0ff" opacity="0.54"/><circle cx="206.9" cy="15.7" r="0.5" fill="#cfe0ff" opacity="0.25"/><circle cx="545.4" cy="87.3" r="1.0" fill="#cfe0ff" opacity="0.32"/><circle cx="419.4" cy="73.4" r="0.5" fill="#cfe0ff" opacity="0.56"/><circle cx="393.6" cy="126.1" r="0.7" fill="#cfe0ff" opacity="0.34"/><circle cx="621.3" cy="36.2" r="1.0" fill="#cfe0ff" opacity="0.45"/><circle cx="227.8" cy="63.3" r="1.0" fill="#cfe0ff" opacity="0.57"/><circle cx="130.1" cy="16.9" r="0.7" fill="#cfe0ff" opacity="0.37"/><circle cx="325.6" cy="146.8" r="0.5" fill="#cfe0ff" opacity="0.55"/><circle cx="175.1" cy="7.6" r="0.7" fill="#cfe0ff" opacity="0.59"/><circle cx="398.5" cy="163.5" r="0.7" fill="#cfe0ff" opacity="0.60"/><circle cx="495.2" cy="51.8" r="0.7" fill="#cfe0ff" opacity="0.29"/><circle cx="388.1" cy="5.4" r="1.0" fill="#cfe0ff" opacity="0.51"/><circle cx="607.0" cy="157.3" r="1.0" fill="#cfe0ff" opacity="0.55"/><circle cx="196.7" cy="58.4" r="0.5" fill="#cfe0ff" opacity="0.43"/><circle cx="393.9" cy="32.8" r="1.0" fill="#cfe0ff" opacity="0.16"/><circle cx="453.1" cy="46.9" r="0.5" fill="#cfe0ff" opacity="0.31"/><circle cx="226.0" cy="143.3" r="0.5" fill="#cfe0ff" opacity="0.58"/><circle cx="319.0" cy="51.6" r="0.7" fill="#cfe0ff" opacity="0.57"/><circle cx="621.4" cy="126.3" r="1.0" fill="#cfe0ff" opacity="0.41"/><circle cx="302.2" cy="0.3" r="1.0" fill="#cfe0ff" opacity="0.51"/><circle cx="75.4" cy="37.2" r="0.7" fill="#cfe0ff" opacity="0.47"/><circle cx="240.6" cy="32.7" r="1.0" fill="#cfe0ff" opacity="0.57"/><circle cx="411.0" cy="78.7" r="0.5" fill="#cfe0ff" opacity="0.32"/><circle cx="538.4" cy="165.4" r="1.0" fill="#cfe0ff" opacity="0.24"/><circle cx="27.5" cy="23.1" r="1.0" fill="#cfe0ff" opacity="0.16"/><circle cx="503.7" cy="80.3" r="0.5" fill="#cfe0ff" opacity="0.34"/><circle cx="293.3" cy="59.1" r="0.7" fill="#cfe0ff" opacity="0.40"/><circle cx="459.3" cy="156.0" r="1.0" fill="#cfe0ff" opacity="0.29"/><circle cx="77.2" cy="64.6" r="1.0" fill="#cfe0ff" opacity="0.38"/><circle cx="485.8" cy="122.3" r="1.0" fill="#cfe0ff" opacity="0.51"/><circle cx="602.2" cy="157.3" r="1.0" fill="#cfe0ff" opacity="0.16"/><circle cx="625.6" cy="50.8" r="1.0" fill="#cfe0ff" opacity="0.35"/><circle cx="246.4" cy="88.1" r="1.0" fill="#cfe0ff" opacity="0.56"/><circle cx="372.7" cy="43.2" r="0.5" fill="#cfe0ff" opacity="0.59"/><circle cx="615.4" cy="152.4" r="1.0" fill="#cfe0ff" opacity="0.39"/><circle cx="512.3" cy="136.4" r="1.0" fill="#cfe0ff" opacity="0.45"/><circle cx="520.6" cy="147.7" r="1.0" fill="#cfe0ff" opacity="0.54"/><circle cx="609.4" cy="156.8" r="0.7" fill="#cfe0ff" opacity="0.43"/><circle cx="255.9" cy="82.9" r="0.5" fill="#cfe0ff" opacity="0.30"/><circle cx="577.3" cy="159.8" r="0.7" fill="#cfe0ff" opacity="0.52"/><circle cx="560.3" cy="96.3" r="0.5" fill="#cfe0ff" opacity="0.60"/><circle cx="639.4" cy="57.4" r="1.0" fill="#cfe0ff" opacity="0.39"/><circle cx="283.5" cy="124.8" r="0.5" fill="#cfe0ff" opacity="0.31"/><circle cx="188.5" cy="42.7" r="0.5" fill="#cfe0ff" opacity="0.38"/><circle cx="296.7" cy="2.6" r="0.7" fill="#cfe0ff" opacity="0.39"/><circle cx="153.1" cy="111.1" r="1.0" fill="#cfe0ff" opacity="0.35"/><circle cx="191.4" cy="142.9" r="0.7" fill="#cfe0ff" opacity="0.37"/><circle cx="160.0" cy="51.9" r="0.5" fill="#cfe0ff" opacity="0.58"/><circle cx="507.1" cy="137.1" r="1.0" fill="#cfe0ff" opacity="0.38"/><circle cx="17.9" cy="15.0" r="1.0" fill="#cfe0ff" opacity="0.49"/><circle cx="423.2" cy="58.3" r="0.5" fill="#cfe0ff" opacity="0.34"/></g>
<rect x="3" y="3" width="644" height="160" rx="12" fill="none" stroke="#26345c" stroke-width="1.2" opacity="0.7"/>
<path d="M248.8,96.0 Q337.3,72.0 415.2,93.1" fill="none" stroke="#f3a83a" stroke-width="7" opacity="0.12" stroke-linecap="round"/>
<path d="M248.8,96.0 Q337.3,72.0 415.2,93.1" fill="none" stroke="#f3a83a" stroke-width="2.6" stroke-linecap="round"/>
<path d="M425.8,96.0 L413.1,97.0 L418.2,93.9 L415.3,88.8 Z" fill="#f3a83a"/>
<rect x="30.0" y="56.0" width="215" height="80" rx="11" fill="url(#cg)" stroke="#ffcf4d" stroke-width="1.8" filter="url(#sf)"/>
<rect x="30.0" y="56.0" width="6" height="80" rx="3" fill="#ffcf4d"/>
<g><rect x="47.0" y="82.0" width="30" height="24" rx="3" fill="none" stroke="#ffcf4d" stroke-width="2"/><path d="M53.0,91.0 L58.0,95.0 L53.0,99.0" fill="none" stroke="#ffcf4d" stroke-width="2" stroke-linecap="round" stroke-linejoin="round"/><line x1="61.0" y1="99.0" x2="71.0" y2="99.0" stroke="#ffcf4d" stroke-width="2" stroke-linecap="round"/></g>
<text x="92.0" y="93.0" font-size="16" fill="#e8eefc" font-weight="bold">Operator</text>
<text x="92.0" y="112.0" font-size="12" fill="#8fa3c8">you · AzureAD / SSH</text>
<rect x="429.8" y="56.0" width="190" height="80" rx="11" fill="url(#cg)" stroke="#7fa8ff" stroke-width="1.8" filter="url(#sf)"/>
<rect x="429.8" y="56.0" width="6" height="80" rx="3" fill="#7fa8ff"/>
<g><rect x="447.79999999999995" y="83.0" width="28" height="19" rx="2.5" fill="none" stroke="#7fa8ff" stroke-width="2"/><line x1="456.79999999999995" y1="102.0" x2="453.79999999999995" y2="106.0" stroke="#7fa8ff" stroke-width="2"/><line x1="466.79999999999995" y1="102.0" x2="469.79999999999995" y2="106.0" stroke="#7fa8ff" stroke-width="2"/><line x1="451.79999999999995" y1="106.0" x2="471.79999999999995" y2="106.0" stroke="#7fa8ff" stroke-width="2"/></g>
<text x="491.8" y="93.0" font-size="16" fill="#e8eefc" font-weight="bold">Rocinante</text>
<text x="491.8" y="112.0" font-size="12" fill="#8fa3c8">Linux VM</text>
<rect x="294.0" y="73.0" width="87" height="19" rx="9.5" fill="#05070f" stroke="#f3a83a" stroke-width="1" opacity="0.97"/>
<text x="337.3" y="87.0" font-size="11.5" fill="#f3a83a" text-anchor="middle">AzureAD SSH</text>
</svg>