<svg xmlns="http://www.w3.org/2000/svg" width="672" height="304" viewBox="0 0 672 304" font-family="monospace">
<defs>
<radialGradient id="bg" cx="50%" cy="38%" r="90%"><stop offset="0%" stop-color="#0b1330"/><stop offset="100%" stop-color="#05070f"/></radialGradient>
<linearGradient id="cg" x1="0" y1="0" x2="0" y2="1"><stop offset="0%" stop-color="#13203f"/><stop offset="100%" stop-color="#0e1730"/></linearGradient>
<filter id="sf" x="-40%" y="-40%" width="180%" height="180%"><feDropShadow dx="0" dy="2" stdDeviation="4" flood-color="#000" flood-opacity="0.5"/></filter>
</defs>
<rect width="672" height="304" fill="url(#bg)"/>
<g><circle cx="595.8" cy="232.1" r="1.0" fill="#cfe0ff" opacity="0.37"/><circle cx="294.7" cy="143.7" r="0.5" fill="#cfe0ff" opacity="0.56"/><circle cx="585.3" cy="303.8" r="1.0" fill="#cfe0ff" opacity="0.47"/><circle cx="117.9" cy="271.4" r="1.0" fill="#cfe0ff" opacity="0.57"/><circle cx="671.9" cy="291.5" r="1.0" fill="#cfe0ff" opacity="0.59"/><circle cx="514.5" cy="265.0" r="1.0" fill="#cfe0ff" opacity="0.34"/><circle cx="294.8" cy="75.1" r="1.0" fill="#cfe0ff" opacity="0.18"/><circle cx="225.5" cy="52.9" r="0.7" fill="#cfe0ff" opacity="0.27"/><circle cx="309.4" cy="135.4" r="1.0" fill="#cfe0ff" opacity="0.33"/><circle cx="9.5" cy="39.5" r="0.5" fill="#cfe0ff" opacity="0.15"/><circle cx="140.3" cy="278.9" r="1.0" fill="#cfe0ff" opacity="0.24"/><circle cx="340.3" cy="143.7" r="0.5" fill="#cfe0ff" opacity="0.49"/><circle cx="327.3" cy="177.5" r="0.5" fill="#cfe0ff" opacity="0.31"/><circle cx="222.2" cy="19.8" r="0.7" fill="#cfe0ff" opacity="0.26"/><circle cx="613.5" cy="44.9" r="0.5" fill="#cfe0ff" opacity="0.50"/><circle cx="51.4" cy="116.2" r="1.0" fill="#cfe0ff" opacity="0.33"/><circle cx="387.8" cy="290.1" r="0.5" fill="#cfe0ff" opacity="0.36"/><circle cx="14.0" cy="42.0" r="1.0" fill="#cfe0ff" opacity="0.44"/><circle cx="581.3" cy="215.2" r="1.0" fill="#cfe0ff" opacity="0.52"/><circle cx="489.3" cy="26.4" r="1.0" fill="#cfe0ff" opacity="0.54"/><circle cx="15.5" cy="204.8" r="0.7" fill="#cfe0ff" opacity="0.20"/><circle cx="126.8" cy="137.4" r="0.5" fill="#cfe0ff" opacity="0.57"/><circle cx="261.6" cy="161.0" r="0.5" fill="#cfe0ff" opacity="0.23"/><circle cx="602.6" cy="220.2" r="0.5" fill="#cfe0ff" opacity="0.56"/><circle cx="199.1" cy="204.9" r="0.5" fill="#cfe0ff" opacity="0.39"/><circle cx="32.4" cy="148.6" r="1.0" fill="#cfe0ff" opacity="0.40"/><circle cx="355.6" cy="244.6" r="1.0" fill="#cfe0ff" opacity="0.36"/><circle cx="340.6" cy="284.0" r="1.0" fill="#cfe0ff" opacity="0.58"/><circle cx="505.8" cy="107.8" r="0.7" fill="#cfe0ff" opacity="0.54"/><circle cx="458.3" cy="44.9" r="0.7" fill="#cfe0ff" opacity="0.38"/><circle cx="41.7" cy="27.7" r="1.0" fill="#cfe0ff" opacity="0.23"/><circle cx="445.0" cy="55.1" r="0.5" fill="#cfe0ff" opacity="0.17"/><circle cx="662.0" cy="10.5" r="0.5" fill="#cfe0ff" opacity="0.22"/><circle cx="396.9" cy="4.9" r="0.5" fill="#cfe0ff" opacity="0.59"/><circle cx="219.6" cy="278.2" r="1.0" fill="#cfe0ff" opacity="0.55"/><circle cx="166.3" cy="34.5" r="1.0" fill="#cfe0ff" opacity="0.16"/><circle cx="391.0" cy="251.8" r="1.0" fill="#cfe0ff" opacity="0.18"/><circle cx="238.7" cy="124.2" r="1.0" fill="#cfe0ff" opacity="0.38"/><circle cx="424.9" cy="24.0" r="1.0" fill="#cfe0ff" opacity="0.34"/><circle cx="86.9" cy="180.5" r="0.5" fill="#cfe0ff" opacity="0.55"/><circle cx="451.2" cy="9.5" r="0.5" fill="#cfe0ff" opacity="0.27"/><circle cx="83.2" cy="141.8" r="0.7" fill="#cfe0ff" opacity="0.49"/><circle cx="640.4" cy="298.4" r="0.7" fill="#cfe0ff" opacity="0.48"/><circle cx="62.9" cy="136.4" r="0.5" fill="#cfe0ff" opacity="0.40"/><circle cx="562.3" cy="126.9" r="1.0" fill="#cfe0ff" opacity="0.59"/><circle cx="172.5" cy="90.3" r="0.5" fill="#cfe0ff" opacity="0.28"/><circle cx="506.2" cy="80.7" r="0.5" fill="#cfe0ff" opacity="0.16"/><circle cx="349.7" cy="3.3" r="0.7" fill="#cfe0ff" opacity="0.25"/><circle cx="83.3" cy="31.3" r="0.7" fill="#cfe0ff" opacity="0.35"/><circle cx="525.7" cy="15.6" r="1.0" fill="#cfe0ff" opacity="0.59"/><circle cx="557.0" cy="80.0" r="0.5" fill="#cfe0ff" opacity="0.27"/><circle cx="36.3" cy="94.0" r="0.5" fill="#cfe0ff" opacity="0.58"/><circle cx="572.3" cy="95.5" r="0.7" fill="#cfe0ff" opacity="0.47"/><circle cx="373.8" cy="46.8" r="0.5" fill="#cfe0ff" opacity="0.17"/><circle cx="337.7" cy="292.4" r="0.5" fill="#cfe0ff" opacity="0.30"/><circle cx="581.6" cy="124.7" r="0.7" fill="#cfe0ff" opacity="0.39"/></g>
<rect x="3" y="3" width="666" height="298" rx="12" fill="none" stroke="#26345c" stroke-width="1.2" opacity="0.7"/>
<path d="M248.8,142.6 Q343.4,93.4 437.6,109.6" fill="none" stroke="#f3a83a" stroke-width="7" opacity="0.12" stroke-linecap="round"/>
<path d="M248.8,142.6 Q343.4,93.4 437.6,109.6" fill="none" stroke="#f3a83a" stroke-width="2.6" stroke-linecap="round"/>
<path d="M448.4,111.5 L435.9,113.6 L440.6,110.1 L437.3,105.2 Z" fill="#f3a83a"/>
<path d="M248.8,180.1 Q342.6,231.6 437.5,217.7" fill="none" stroke="#f3a83a" stroke-width="7" opacity="0.12" stroke-linecap="round"/>
<path d="M248.8,180.1 Q342.6,231.6 437.5,217.7" fill="none" stroke="#f3a83a" stroke-width="2.6" stroke-linecap="round"/>
<path d="M448.4,216.1 L437.1,222.1 L440.6,217.3 L435.9,213.7 Z" fill="#f3a83a"/>
<rect x="30.0" y="120.0" width="215" height="80" rx="11" fill="url(#cg)" stroke="#ffcf4d" stroke-width="1.8" filter="url(#sf)"/>
<rect x="30.0" y="120.0" width="6" height="80" rx="3" fill="#ffcf4d"/>
<g><rect x="47.0" y="146.0" width="30" height="24" rx="3" fill="none" stroke="#ffcf4d" stroke-width="2"/><path d="M53.0,155.0 L58.0,159.0 L53.0,163.0" fill="none" stroke="#ffcf4d" stroke-width="2" stroke-linecap="round" stroke-linejoin="round"/><line x1="61.0" y1="163.0" x2="71.0" y2="163.0" stroke="#ffcf4d" stroke-width="2" stroke-linecap="round"/></g>
<text x="92.0" y="157.0" font-size="16" fill="#e8eefc" font-weight="bold">Operator</text>
<text x="92.0" y="176.0" font-size="12" fill="#8fa3c8">you · AzureAD / SSH</text>
<rect x="452.4" y="56.0" width="190" height="80" rx="11" fill="url(#cg)" stroke="#7fa8ff" stroke-width="1.8" filter="url(#sf)"/>
<rect x="452.4" y="56.0" width="6" height="80" rx="3" fill="#7fa8ff"/>
<g><rect x="470.4" y="83.0" width="28" height="19" rx="2.5" fill="none" stroke="#7fa8ff" stroke-width="2"/><line x1="479.4" y1="102.0" x2="476.4" y2="106.0" stroke="#7fa8ff" stroke-width="2"/><line x1="489.4" y1="102.0" x2="492.4" y2="106.0" stroke="#7fa8ff" stroke-width="2"/><line x1="474.4" y1="106.0" x2="494.4" y2="106.0" stroke="#7fa8ff" stroke-width="2"/></g>
<text x="514.4" y="93.0" font-size="16" fill="#e8eefc" font-weight="bold">Rocinante</text>
<text x="514.4" y="112.0" font-size="12" fill="#8fa3c8">Linux VM</text>
<rect x="452.4" y="194.0" width="190" height="80" rx="11" fill="url(#cg)" stroke="#7fa8ff" stroke-width="1.8" filter="url(#sf)"/>
<rect x="452.4" y="194.0" width="6" height="80" rx="3" fill="#7fa8ff"/>
<g><rect x="470.4" y="221.0" width="28" height="19" rx="2.5" fill="none" stroke="#7fa8ff" stroke-width="2"/><line x1="479.4" y1="240.0" x2="476.4" y2="244.0" stroke="#7fa8ff" stroke-width="2"/><line x1="489.4" y1="240.0" x2="492.4" y2="244.0" stroke="#7fa8ff" stroke-width="2"/><line x1="474.4" y1="244.0" x2="494.4" y2="244.0" stroke="#7fa8ff" stroke-width="2"/></g>
<text x="514.4" y="231.0" font-size="16" fill="#e8eefc" font-weight="bold">Scopuli</text>
<text x="514.4" y="250.0" font-size="12" fill="#8fa3c8">Linux VM</text>
<rect x="315.9" y="99.2" width="60" height="19" rx="9.5" fill="#05070f" stroke="#f3a83a" stroke-width="1" opacity="0.97"/>
<text x="346.0" y="113.2" font-size="11.5" fill="#f3a83a" text-anchor="middle">SSH key</text>
<rect x="315.5" y="203.8" width="60" height="19" rx="9.5" fill="#05070f" stroke="#f3a83a" stroke-width="1" opacity="0.97"/>
<text x="345.6" y="217.8" font-size="11.5" fill="#f3a83a" text-anchor="middle">SSH key</text>
</svg>