<svg xmlns="http://www.w3.org/2000/svg" width="647" height="166" viewBox="0 0 647 166" font-family="monospace">
<defs>
<radialGradient id="bg" cx="50%" cy="38%" r="90%"><stop offset="0%" stop-color="#0b1330"/><stop offset="100%" stop-color="#05070f"/></radialGradient>
<linearGradient id="cg" x1="0" y1="0" x2="0" y2="1"><stop offset="0%" stop-color="#13203f"/><stop offset="100%" stop-color="#0e1730"/></linearGradient>
<filter id="sf" x="-40%" y="-40%" width="180%" height="180%"><feDropShadow dx="0" dy="2" stdDeviation="4" flood-color="#000" flood-opacity="0.5"/></filter>
</defs>
<rect width="647" height="166" fill="url(#bg)"/>
<g><circle cx="585.7" cy="80.5" r="1.0" fill="#cfe0ff" opacity="0.28"/><circle cx="632.2" cy="21.4" r="1.0" fill="#cfe0ff" opacity="0.45"/><circle cx="477.6" cy="7.4" r="1.0" fill="#cfe0ff" opacity="0.27"/><circle cx="173.6" cy="155.4" r="0.7" fill="#cfe0ff" opacity="0.52"/><circle cx="383.9" cy="35.9" r="0.7" fill="#cfe0ff" opacity="0.42"/><circle cx="408.2" cy="87.0" r="0.7" fill="#cfe0ff" opacity="0.56"/><circle cx="185.4" cy="133.0" r="0.5" fill="#cfe0ff" opacity="0.29"/><circle cx="55.4" cy="128.0" r="1.0" fill="#cfe0ff" opacity="0.18"/><circle cx="178.6" cy="36.9" r="0.7" fill="#cfe0ff" opacity="0.16"/><circle cx="523.8" cy="28.5" r="0.5" fill="#cfe0ff" opacity="0.54"/><circle cx="639.4" cy="106.5" r="1.0" fill="#cfe0ff" opacity="0.42"/><circle cx="318.1" cy="123.7" r="0.7" fill="#cfe0ff" opacity="0.37"/><circle cx="453.0" cy="4.0" r="0.5" fill="#cfe0ff" opacity="0.30"/><circle cx="186.1" cy="129.4" r="0.7" fill="#cfe0ff" opacity="0.52"/><circle cx="532.0" cy="129.1" r="0.7" fill="#cfe0ff" opacity="0.33"/><circle cx="221.9" cy="137.5" r="0.7" fill="#cfe0ff" opacity="0.20"/><circle cx="585.7" cy="37.5" r="0.7" fill="#cfe0ff" opacity="0.31"/><circle cx="71.4" cy="140.1" r="1.0" fill="#cfe0ff" opacity="0.25"/><circle cx="2.8" cy="131.5" r="0.5" fill="#cfe0ff" opacity="0.55"/><circle cx="59.0" cy="63.7" r="0.7" fill="#cfe0ff" opacity="0.21"/><circle cx="393.1" cy="150.4" r="0.7" fill="#cfe0ff" opacity="0.36"/><circle cx="405.1" cy="12.3" r="0.5" fill="#cfe0ff" opacity="0.23"/><circle cx="286.2" cy="34.9" r="1.0" fill="#cfe0ff" opacity="0.54"/><circle cx="278.0" cy="1.1" r="0.7" fill="#cfe0ff" opacity="0.19"/><circle cx="35.1" cy="108.2" r="0.5" fill="#cfe0ff" opacity="0.38"/><circle cx="60.3" cy="55.2" r="1.0" fill="#cfe0ff" opacity="0.35"/><circle cx="230.7" cy="117.1" r="0.5" fill="#cfe0ff" opacity="0.53"/><circle cx="104.0" cy="93.4" r="0.7" fill="#cfe0ff" opacity="0.28"/><circle cx="194.1" cy="46.2" r="0.7" fill="#cfe0ff" opacity="0.17"/><circle cx="629.4" cy="86.3" r="0.5" fill="#cfe0ff" opacity="0.49"/><circle cx="516.0" cy="94.9" r="0.7" fill="#cfe0ff" opacity="0.51"/><circle cx="626.6" cy="2.5" r="0.7" fill="#cfe0ff" opacity="0.52"/><circle cx="445.8" cy="147.4" r="0.5" fill="#cfe0ff" opacity="0.31"/><circle cx="223.4" cy="61.8" r="1.0" fill="#cfe0ff" opacity="0.45"/><circle cx="420.1" cy="72.6" r="0.7" fill="#cfe0ff" opacity="0.54"/><circle cx="66.4" cy="130.8" r="0.7" fill="#cfe0ff" opacity="0.26"/><circle cx="454.5" cy="29.9" r="0.5" fill="#cfe0ff" opacity="0.27"/><circle cx="20.7" cy="109.2" r="1.0" fill="#cfe0ff" opacity="0.17"/><circle cx="192.0" cy="146.4" r="1.0" fill="#cfe0ff" opacity="0.16"/><circle cx="646.0" cy="44.4" r="0.5" fill="#cfe0ff" opacity="0.22"/><circle cx="47.1" cy="159.0" r="0.7" fill="#cfe0ff" opacity="0.43"/><circle cx="605.1" cy="133.3" r="0.5" fill="#cfe0ff" opacity="0.30"/><circle cx="594.6" cy="148.8" r="0.7" fill="#cfe0ff" opacity="0.27"/><circle cx="33.7" cy="29.9" r="1.0" fill="#cfe0ff" opacity="0.55"/><circle cx="161.3" cy="142.9" r="1.0" fill="#cfe0ff" opacity="0.50"/><circle cx="329.2" cy="94.0" r="0.5" fill="#cfe0ff" opacity="0.46"/><circle cx="552.4" cy="3.9" r="1.0" fill="#cfe0ff" opacity="0.23"/><circle cx="375.2" cy="58.3" r="0.5" fill="#cfe0ff" opacity="0.27"/><circle cx="582.4" cy="24.8" r="0.5" fill="#cfe0ff" opacity="0.33"/><circle cx="637.6" cy="35.8" r="0.7" fill="#cfe0ff" opacity="0.23"/><circle cx="131.1" cy="97.6" r="0.7" fill="#cfe0ff" opacity="0.47"/><circle cx="15.7" cy="91.8" r="0.5" fill="#cfe0ff" opacity="0.19"/><circle cx="196.9" cy="52.2" r="0.7" fill="#cfe0ff" opacity="0.26"/></g>
<rect x="3" y="3" width="641" height="160" rx="12" fill="none" stroke="#26345c" stroke-width="1.2" opacity="0.7"/>
<path d="M246.4,96.0 Q334.9,72.0 412.8,93.1" fill="none" stroke="#37d6e6" stroke-width="7" opacity="0.12" stroke-linecap="round"/>
<path d="M246.4,96.0 Q334.9,72.0 412.8,93.1" fill="none" stroke="#37d6e6" stroke-width="2.6" stroke-linecap="round"/>
<path d="M423.4,96.0 L410.7,97.0 L415.8,93.9 L412.9,88.8 Z" fill="#37d6e6"/>
<rect x="30.0" y="56.0" width="212" height="80" rx="11" fill="url(#cg)" stroke="#ffcf4d" stroke-width="1.8" filter="url(#sf)"/>
<rect x="30.0" y="56.0" width="6" height="80" rx="3" fill="#ffcf4d"/>
<g><circle cx="61.999999999999986" cy="94.0" r="13" fill="none" stroke="#ffcf4d" stroke-width="2"/><ellipse cx="61.999999999999986" cy="94.0" rx="5.5" ry="13" fill="none" stroke="#ffcf4d" stroke-width="1.5"/><line x1="48.999999999999986" y1="94.0" x2="74.99999999999999" y2="94.0" stroke="#ffcf4d" stroke-width="1.5"/></g>
<text x="92.0" y="93.0" font-size="16" fill="#e8eefc" font-weight="bold">Tycho Terminal</text>
<text x="92.0" y="112.0" font-size="12" fill="#8fa3c8">App Service</text>
<rect x="427.4" y="56.0" width="190" height="80" rx="11" fill="url(#cg)" stroke="#37d6e6" stroke-width="1.8" filter="url(#sf)"/>
<rect x="427.4" y="56.0" width="6" height="80" rx="3" fill="#37d6e6"/>
<g><ellipse cx="459.4" cy="84.0" rx="13" ry="4.5" fill="none" stroke="#37d6e6" stroke-width="2"/><path d="M446.4,84.0 V104.0 A13,4.5 0 0 0 472.4,104.0 V84.0" fill="none" stroke="#37d6e6" stroke-width="2"/><ellipse cx="459.4" cy="94.0" rx="13" ry="4.5" fill="none" stroke="#37d6e6" stroke-width="1.2" opacity="0.7"/></g>
<text x="489.4" y="93.0" font-size="16" fill="#e8eefc" font-weight="bold">tycho-db</text>
<text x="489.4" y="112.0" font-size="12" fill="#8fa3c8">Azure SQL</text>
<rect x="314.7" y="73.0" width="40" height="19" rx="9.5" fill="#05070f" stroke="#37d6e6" stroke-width="1" opacity="0.97"/>
<text x="334.9" y="87.0" font-size="11.5" fill="#37d6e6" text-anchor="middle">SSRF</text>
</svg>