<svg xmlns="http://www.w3.org/2000/svg" width="647" height="166" viewBox="0 0 647 166" font-family="monospace">
<defs>
<radialGradient id="bg" cx="50%" cy="38%" r="90%"><stop offset="0%" stop-color="#0b1330"/><stop offset="100%" stop-color="#05070f"/></radialGradient>
<linearGradient id="cg" x1="0" y1="0" x2="0" y2="1"><stop offset="0%" stop-color="#13203f"/><stop offset="100%" stop-color="#0e1730"/></linearGradient>
<filter id="sf" x="-40%" y="-40%" width="180%" height="180%"><feDropShadow dx="0" dy="2" stdDeviation="4" flood-color="#000" flood-opacity="0.5"/></filter>
</defs>
<rect width="647" height="166" fill="url(#bg)"/>
<g><circle cx="310.7" cy="24.2" r="0.5" fill="#cfe0ff" opacity="0.24"/><circle cx="559.6" cy="112.0" r="1.0" fill="#cfe0ff" opacity="0.18"/><circle cx="529.4" cy="140.3" r="0.5" fill="#cfe0ff" opacity="0.44"/><circle cx="457.5" cy="59.7" r="1.0" fill="#cfe0ff" opacity="0.40"/><circle cx="50.6" cy="20.7" r="1.0" fill="#cfe0ff" opacity="0.32"/><circle cx="259.1" cy="145.9" r="0.7" fill="#cfe0ff" opacity="0.45"/><circle cx="448.9" cy="50.5" r="1.0" fill="#cfe0ff" opacity="0.49"/><circle cx="534.7" cy="162.4" r="0.7" fill="#cfe0ff" opacity="0.44"/><circle cx="192.9" cy="60.3" r="1.0" fill="#cfe0ff" opacity="0.44"/><circle cx="622.2" cy="95.1" r="1.0" fill="#cfe0ff" opacity="0.52"/><circle cx="45.7" cy="65.1" r="0.7" fill="#cfe0ff" opacity="0.58"/><circle cx="84.7" cy="10.5" r="1.0" fill="#cfe0ff" opacity="0.53"/><circle cx="31.3" cy="57.5" r="0.7" fill="#cfe0ff" opacity="0.30"/><circle cx="173.6" cy="107.3" r="0.7" fill="#cfe0ff" opacity="0.49"/><circle cx="522.4" cy="56.1" r="0.7" fill="#cfe0ff" opacity="0.24"/><circle cx="505.8" cy="61.2" r="1.0" fill="#cfe0ff" opacity="0.27"/><circle cx="170.3" cy="120.2" r="1.0" fill="#cfe0ff" opacity="0.34"/><circle cx="627.4" cy="16.3" r="0.7" fill="#cfe0ff" opacity="0.17"/><circle cx="193.4" cy="26.9" r="0.5" fill="#cfe0ff" opacity="0.35"/><circle cx="256.4" cy="99.1" r="0.7" fill="#cfe0ff" opacity="0.19"/><circle cx="11.0" cy="54.8" r="0.7" fill="#cfe0ff" opacity="0.53"/><circle cx="275.1" cy="108.1" r="0.7" fill="#cfe0ff" opacity="0.37"/><circle cx="400.6" cy="87.5" r="1.0" fill="#cfe0ff" opacity="0.25"/><circle cx="136.9" cy="138.1" r="0.5" fill="#cfe0ff" opacity="0.35"/><circle cx="416.2" cy="93.2" r="0.5" fill="#cfe0ff" opacity="0.25"/><circle cx="73.8" cy="67.8" r="0.7" fill="#cfe0ff" opacity="0.56"/><circle cx="223.7" cy="64.1" r="0.7" fill="#cfe0ff" opacity="0.39"/><circle cx="283.7" cy="124.5" r="1.0" fill="#cfe0ff" opacity="0.23"/><circle cx="553.3" cy="79.0" r="1.0" fill="#cfe0ff" opacity="0.48"/><circle cx="250.8" cy="88.6" r="1.0" fill="#cfe0ff" opacity="0.43"/><circle cx="311.0" cy="86.5" r="1.0" fill="#cfe0ff" opacity="0.36"/><circle cx="306.6" cy="128.9" r="0.7" fill="#cfe0ff" opacity="0.35"/><circle cx="119.7" cy="88.4" r="1.0" fill="#cfe0ff" opacity="0.52"/><circle cx="18.0" cy="106.7" r="1.0" fill="#cfe0ff" opacity="0.35"/><circle cx="381.1" cy="158.2" r="0.5" fill="#cfe0ff" opacity="0.22"/><circle cx="128.7" cy="101.0" r="1.0" fill="#cfe0ff" opacity="0.35"/><circle cx="287.5" cy="32.5" r="0.5" fill="#cfe0ff" opacity="0.34"/><circle cx="609.5" cy="136.8" r="1.0" fill="#cfe0ff" opacity="0.25"/><circle cx="313.9" cy="83.1" r="0.7" fill="#cfe0ff" opacity="0.57"/><circle cx="365.4" cy="131.5" r="0.7" fill="#cfe0ff" opacity="0.31"/><circle cx="548.9" cy="21.1" r="0.5" fill="#cfe0ff" opacity="0.37"/><circle cx="7.5" cy="56.8" r="0.7" fill="#cfe0ff" opacity="0.19"/><circle cx="270.3" cy="86.3" r="1.0" fill="#cfe0ff" opacity="0.52"/><circle cx="43.7" cy="59.9" r="0.5" fill="#cfe0ff" opacity="0.60"/><circle cx="424.9" cy="85.1" r="0.5" fill="#cfe0ff" opacity="0.25"/><circle cx="86.1" cy="41.2" r="0.5" fill="#cfe0ff" opacity="0.42"/><circle cx="636.6" cy="70.3" r="0.7" fill="#cfe0ff" opacity="0.46"/><circle cx="369.4" cy="161.8" r="0.5" fill="#cfe0ff" opacity="0.41"/><circle cx="221.6" cy="122.2" r="1.0" fill="#cfe0ff" opacity="0.24"/><circle cx="56.8" cy="123.2" r="0.5" fill="#cfe0ff" opacity="0.18"/><circle cx="573.9" cy="116.2" r="0.5" fill="#cfe0ff" opacity="0.31"/><circle cx="339.0" cy="164.0" r="0.7" fill="#cfe0ff" opacity="0.42"/><circle cx="342.9" cy="28.1" r="1.0" fill="#cfe0ff" opacity="0.54"/></g>
<rect x="3" y="3" width="641" height="160" rx="12" fill="none" stroke="#26345c" stroke-width="1.2" opacity="0.7"/>
<path d="M246.4,96.0 Q334.9,72.0 412.8,93.1" fill="none" stroke="#37d6e6" stroke-width="7" opacity="0.12" stroke-linecap="round"/>
<path d="M246.4,96.0 Q334.9,72.0 412.8,93.1" fill="none" stroke="#37d6e6" stroke-width="2.6" stroke-linecap="round"/>
<path d="M423.4,96.0 L410.7,97.0 L415.8,93.9 L412.9,88.8 Z" fill="#37d6e6"/>
<rect x="30.0" y="56.0" width="212" height="80" rx="11" fill="url(#cg)" stroke="#ffcf4d" stroke-width="1.8" filter="url(#sf)"/>
<rect x="30.0" y="56.0" width="6" height="80" rx="3" fill="#ffcf4d"/>
<g><circle cx="61.999999999999986" cy="94.0" r="13" fill="none" stroke="#ffcf4d" stroke-width="2"/><ellipse cx="61.999999999999986" cy="94.0" rx="5.5" ry="13" fill="none" stroke="#ffcf4d" stroke-width="1.5"/><line x1="48.999999999999986" y1="94.0" x2="74.99999999999999" y2="94.0" stroke="#ffcf4d" stroke-width="1.5"/></g>
<text x="92.0" y="93.0" font-size="16" fill="#e8eefc" font-weight="bold">Tycho Terminal</text>
<text x="92.0" y="112.0" font-size="12" fill="#8fa3c8">App Service</text>
<rect x="427.4" y="56.0" width="190" height="80" rx="11" fill="url(#cg)" stroke="#37d6e6" stroke-width="1.8" filter="url(#sf)"/>
<rect x="427.4" y="56.0" width="6" height="80" rx="3" fill="#37d6e6"/>
<g><ellipse cx="459.4" cy="84.0" rx="13" ry="4.5" fill="none" stroke="#37d6e6" stroke-width="2"/><path d="M446.4,84.0 V104.0 A13,4.5 0 0 0 472.4,104.0 V84.0" fill="none" stroke="#37d6e6" stroke-width="2"/><ellipse cx="459.4" cy="94.0" rx="13" ry="4.5" fill="none" stroke="#37d6e6" stroke-width="1.2" opacity="0.7"/></g>
<text x="489.4" y="93.0" font-size="16" fill="#e8eefc" font-weight="bold">tycho-db</text>
<text x="489.4" y="112.0" font-size="12" fill="#8fa3c8">Azure SQL</text>
<rect x="314.7" y="73.0" width="40" height="19" rx="9.5" fill="#05070f" stroke="#37d6e6" stroke-width="1" opacity="0.97"/>
<text x="334.9" y="87.0" font-size="11.5" fill="#37d6e6" text-anchor="middle">SSRF</text>
</svg>