<svg xmlns="http://www.w3.org/2000/svg" width="1040" height="166" viewBox="0 0 1040 166" font-family="monospace">
<defs>
<radialGradient id="bg" cx="50%" cy="38%" r="90%"><stop offset="0%" stop-color="#0b1330"/><stop offset="100%" stop-color="#05070f"/></radialGradient>
<linearGradient id="cg" x1="0" y1="0" x2="0" y2="1"><stop offset="0%" stop-color="#13203f"/><stop offset="100%" stop-color="#0e1730"/></linearGradient>
<filter id="sf" x="-40%" y="-40%" width="180%" height="180%"><feDropShadow dx="0" dy="2" stdDeviation="4" flood-color="#000" flood-opacity="0.5"/></filter>
</defs>
<rect width="1040" height="166" fill="url(#bg)"/>
<g><circle cx="861.4" cy="55.4" r="0.7" fill="#cfe0ff" opacity="0.25"/><circle cx="597.1" cy="149.5" r="1.0" fill="#cfe0ff" opacity="0.23"/><circle cx="5.5" cy="29.7" r="0.5" fill="#cfe0ff" opacity="0.24"/><circle cx="485.4" cy="44.6" r="1.0" fill="#cfe0ff" opacity="0.41"/><circle cx="659.6" cy="86.5" r="1.0" fill="#cfe0ff" opacity="0.20"/><circle cx="922.1" cy="2.3" r="1.0" fill="#cfe0ff" opacity="0.18"/><circle cx="733.5" cy="23.6" r="1.0" fill="#cfe0ff" opacity="0.16"/><circle cx="78.2" cy="129.8" r="1.0" fill="#cfe0ff" opacity="0.53"/><circle cx="471.4" cy="36.2" r="0.5" fill="#cfe0ff" opacity="0.32"/><circle cx="633.0" cy="39.9" r="0.7" fill="#cfe0ff" opacity="0.19"/><circle cx="542.0" cy="18.0" r="0.5" fill="#cfe0ff" opacity="0.30"/><circle cx="633.1" cy="161.7" r="0.7" fill="#cfe0ff" opacity="0.20"/><circle cx="119.7" cy="39.4" r="0.5" fill="#cfe0ff" opacity="0.28"/><circle cx="714.1" cy="60.3" r="0.5" fill="#cfe0ff" opacity="0.34"/><circle cx="1017.7" cy="24.7" r="1.0" fill="#cfe0ff" opacity="0.18"/><circle cx="876.5" cy="109.9" r="0.5" fill="#cfe0ff" opacity="0.39"/><circle cx="351.1" cy="68.5" r="1.0" fill="#cfe0ff" opacity="0.35"/><circle cx="236.2" cy="71.8" r="0.7" fill="#cfe0ff" opacity="0.46"/><circle cx="48.0" cy="80.1" r="0.7" fill="#cfe0ff" opacity="0.36"/><circle cx="468.5" cy="86.0" r="0.5" fill="#cfe0ff" opacity="0.51"/><circle cx="1015.0" cy="89.5" r="0.7" fill="#cfe0ff" opacity="0.32"/><circle cx="438.0" cy="18.1" r="1.0" fill="#cfe0ff" opacity="0.20"/><circle cx="590.6" cy="142.9" r="0.5" fill="#cfe0ff" opacity="0.31"/><circle cx="236.5" cy="121.4" r="0.7" fill="#cfe0ff" opacity="0.52"/><circle cx="405.8" cy="68.2" r="0.7" fill="#cfe0ff" opacity="0.42"/><circle cx="353.4" cy="91.7" r="0.7" fill="#cfe0ff" opacity="0.59"/><circle cx="112.3" cy="76.1" r="0.5" fill="#cfe0ff" opacity="0.36"/><circle cx="463.0" cy="116.0" r="0.5" fill="#cfe0ff" opacity="0.18"/><circle cx="72.3" cy="68.6" r="1.0" fill="#cfe0ff" opacity="0.19"/><circle cx="669.8" cy="2.7" r="1.0" fill="#cfe0ff" opacity="0.47"/><circle cx="1001.0" cy="127.0" r="0.5" fill="#cfe0ff" opacity="0.20"/><circle cx="810.7" cy="102.3" r="0.7" fill="#cfe0ff" opacity="0.54"/><circle cx="826.2" cy="128.1" r="1.0" fill="#cfe0ff" opacity="0.48"/><circle cx="712.4" cy="31.7" r="0.5" fill="#cfe0ff" opacity="0.51"/><circle cx="902.1" cy="86.8" r="0.5" fill="#cfe0ff" opacity="0.56"/><circle cx="209.7" cy="81.4" r="1.0" fill="#cfe0ff" opacity="0.21"/><circle cx="556.6" cy="55.5" r="0.5" fill="#cfe0ff" opacity="0.51"/><circle cx="865.5" cy="140.7" r="0.5" fill="#cfe0ff" opacity="0.42"/><circle cx="1022.7" cy="100.9" r="0.5" fill="#cfe0ff" opacity="0.23"/><circle cx="43.8" cy="68.7" r="0.7" fill="#cfe0ff" opacity="0.22"/><circle cx="808.1" cy="11.9" r="0.5" fill="#cfe0ff" opacity="0.38"/><circle cx="817.6" cy="136.7" r="1.0" fill="#cfe0ff" opacity="0.37"/><circle cx="901.7" cy="142.3" r="1.0" fill="#cfe0ff" opacity="0.39"/><circle cx="791.2" cy="93.5" r="1.0" fill="#cfe0ff" opacity="0.37"/><circle cx="102.5" cy="17.7" r="1.0" fill="#cfe0ff" opacity="0.27"/><circle cx="286.5" cy="45.7" r="0.7" fill="#cfe0ff" opacity="0.52"/><circle cx="880.5" cy="58.2" r="0.7" fill="#cfe0ff" opacity="0.54"/><circle cx="648.1" cy="138.8" r="1.0" fill="#cfe0ff" opacity="0.52"/><circle cx="205.7" cy="1.9" r="1.0" fill="#cfe0ff" opacity="0.32"/><circle cx="776.8" cy="61.4" r="0.7" fill="#cfe0ff" opacity="0.52"/><circle cx="43.5" cy="114.4" r="0.5" fill="#cfe0ff" opacity="0.39"/><circle cx="880.3" cy="49.6" r="0.7" fill="#cfe0ff" opacity="0.51"/><circle cx="633.7" cy="116.9" r="0.7" fill="#cfe0ff" opacity="0.44"/><circle cx="723.2" cy="65.2" r="1.0" fill="#cfe0ff" opacity="0.42"/><circle cx="450.2" cy="116.7" r="0.5" fill="#cfe0ff" opacity="0.22"/><circle cx="441.9" cy="31.5" r="0.7" fill="#cfe0ff" opacity="0.29"/><circle cx="978.2" cy="131.7" r="0.7" fill="#cfe0ff" opacity="0.34"/><circle cx="841.7" cy="96.3" r="0.5" fill="#cfe0ff" opacity="0.40"/><circle cx="698.9" cy="141.2" r="1.0" fill="#cfe0ff" opacity="0.27"/><circle cx="441.9" cy="39.2" r="0.5" fill="#cfe0ff" opacity="0.53"/><circle cx="929.2" cy="114.9" r="0.7" fill="#cfe0ff" opacity="0.43"/><circle cx="856.2" cy="101.6" r="1.0" fill="#cfe0ff" opacity="0.26"/><circle cx="442.9" cy="118.5" r="0.5" fill="#cfe0ff" opacity="0.27"/><circle cx="983.9" cy="57.0" r="0.7" fill="#cfe0ff" opacity="0.33"/><circle cx="382.6" cy="58.7" r="1.0" fill="#cfe0ff" opacity="0.43"/><circle cx="668.2" cy="27.3" r="0.7" fill="#cfe0ff" opacity="0.40"/><circle cx="15.5" cy="32.5" r="0.5" fill="#cfe0ff" opacity="0.43"/><circle cx="39.1" cy="86.7" r="0.7" fill="#cfe0ff" opacity="0.59"/><circle cx="163.6" cy="37.3" r="0.7" fill="#cfe0ff" opacity="0.18"/><circle cx="323.2" cy="46.1" r="0.5" fill="#cfe0ff" opacity="0.20"/><circle cx="519.9" cy="76.4" r="0.7" fill="#cfe0ff" opacity="0.37"/><circle cx="526.2" cy="0.6" r="0.7" fill="#cfe0ff" opacity="0.38"/><circle cx="1014.6" cy="41.0" r="0.7" fill="#cfe0ff" opacity="0.17"/><circle cx="90.5" cy="21.4" r="1.0" fill="#cfe0ff" opacity="0.24"/><circle cx="615.7" cy="17.3" r="1.0" fill="#cfe0ff" opacity="0.33"/><circle cx="932.5" cy="138.1" r="0.7" fill="#cfe0ff" opacity="0.31"/><circle cx="938.4" cy="134.9" r="0.5" fill="#cfe0ff" opacity="0.34"/><circle cx="699.6" cy="55.3" r="1.0" fill="#cfe0ff" opacity="0.56"/><circle cx="5.8" cy="105.2" r="1.0" fill="#cfe0ff" opacity="0.39"/><circle cx="441.2" cy="155.5" r="0.5" fill="#cfe0ff" opacity="0.27"/><circle cx="797.0" cy="33.0" r="0.7" fill="#cfe0ff" opacity="0.48"/><circle cx="946.7" cy="144.9" r="1.0" fill="#cfe0ff" opacity="0.43"/><circle cx="796.3" cy="63.4" r="1.0" fill="#cfe0ff" opacity="0.55"/><circle cx="990.1" cy="26.9" r="0.7" fill="#cfe0ff" opacity="0.40"/><circle cx="206.5" cy="31.2" r="1.0" fill="#cfe0ff" opacity="0.19"/><circle cx="798.8" cy="98.3" r="0.5" fill="#cfe0ff" opacity="0.18"/></g>
<rect x="3" y="3" width="1034" height="160" rx="12" fill="none" stroke="#26345c" stroke-width="1.2" opacity="0.7"/>
<path d="M246.4,96.0 Q334.9,72.0 412.8,93.1" fill="none" stroke="#f3a83a" stroke-width="7" opacity="0.12" stroke-linecap="round"/>
<path d="M246.4,96.0 Q334.9,72.0 412.8,93.1" fill="none" stroke="#f3a83a" stroke-width="2.6" stroke-linecap="round"/>
<path d="M423.4,96.0 L410.7,97.0 L415.8,93.9 L412.9,88.8 Z" fill="#f3a83a"/>
<path d="M621.4,96.0 Q709.9,72.0 787.8,93.1" fill="none" stroke="#f3a83a" stroke-width="7" opacity="0.12" stroke-linecap="round"/>
<path d="M621.4,96.0 Q709.9,72.0 787.8,93.1" fill="none" stroke="#f3a83a" stroke-width="2.6" stroke-linecap="round"/>
<path d="M798.4,96.0 L785.7,97.0 L790.8,93.9 L787.9,88.8 Z" fill="#f3a83a"/>
<rect x="30.0" y="56.0" width="212" height="80" rx="11" fill="url(#cg)" stroke="#ffcf4d" stroke-width="1.8" filter="url(#sf)"/>
<rect x="30.0" y="56.0" width="6" height="80" rx="3" fill="#ffcf4d"/>
<g><circle cx="61.999999999999986" cy="94.0" r="13" fill="none" stroke="#ffcf4d" stroke-width="2"/><ellipse cx="61.999999999999986" cy="94.0" rx="5.5" ry="13" fill="none" stroke="#ffcf4d" stroke-width="1.5"/><line x1="48.999999999999986" y1="94.0" x2="74.99999999999999" y2="94.0" stroke="#ffcf4d" stroke-width="1.5"/></g>
<text x="92.0" y="93.0" font-size="16" fill="#e8eefc" font-weight="bold">Tycho Terminal</text>
<text x="92.0" y="112.0" font-size="12" fill="#8fa3c8">App Service</text>
<rect x="427.4" y="56.0" width="190" height="80" rx="11" fill="url(#cg)" stroke="#ef7c28" stroke-width="1.8" filter="url(#sf)"/>
<rect x="427.4" y="56.0" width="6" height="80" rx="3" fill="#ef7c28"/>
<g><rect x="446.4" y="82.0" width="26" height="24" rx="3" fill="none" stroke="#ef7c28" stroke-width="2"/><line x1="446.4" y1="88.0" x2="472.4" y2="88.0" stroke="#ef7c28" stroke-width="1.1" opacity="0.7"/><line x1="446.4" y1="94.0" x2="472.4" y2="94.0" stroke="#ef7c28" stroke-width="1.1" opacity="0.7"/><line x1="446.4" y1="100.0" x2="472.4" y2="100.0" stroke="#ef7c28" stroke-width="1.1" opacity="0.7"/></g>
<text x="489.4" y="93.0" font-size="16" fill="#e8eefc" font-weight="bold">labpallas</text>
<text x="489.4" y="112.0" font-size="12" fill="#8fa3c8">Storage account</text>
<rect x="802.4" y="56.0" width="208" height="80" rx="11" fill="url(#cg)" stroke="#b9a7ff" stroke-width="1.8" filter="url(#sf)"/>
<rect x="802.4" y="56.0" width="6" height="80" rx="3" fill="#b9a7ff"/>
<g><circle cx="834.4000000000001" cy="88.0" r="5.5" fill="none" stroke="#b9a7ff" stroke-width="2"/><path d="M824.4000000000001,106.0 a10,10 0 0 1 20,0" fill="none" stroke="#b9a7ff" stroke-width="2"/></g>
<text x="864.4" y="93.0" font-size="16" fill="#e8eefc" font-weight="bold">Alex · Jim</text>
<text x="864.4" y="112.0" font-size="12" fill="#8fa3c8">Service Principals</text>
<rect x="271.8" y="73.0" width="126" height="19" rx="9.5" fill="#05070f" stroke="#f3a83a" stroke-width="1" opacity="0.97"/>
<text x="334.9" y="87.0" font-size="11.5" fill="#f3a83a" text-anchor="middle">storage info leak</text>
<rect x="653.4" y="73.0" width="113" height="19" rx="9.5" fill="#05070f" stroke="#f3a83a" stroke-width="1" opacity="0.97"/>
<text x="709.9" y="87.0" font-size="11.5" fill="#f3a83a" text-anchor="middle">credential leak</text>
</svg>