<svg xmlns="http://www.w3.org/2000/svg" width="1040" height="166" viewBox="0 0 1040 166" font-family="monospace">
<defs>
<radialGradient id="bg" cx="50%" cy="38%" r="90%"><stop offset="0%" stop-color="#0b1330"/><stop offset="100%" stop-color="#05070f"/></radialGradient>
<linearGradient id="cg" x1="0" y1="0" x2="0" y2="1"><stop offset="0%" stop-color="#13203f"/><stop offset="100%" stop-color="#0e1730"/></linearGradient>
<filter id="sf" x="-40%" y="-40%" width="180%" height="180%"><feDropShadow dx="0" dy="2" stdDeviation="4" flood-color="#000" flood-opacity="0.5"/></filter>
</defs>
<rect width="1040" height="166" fill="url(#bg)"/>
<g><circle cx="878.1" cy="93.3" r="0.7" fill="#cfe0ff" opacity="0.48"/><circle cx="693.0" cy="117.1" r="0.5" fill="#cfe0ff" opacity="0.32"/><circle cx="196.8" cy="63.8" r="0.7" fill="#cfe0ff" opacity="0.30"/><circle cx="344.8" cy="13.7" r="0.7" fill="#cfe0ff" opacity="0.56"/><circle cx="149.8" cy="138.0" r="0.5" fill="#cfe0ff" opacity="0.26"/><circle cx="162.4" cy="112.4" r="0.7" fill="#cfe0ff" opacity="0.34"/><circle cx="374.9" cy="18.6" r="0.5" fill="#cfe0ff" opacity="0.37"/><circle cx="825.8" cy="124.0" r="0.5" fill="#cfe0ff" opacity="0.43"/><circle cx="22.5" cy="116.9" r="0.5" fill="#cfe0ff" opacity="0.39"/><circle cx="7.0" cy="56.6" r="0.7" fill="#cfe0ff" opacity="0.51"/><circle cx="40.1" cy="162.4" r="0.7" fill="#cfe0ff" opacity="0.58"/><circle cx="870.0" cy="59.8" r="0.5" fill="#cfe0ff" opacity="0.29"/><circle cx="840.6" cy="139.8" r="0.5" fill="#cfe0ff" opacity="0.58"/><circle cx="836.7" cy="98.1" r="0.7" fill="#cfe0ff" opacity="0.45"/><circle cx="5.6" cy="123.2" r="0.7" fill="#cfe0ff" opacity="0.50"/><circle cx="953.8" cy="117.6" r="0.5" fill="#cfe0ff" opacity="0.43"/><circle cx="644.0" cy="30.1" r="1.0" fill="#cfe0ff" opacity="0.28"/><circle cx="712.9" cy="20.8" r="0.7" fill="#cfe0ff" opacity="0.33"/><circle cx="499.3" cy="20.6" r="0.7" fill="#cfe0ff" opacity="0.29"/><circle cx="564.2" cy="127.9" r="1.0" fill="#cfe0ff" opacity="0.15"/><circle cx="757.2" cy="16.2" r="0.5" fill="#cfe0ff" opacity="0.47"/><circle cx="205.6" cy="5.5" r="0.7" fill="#cfe0ff" opacity="0.53"/><circle cx="626.9" cy="165.4" r="0.7" fill="#cfe0ff" opacity="0.47"/><circle cx="330.4" cy="85.6" r="1.0" fill="#cfe0ff" opacity="0.56"/><circle cx="919.9" cy="36.0" r="1.0" fill="#cfe0ff" opacity="0.25"/><circle cx="930.7" cy="145.3" r="0.5" fill="#cfe0ff" opacity="0.44"/><circle cx="1005.6" cy="31.8" r="0.5" fill="#cfe0ff" opacity="0.25"/><circle cx="482.4" cy="5.7" r="1.0" fill="#cfe0ff" opacity="0.29"/><circle cx="634.6" cy="69.5" r="0.5" fill="#cfe0ff" opacity="0.35"/><circle cx="239.1" cy="132.2" r="0.7" fill="#cfe0ff" opacity="0.57"/><circle cx="52.0" cy="102.2" r="0.7" fill="#cfe0ff" opacity="0.56"/><circle cx="921.0" cy="88.8" r="0.7" fill="#cfe0ff" opacity="0.48"/><circle cx="657.9" cy="16.0" r="1.0" fill="#cfe0ff" opacity="0.47"/><circle cx="834.3" cy="76.5" r="1.0" fill="#cfe0ff" opacity="0.49"/><circle cx="675.3" cy="30.8" r="0.7" fill="#cfe0ff" opacity="0.47"/><circle cx="545.8" cy="100.7" r="0.7" fill="#cfe0ff" opacity="0.26"/><circle cx="797.6" cy="83.3" r="0.5" fill="#cfe0ff" opacity="0.46"/><circle cx="124.1" cy="117.0" r="1.0" fill="#cfe0ff" opacity="0.19"/><circle cx="693.0" cy="14.4" r="0.5" fill="#cfe0ff" opacity="0.36"/><circle cx="773.1" cy="0.5" r="0.7" fill="#cfe0ff" opacity="0.34"/><circle cx="1011.7" cy="81.9" r="0.5" fill="#cfe0ff" opacity="0.30"/><circle cx="111.4" cy="27.8" r="1.0" fill="#cfe0ff" opacity="0.53"/><circle cx="257.6" cy="61.2" r="0.7" fill="#cfe0ff" opacity="0.58"/><circle cx="721.2" cy="14.6" r="0.5" fill="#cfe0ff" opacity="0.16"/><circle cx="915.7" cy="67.3" r="1.0" fill="#cfe0ff" opacity="0.49"/><circle cx="426.3" cy="145.9" r="0.7" fill="#cfe0ff" opacity="0.21"/><circle cx="702.1" cy="116.5" r="0.5" fill="#cfe0ff" opacity="0.23"/><circle cx="579.0" cy="11.7" r="0.5" fill="#cfe0ff" opacity="0.45"/><circle cx="870.4" cy="152.6" r="0.7" fill="#cfe0ff" opacity="0.56"/><circle cx="328.9" cy="141.7" r="0.5" fill="#cfe0ff" opacity="0.49"/><circle cx="52.7" cy="85.3" r="0.5" fill="#cfe0ff" opacity="0.18"/><circle cx="229.9" cy="151.3" r="1.0" fill="#cfe0ff" opacity="0.39"/><circle cx="608.8" cy="87.0" r="1.0" fill="#cfe0ff" opacity="0.20"/><circle cx="862.2" cy="137.1" r="1.0" fill="#cfe0ff" opacity="0.27"/><circle cx="316.0" cy="66.5" r="0.5" fill="#cfe0ff" opacity="0.38"/><circle cx="718.0" cy="68.9" r="1.0" fill="#cfe0ff" opacity="0.58"/><circle cx="451.5" cy="90.7" r="1.0" fill="#cfe0ff" opacity="0.49"/><circle cx="22.7" cy="55.3" r="0.7" fill="#cfe0ff" opacity="0.57"/><circle cx="579.1" cy="97.7" r="1.0" fill="#cfe0ff" opacity="0.52"/><circle cx="86.1" cy="102.2" r="0.7" fill="#cfe0ff" opacity="0.29"/><circle cx="843.9" cy="73.0" r="0.5" fill="#cfe0ff" opacity="0.49"/><circle cx="368.8" cy="148.0" r="0.5" fill="#cfe0ff" opacity="0.33"/><circle cx="435.8" cy="37.1" r="0.5" fill="#cfe0ff" opacity="0.19"/><circle cx="365.4" cy="159.8" r="0.5" fill="#cfe0ff" opacity="0.52"/><circle cx="354.6" cy="145.8" r="0.7" fill="#cfe0ff" opacity="0.42"/><circle cx="868.0" cy="66.2" r="0.5" fill="#cfe0ff" opacity="0.51"/><circle cx="52.2" cy="159.0" r="0.7" fill="#cfe0ff" opacity="0.33"/><circle cx="162.1" cy="98.1" r="0.7" fill="#cfe0ff" opacity="0.34"/><circle cx="751.2" cy="112.3" r="0.7" fill="#cfe0ff" opacity="0.31"/><circle cx="727.3" cy="28.8" r="0.5" fill="#cfe0ff" opacity="0.21"/><circle cx="136.4" cy="49.4" r="1.0" fill="#cfe0ff" opacity="0.40"/><circle cx="843.1" cy="79.9" r="1.0" fill="#cfe0ff" opacity="0.53"/><circle cx="558.3" cy="152.8" r="0.7" fill="#cfe0ff" opacity="0.45"/><circle cx="859.2" cy="66.6" r="0.5" fill="#cfe0ff" opacity="0.17"/><circle cx="620.4" cy="51.2" r="0.7" fill="#cfe0ff" opacity="0.42"/><circle cx="538.2" cy="85.1" r="0.7" fill="#cfe0ff" opacity="0.60"/><circle cx="546.5" cy="109.6" r="0.5" fill="#cfe0ff" opacity="0.57"/><circle cx="828.3" cy="39.2" r="1.0" fill="#cfe0ff" opacity="0.53"/><circle cx="233.5" cy="61.9" r="0.7" fill="#cfe0ff" opacity="0.47"/><circle cx="418.0" cy="129.0" r="1.0" fill="#cfe0ff" opacity="0.36"/><circle cx="470.7" cy="25.6" r="0.5" fill="#cfe0ff" opacity="0.25"/><circle cx="187.0" cy="12.3" r="0.5" fill="#cfe0ff" opacity="0.26"/><circle cx="185.0" cy="36.7" r="0.5" fill="#cfe0ff" opacity="0.34"/><circle cx="804.7" cy="109.9" r="0.7" fill="#cfe0ff" opacity="0.50"/><circle cx="851.7" cy="73.8" r="0.7" fill="#cfe0ff" opacity="0.16"/><circle cx="542.1" cy="26.4" r="0.7" fill="#cfe0ff" opacity="0.22"/></g>
<rect x="3" y="3" width="1034" height="160" rx="12" fill="none" stroke="#26345c" stroke-width="1.2" opacity="0.7"/>
<path d="M246.4,96.0 Q334.9,72.0 412.8,93.1" fill="none" stroke="#f3a83a" stroke-width="7" opacity="0.12" stroke-linecap="round"/>
<path d="M246.4,96.0 Q334.9,72.0 412.8,93.1" fill="none" stroke="#f3a83a" stroke-width="2.6" stroke-linecap="round"/>
<path d="M423.4,96.0 L410.7,97.0 L415.8,93.9 L412.9,88.8 Z" fill="#f3a83a"/>
<path d="M621.4,96.0 Q709.9,72.0 787.8,93.1" fill="none" stroke="#f3a83a" stroke-width="7" opacity="0.12" stroke-linecap="round"/>
<path d="M621.4,96.0 Q709.9,72.0 787.8,93.1" fill="none" stroke="#f3a83a" stroke-width="2.6" stroke-linecap="round"/>
<path d="M798.4,96.0 L785.7,97.0 L790.8,93.9 L787.9,88.8 Z" fill="#f3a83a"/>
<rect x="30.0" y="56.0" width="212" height="80" rx="11" fill="url(#cg)" stroke="#ffcf4d" stroke-width="1.8" filter="url(#sf)"/>
<rect x="30.0" y="56.0" width="6" height="80" rx="3" fill="#ffcf4d"/>
<g><circle cx="61.999999999999986" cy="94.0" r="13" fill="none" stroke="#ffcf4d" stroke-width="2"/><ellipse cx="61.999999999999986" cy="94.0" rx="5.5" ry="13" fill="none" stroke="#ffcf4d" stroke-width="1.5"/><line x1="48.999999999999986" y1="94.0" x2="74.99999999999999" y2="94.0" stroke="#ffcf4d" stroke-width="1.5"/></g>
<text x="92.0" y="93.0" font-size="16" fill="#e8eefc" font-weight="bold">Tycho Terminal</text>
<text x="92.0" y="112.0" font-size="12" fill="#8fa3c8">App Service</text>
<rect x="427.4" y="56.0" width="190" height="80" rx="11" fill="url(#cg)" stroke="#f3a83a" stroke-width="1.8" filter="url(#sf)"/>
<rect x="427.4" y="56.0" width="6" height="80" rx="3" fill="#f3a83a"/>
<g><rect x="446.4" y="82.0" width="26" height="24" rx="3" fill="none" stroke="#f3a83a" stroke-width="2"/><line x1="446.4" y1="88.0" x2="472.4" y2="88.0" stroke="#f3a83a" stroke-width="1.1" opacity="0.7"/><line x1="446.4" y1="94.0" x2="472.4" y2="94.0" stroke="#f3a83a" stroke-width="1.1" opacity="0.7"/><line x1="446.4" y1="100.0" x2="472.4" y2="100.0" stroke="#f3a83a" stroke-width="1.1" opacity="0.7"/></g>
<text x="489.4" y="93.0" font-size="16" fill="#e8eefc" font-weight="bold">labpallas</text>
<text x="489.4" y="112.0" font-size="12" fill="#8fa3c8">Storage account</text>
<rect x="802.4" y="56.0" width="208" height="80" rx="11" fill="url(#cg)" stroke="#b9a7ff" stroke-width="1.8" filter="url(#sf)"/>
<rect x="802.4" y="56.0" width="6" height="80" rx="3" fill="#b9a7ff"/>
<g><circle cx="834.4000000000001" cy="88.0" r="5.5" fill="none" stroke="#b9a7ff" stroke-width="2"/><path d="M824.4000000000001,106.0 a10,10 0 0 1 20,0" fill="none" stroke="#b9a7ff" stroke-width="2"/></g>
<text x="864.4" y="93.0" font-size="16" fill="#e8eefc" font-weight="bold">Alex · Jim</text>
<text x="864.4" y="112.0" font-size="12" fill="#8fa3c8">Service Principals</text>
<rect x="271.8" y="73.0" width="126" height="19" rx="9.5" fill="#05070f" stroke="#f3a83a" stroke-width="1" opacity="0.97"/>
<text x="334.9" y="87.0" font-size="11.5" fill="#f3a83a" text-anchor="middle">storage info leak</text>
<rect x="653.4" y="73.0" width="113" height="19" rx="9.5" fill="#05070f" stroke="#f3a83a" stroke-width="1" opacity="0.97"/>
<text x="709.9" y="87.0" font-size="11.5" fill="#f3a83a" text-anchor="middle">credential leak</text>
</svg>