<svg xmlns="http://www.w3.org/2000/svg" width="647" height="166" viewBox="0 0 647 166" font-family="monospace">
<defs>
<radialGradient id="bg" cx="50%" cy="38%" r="90%"><stop offset="0%" stop-color="#0b1330"/><stop offset="100%" stop-color="#05070f"/></radialGradient>
<linearGradient id="cg" x1="0" y1="0" x2="0" y2="1"><stop offset="0%" stop-color="#13203f"/><stop offset="100%" stop-color="#0e1730"/></linearGradient>
<filter id="sf" x="-40%" y="-40%" width="180%" height="180%"><feDropShadow dx="0" dy="2" stdDeviation="4" flood-color="#000" flood-opacity="0.5"/></filter>
</defs>
<rect width="647" height="166" fill="url(#bg)"/>
<g><circle cx="218.4" cy="133.8" r="0.5" fill="#cfe0ff" opacity="0.34"/><circle cx="462.1" cy="67.3" r="0.5" fill="#cfe0ff" opacity="0.45"/><circle cx="492.7" cy="110.8" r="0.7" fill="#cfe0ff" opacity="0.35"/><circle cx="119.1" cy="160.9" r="0.5" fill="#cfe0ff" opacity="0.31"/><circle cx="436.9" cy="120.9" r="1.0" fill="#cfe0ff" opacity="0.17"/><circle cx="414.6" cy="141.4" r="0.5" fill="#cfe0ff" opacity="0.19"/><circle cx="514.1" cy="26.5" r="0.5" fill="#cfe0ff" opacity="0.40"/><circle cx="394.1" cy="151.8" r="0.5" fill="#cfe0ff" opacity="0.29"/><circle cx="480.5" cy="132.2" r="0.5" fill="#cfe0ff" opacity="0.50"/><circle cx="330.4" cy="118.0" r="1.0" fill="#cfe0ff" opacity="0.44"/><circle cx="33.4" cy="111.0" r="1.0" fill="#cfe0ff" opacity="0.58"/><circle cx="156.9" cy="76.9" r="0.5" fill="#cfe0ff" opacity="0.38"/><circle cx="574.5" cy="155.8" r="1.0" fill="#cfe0ff" opacity="0.48"/><circle cx="483.8" cy="77.5" r="0.5" fill="#cfe0ff" opacity="0.17"/><circle cx="472.8" cy="98.5" r="0.7" fill="#cfe0ff" opacity="0.28"/><circle cx="358.4" cy="35.3" r="0.5" fill="#cfe0ff" opacity="0.54"/><circle cx="150.4" cy="31.9" r="0.7" fill="#cfe0ff" opacity="0.36"/><circle cx="275.7" cy="91.8" r="0.7" fill="#cfe0ff" opacity="0.52"/><circle cx="334.8" cy="103.3" r="0.7" fill="#cfe0ff" opacity="0.57"/><circle cx="396.7" cy="68.0" r="0.5" fill="#cfe0ff" opacity="0.43"/><circle cx="519.3" cy="133.2" r="1.0" fill="#cfe0ff" opacity="0.54"/><circle cx="272.4" cy="112.3" r="1.0" fill="#cfe0ff" opacity="0.54"/><circle cx="313.3" cy="74.5" r="0.5" fill="#cfe0ff" opacity="0.57"/><circle cx="315.7" cy="81.4" r="0.5" fill="#cfe0ff" opacity="0.25"/><circle cx="131.8" cy="163.6" r="0.5" fill="#cfe0ff" opacity="0.40"/><circle cx="173.5" cy="42.3" r="1.0" fill="#cfe0ff" opacity="0.29"/><circle cx="370.9" cy="66.8" r="0.5" fill="#cfe0ff" opacity="0.59"/><circle cx="614.7" cy="105.3" r="0.5" fill="#cfe0ff" opacity="0.54"/><circle cx="74.2" cy="4.0" r="1.0" fill="#cfe0ff" opacity="0.16"/><circle cx="613.2" cy="93.1" r="0.7" fill="#cfe0ff" opacity="0.32"/><circle cx="626.7" cy="148.6" r="1.0" fill="#cfe0ff" opacity="0.28"/><circle cx="105.6" cy="135.3" r="0.5" fill="#cfe0ff" opacity="0.21"/><circle cx="186.7" cy="36.6" r="0.5" fill="#cfe0ff" opacity="0.48"/><circle cx="262.5" cy="60.4" r="0.7" fill="#cfe0ff" opacity="0.53"/><circle cx="512.9" cy="75.1" r="1.0" fill="#cfe0ff" opacity="0.53"/><circle cx="303.7" cy="3.9" r="1.0" fill="#cfe0ff" opacity="0.24"/><circle cx="377.3" cy="38.2" r="0.7" fill="#cfe0ff" opacity="0.45"/><circle cx="523.0" cy="31.2" r="1.0" fill="#cfe0ff" opacity="0.31"/><circle cx="453.2" cy="13.1" r="1.0" fill="#cfe0ff" opacity="0.20"/><circle cx="153.1" cy="3.8" r="0.5" fill="#cfe0ff" opacity="0.28"/><circle cx="485.4" cy="4.7" r="0.7" fill="#cfe0ff" opacity="0.34"/><circle cx="297.9" cy="118.1" r="0.5" fill="#cfe0ff" opacity="0.53"/><circle cx="557.7" cy="23.6" r="0.7" fill="#cfe0ff" opacity="0.57"/><circle cx="499.9" cy="27.2" r="1.0" fill="#cfe0ff" opacity="0.56"/><circle cx="543.5" cy="15.9" r="0.7" fill="#cfe0ff" opacity="0.52"/><circle cx="230.2" cy="21.9" r="0.5" fill="#cfe0ff" opacity="0.29"/><circle cx="570.9" cy="127.2" r="1.0" fill="#cfe0ff" opacity="0.39"/><circle cx="60.9" cy="21.6" r="1.0" fill="#cfe0ff" opacity="0.48"/><circle cx="203.3" cy="21.1" r="0.5" fill="#cfe0ff" opacity="0.19"/><circle cx="615.1" cy="50.7" r="0.7" fill="#cfe0ff" opacity="0.52"/><circle cx="404.2" cy="145.9" r="0.5" fill="#cfe0ff" opacity="0.24"/><circle cx="250.8" cy="99.5" r="0.5" fill="#cfe0ff" opacity="0.28"/><circle cx="179.4" cy="63.7" r="0.5" fill="#cfe0ff" opacity="0.55"/></g>
<rect x="3" y="3" width="641" height="160" rx="12" fill="none" stroke="#26345c" stroke-width="1.2" opacity="0.7"/>
<path d="M224.0,96.0 Q312.5,72.0 390.4,93.1" fill="none" stroke="#ff5d5d" stroke-width="7" opacity="0.12" stroke-linecap="round"/>
<path d="M224.0,96.0 Q312.5,72.0 390.4,93.1" fill="none" stroke="#ff5d5d" stroke-width="2.6" stroke-linecap="round"/>
<path d="M401.0,96.0 L388.3,97.0 L393.4,93.9 L390.5,88.8 Z" fill="#ff5d5d"/>
<rect x="30.0" y="56.0" width="190" height="80" rx="11" fill="url(#cg)" stroke="#ef7c28" stroke-width="1.8" filter="url(#sf)"/>
<rect x="30.0" y="56.0" width="6" height="80" rx="3" fill="#ef7c28"/>
<g><rect x="49.0" y="82.0" width="26" height="24" rx="3" fill="none" stroke="#ef7c28" stroke-width="2"/><line x1="49.0" y1="88.0" x2="75.0" y2="88.0" stroke="#ef7c28" stroke-width="1.1" opacity="0.7"/><line x1="49.0" y1="94.0" x2="75.0" y2="94.0" stroke="#ef7c28" stroke-width="1.1" opacity="0.7"/><line x1="49.0" y1="100.0" x2="75.0" y2="100.0" stroke="#ef7c28" stroke-width="1.1" opacity="0.7"/></g>
<text x="92.0" y="93.0" font-size="16" fill="#e8eefc" font-weight="bold">labpallas</text>
<text x="92.0" y="112.0" font-size="12" fill="#8fa3c8">Storage account</text>
<rect x="405.0" y="56.0" width="212" height="80" rx="11" fill="url(#cg)" stroke="#ffcf4d" stroke-width="1.8" filter="url(#sf)"/>
<rect x="405.0" y="56.0" width="6" height="80" rx="3" fill="#ffcf4d"/>
<g><circle cx="437.0" cy="94.0" r="13" fill="none" stroke="#ffcf4d" stroke-width="2"/><ellipse cx="437.0" cy="94.0" rx="5.5" ry="13" fill="none" stroke="#ffcf4d" stroke-width="1.5"/><line x1="424.0" y1="94.0" x2="450.0" y2="94.0" stroke="#ffcf4d" stroke-width="1.5"/></g>
<text x="467.0" y="93.0" font-size="16" fill="#e8eefc" font-weight="bold">Tycho Terminal</text>
<text x="467.0" y="112.0" font-size="12" fill="#8fa3c8">App Service</text>
<rect x="229.6" y="73.0" width="166" height="19" rx="9.5" fill="#05070f" stroke="#ff5d5d" stroke-width="1" opacity="0.97"/>
<text x="312.5" y="87.0" font-size="11.5" fill="#ff5d5d" text-anchor="middle">command execution (SCM)</text>
</svg>