<svg xmlns="http://www.w3.org/2000/svg" width="647" height="166" viewBox="0 0 647 166" font-family="monospace">
<defs>
<radialGradient id="bg" cx="50%" cy="38%" r="90%"><stop offset="0%" stop-color="#0b1330"/><stop offset="100%" stop-color="#05070f"/></radialGradient>
<linearGradient id="cg" x1="0" y1="0" x2="0" y2="1"><stop offset="0%" stop-color="#13203f"/><stop offset="100%" stop-color="#0e1730"/></linearGradient>
<filter id="sf" x="-40%" y="-40%" width="180%" height="180%"><feDropShadow dx="0" dy="2" stdDeviation="4" flood-color="#000" flood-opacity="0.5"/></filter>
</defs>
<rect width="647" height="166" fill="url(#bg)"/>
<g><circle cx="404.6" cy="45.5" r="1.0" fill="#cfe0ff" opacity="0.44"/><circle cx="214.2" cy="71.4" r="0.5" fill="#cfe0ff" opacity="0.49"/><circle cx="28.8" cy="139.1" r="0.5" fill="#cfe0ff" opacity="0.34"/><circle cx="628.4" cy="154.9" r="0.7" fill="#cfe0ff" opacity="0.36"/><circle cx="125.5" cy="37.9" r="1.0" fill="#cfe0ff" opacity="0.43"/><circle cx="556.5" cy="59.5" r="0.5" fill="#cfe0ff" opacity="0.50"/><circle cx="297.0" cy="29.8" r="0.7" fill="#cfe0ff" opacity="0.36"/><circle cx="254.5" cy="158.6" r="0.7" fill="#cfe0ff" opacity="0.45"/><circle cx="476.6" cy="109.5" r="0.5" fill="#cfe0ff" opacity="0.49"/><circle cx="184.3" cy="82.4" r="0.5" fill="#cfe0ff" opacity="0.36"/><circle cx="280.0" cy="113.1" r="1.0" fill="#cfe0ff" opacity="0.36"/><circle cx="67.3" cy="143.9" r="0.5" fill="#cfe0ff" opacity="0.26"/><circle cx="642.9" cy="134.9" r="1.0" fill="#cfe0ff" opacity="0.51"/><circle cx="319.9" cy="101.3" r="1.0" fill="#cfe0ff" opacity="0.21"/><circle cx="417.9" cy="111.1" r="0.5" fill="#cfe0ff" opacity="0.19"/><circle cx="589.6" cy="116.4" r="0.5" fill="#cfe0ff" opacity="0.45"/><circle cx="394.7" cy="127.3" r="1.0" fill="#cfe0ff" opacity="0.48"/><circle cx="454.1" cy="22.5" r="0.5" fill="#cfe0ff" opacity="0.31"/><circle cx="394.8" cy="36.0" r="1.0" fill="#cfe0ff" opacity="0.55"/><circle cx="587.6" cy="59.3" r="1.0" fill="#cfe0ff" opacity="0.35"/><circle cx="122.9" cy="161.7" r="1.0" fill="#cfe0ff" opacity="0.17"/><circle cx="450.7" cy="108.5" r="0.5" fill="#cfe0ff" opacity="0.51"/><circle cx="60.0" cy="53.9" r="0.7" fill="#cfe0ff" opacity="0.56"/><circle cx="560.1" cy="132.5" r="0.7" fill="#cfe0ff" opacity="0.17"/><circle cx="378.6" cy="92.2" r="1.0" fill="#cfe0ff" opacity="0.44"/><circle cx="446.5" cy="19.1" r="0.5" fill="#cfe0ff" opacity="0.26"/><circle cx="484.7" cy="58.8" r="0.5" fill="#cfe0ff" opacity="0.30"/><circle cx="504.2" cy="12.9" r="0.5" fill="#cfe0ff" opacity="0.41"/><circle cx="617.8" cy="43.7" r="1.0" fill="#cfe0ff" opacity="0.27"/><circle cx="7.7" cy="3.0" r="0.7" fill="#cfe0ff" opacity="0.53"/><circle cx="32.7" cy="155.6" r="0.5" fill="#cfe0ff" opacity="0.41"/><circle cx="171.6" cy="110.9" r="0.5" fill="#cfe0ff" opacity="0.44"/><circle cx="235.7" cy="25.9" r="0.5" fill="#cfe0ff" opacity="0.34"/><circle cx="234.8" cy="100.5" r="1.0" fill="#cfe0ff" opacity="0.35"/><circle cx="206.3" cy="99.9" r="1.0" fill="#cfe0ff" opacity="0.54"/><circle cx="587.4" cy="58.6" r="0.5" fill="#cfe0ff" opacity="0.24"/><circle cx="47.2" cy="109.6" r="1.0" fill="#cfe0ff" opacity="0.17"/><circle cx="498.0" cy="68.9" r="0.7" fill="#cfe0ff" opacity="0.41"/><circle cx="373.6" cy="142.2" r="0.7" fill="#cfe0ff" opacity="0.41"/><circle cx="54.9" cy="81.8" r="1.0" fill="#cfe0ff" opacity="0.39"/><circle cx="410.6" cy="57.4" r="0.5" fill="#cfe0ff" opacity="0.16"/><circle cx="633.8" cy="63.2" r="0.5" fill="#cfe0ff" opacity="0.44"/><circle cx="376.7" cy="20.3" r="0.5" fill="#cfe0ff" opacity="0.59"/><circle cx="259.6" cy="90.5" r="0.5" fill="#cfe0ff" opacity="0.31"/><circle cx="100.3" cy="43.4" r="0.7" fill="#cfe0ff" opacity="0.16"/><circle cx="442.0" cy="24.5" r="0.7" fill="#cfe0ff" opacity="0.26"/><circle cx="259.1" cy="131.7" r="1.0" fill="#cfe0ff" opacity="0.33"/><circle cx="219.1" cy="141.9" r="0.5" fill="#cfe0ff" opacity="0.33"/><circle cx="530.7" cy="22.7" r="0.5" fill="#cfe0ff" opacity="0.55"/><circle cx="353.7" cy="150.2" r="0.5" fill="#cfe0ff" opacity="0.54"/><circle cx="376.7" cy="28.6" r="1.0" fill="#cfe0ff" opacity="0.36"/><circle cx="585.9" cy="107.1" r="0.5" fill="#cfe0ff" opacity="0.19"/><circle cx="563.2" cy="47.8" r="0.7" fill="#cfe0ff" opacity="0.40"/></g>
<rect x="3" y="3" width="641" height="160" rx="12" fill="none" stroke="#26345c" stroke-width="1.2" opacity="0.7"/>
<path d="M224.0,96.0 Q312.5,72.0 390.4,93.1" fill="none" stroke="#ff5d5d" stroke-width="7" opacity="0.12" stroke-linecap="round"/>
<path d="M224.0,96.0 Q312.5,72.0 390.4,93.1" fill="none" stroke="#ff5d5d" stroke-width="2.6" stroke-linecap="round"/>
<path d="M401.0,96.0 L388.3,97.0 L393.4,93.9 L390.5,88.8 Z" fill="#ff5d5d"/>
<rect x="30.0" y="56.0" width="190" height="80" rx="11" fill="url(#cg)" stroke="#f3a83a" stroke-width="1.8" filter="url(#sf)"/>
<rect x="30.0" y="56.0" width="6" height="80" rx="3" fill="#f3a83a"/>
<g><rect x="49.0" y="82.0" width="26" height="24" rx="3" fill="none" stroke="#f3a83a" stroke-width="2"/><line x1="49.0" y1="88.0" x2="75.0" y2="88.0" stroke="#f3a83a" stroke-width="1.1" opacity="0.7"/><line x1="49.0" y1="94.0" x2="75.0" y2="94.0" stroke="#f3a83a" stroke-width="1.1" opacity="0.7"/><line x1="49.0" y1="100.0" x2="75.0" y2="100.0" stroke="#f3a83a" stroke-width="1.1" opacity="0.7"/></g>
<text x="92.0" y="93.0" font-size="16" fill="#e8eefc" font-weight="bold">labpallas</text>
<text x="92.0" y="112.0" font-size="12" fill="#8fa3c8">Storage account</text>
<rect x="405.0" y="56.0" width="212" height="80" rx="11" fill="url(#cg)" stroke="#ffcf4d" stroke-width="1.8" filter="url(#sf)"/>
<rect x="405.0" y="56.0" width="6" height="80" rx="3" fill="#ffcf4d"/>
<g><circle cx="437.0" cy="94.0" r="13" fill="none" stroke="#ffcf4d" stroke-width="2"/><ellipse cx="437.0" cy="94.0" rx="5.5" ry="13" fill="none" stroke="#ffcf4d" stroke-width="1.5"/><line x1="424.0" y1="94.0" x2="450.0" y2="94.0" stroke="#ffcf4d" stroke-width="1.5"/></g>
<text x="467.0" y="93.0" font-size="16" fill="#e8eefc" font-weight="bold">Tycho Terminal</text>
<text x="467.0" y="112.0" font-size="12" fill="#8fa3c8">App Service</text>
<rect x="229.6" y="73.0" width="166" height="19" rx="9.5" fill="#05070f" stroke="#ff5d5d" stroke-width="1" opacity="0.97"/>
<text x="312.5" y="87.0" font-size="11.5" fill="#ff5d5d" text-anchor="middle">command execution (SCM)</text>
</svg>