<svg xmlns="http://www.w3.org/2000/svg" width="647" height="166" viewBox="0 0 647 166" font-family="monospace">
<defs>
<radialGradient id="bg" cx="50%" cy="38%" r="90%"><stop offset="0%" stop-color="#0b1330"/><stop offset="100%" stop-color="#05070f"/></radialGradient>
<linearGradient id="cg" x1="0" y1="0" x2="0" y2="1"><stop offset="0%" stop-color="#13203f"/><stop offset="100%" stop-color="#0e1730"/></linearGradient>
<filter id="sf" x="-40%" y="-40%" width="180%" height="180%"><feDropShadow dx="0" dy="2" stdDeviation="4" flood-color="#000" flood-opacity="0.5"/></filter>
</defs>
<rect width="647" height="166" fill="url(#bg)"/>
<g><circle cx="376.6" cy="127.9" r="0.5" fill="#cfe0ff" opacity="0.60"/><circle cx="83.1" cy="93.5" r="0.7" fill="#cfe0ff" opacity="0.41"/><circle cx="527.4" cy="40.6" r="0.7" fill="#cfe0ff" opacity="0.21"/><circle cx="144.9" cy="140.1" r="0.5" fill="#cfe0ff" opacity="0.38"/><circle cx="204.8" cy="85.9" r="0.7" fill="#cfe0ff" opacity="0.28"/><circle cx="54.2" cy="123.7" r="1.0" fill="#cfe0ff" opacity="0.24"/><circle cx="469.1" cy="98.9" r="0.5" fill="#cfe0ff" opacity="0.36"/><circle cx="403.9" cy="68.7" r="0.7" fill="#cfe0ff" opacity="0.27"/><circle cx="327.6" cy="117.1" r="1.0" fill="#cfe0ff" opacity="0.18"/><circle cx="402.2" cy="91.9" r="0.7" fill="#cfe0ff" opacity="0.16"/><circle cx="604.2" cy="68.6" r="0.7" fill="#cfe0ff" opacity="0.55"/><circle cx="98.3" cy="128.7" r="0.7" fill="#cfe0ff" opacity="0.40"/><circle cx="9.4" cy="163.7" r="0.7" fill="#cfe0ff" opacity="0.52"/><circle cx="132.0" cy="6.4" r="0.7" fill="#cfe0ff" opacity="0.24"/><circle cx="370.2" cy="16.0" r="0.7" fill="#cfe0ff" opacity="0.57"/><circle cx="491.8" cy="11.2" r="0.7" fill="#cfe0ff" opacity="0.43"/><circle cx="209.9" cy="46.0" r="1.0" fill="#cfe0ff" opacity="0.37"/><circle cx="21.9" cy="33.5" r="1.0" fill="#cfe0ff" opacity="0.50"/><circle cx="56.8" cy="52.8" r="0.7" fill="#cfe0ff" opacity="0.43"/><circle cx="483.2" cy="33.2" r="0.5" fill="#cfe0ff" opacity="0.21"/><circle cx="410.7" cy="101.6" r="1.0" fill="#cfe0ff" opacity="0.18"/><circle cx="415.2" cy="76.7" r="0.7" fill="#cfe0ff" opacity="0.33"/><circle cx="370.4" cy="147.2" r="1.0" fill="#cfe0ff" opacity="0.48"/><circle cx="208.5" cy="103.9" r="1.0" fill="#cfe0ff" opacity="0.49"/><circle cx="501.9" cy="36.4" r="0.5" fill="#cfe0ff" opacity="0.31"/><circle cx="277.6" cy="102.6" r="0.7" fill="#cfe0ff" opacity="0.57"/><circle cx="502.5" cy="145.6" r="0.7" fill="#cfe0ff" opacity="0.24"/><circle cx="537.7" cy="3.9" r="1.0" fill="#cfe0ff" opacity="0.59"/><circle cx="422.1" cy="101.2" r="1.0" fill="#cfe0ff" opacity="0.45"/><circle cx="575.1" cy="153.4" r="0.7" fill="#cfe0ff" opacity="0.48"/><circle cx="42.3" cy="139.5" r="0.7" fill="#cfe0ff" opacity="0.30"/><circle cx="449.3" cy="134.1" r="1.0" fill="#cfe0ff" opacity="0.55"/><circle cx="81.1" cy="83.6" r="0.7" fill="#cfe0ff" opacity="0.30"/><circle cx="52.0" cy="101.2" r="0.5" fill="#cfe0ff" opacity="0.58"/><circle cx="488.5" cy="144.4" r="1.0" fill="#cfe0ff" opacity="0.32"/><circle cx="417.4" cy="45.0" r="0.5" fill="#cfe0ff" opacity="0.17"/><circle cx="194.8" cy="96.3" r="0.5" fill="#cfe0ff" opacity="0.49"/><circle cx="161.1" cy="15.6" r="0.5" fill="#cfe0ff" opacity="0.31"/><circle cx="37.7" cy="39.9" r="0.7" fill="#cfe0ff" opacity="0.25"/><circle cx="330.8" cy="119.3" r="1.0" fill="#cfe0ff" opacity="0.17"/><circle cx="636.4" cy="150.2" r="0.5" fill="#cfe0ff" opacity="0.16"/><circle cx="176.1" cy="76.9" r="1.0" fill="#cfe0ff" opacity="0.40"/><circle cx="159.1" cy="86.4" r="1.0" fill="#cfe0ff" opacity="0.47"/><circle cx="108.4" cy="155.6" r="0.5" fill="#cfe0ff" opacity="0.54"/><circle cx="218.8" cy="51.8" r="0.7" fill="#cfe0ff" opacity="0.55"/><circle cx="584.9" cy="46.2" r="0.7" fill="#cfe0ff" opacity="0.51"/><circle cx="410.8" cy="44.5" r="1.0" fill="#cfe0ff" opacity="0.28"/><circle cx="74.1" cy="165.4" r="1.0" fill="#cfe0ff" opacity="0.27"/><circle cx="474.3" cy="82.5" r="0.5" fill="#cfe0ff" opacity="0.37"/><circle cx="538.9" cy="143.6" r="1.0" fill="#cfe0ff" opacity="0.37"/><circle cx="301.4" cy="101.3" r="0.7" fill="#cfe0ff" opacity="0.31"/><circle cx="258.8" cy="48.9" r="0.5" fill="#cfe0ff" opacity="0.35"/><circle cx="325.5" cy="14.5" r="1.0" fill="#cfe0ff" opacity="0.59"/></g>
<rect x="3" y="3" width="641" height="160" rx="12" fill="none" stroke="#26345c" stroke-width="1.2" opacity="0.7"/>
<path d="M246.4,96.0 Q334.9,72.0 412.8,93.1" fill="none" stroke="#37d6e6" stroke-width="7" opacity="0.12" stroke-linecap="round"/>
<path d="M246.4,96.0 Q334.9,72.0 412.8,93.1" fill="none" stroke="#37d6e6" stroke-width="2.6" stroke-linecap="round"/>
<path d="M423.4,96.0 L410.7,97.0 L415.8,93.9 L412.9,88.8 Z" fill="#37d6e6"/>
<rect x="30.0" y="56.0" width="212" height="80" rx="11" fill="url(#cg)" stroke="#ffcf4d" stroke-width="1.8" filter="url(#sf)"/>
<rect x="30.0" y="56.0" width="6" height="80" rx="3" fill="#ffcf4d"/>
<g><circle cx="61.999999999999986" cy="94.0" r="13" fill="none" stroke="#ffcf4d" stroke-width="2"/><ellipse cx="61.999999999999986" cy="94.0" rx="5.5" ry="13" fill="none" stroke="#ffcf4d" stroke-width="1.5"/><line x1="48.999999999999986" y1="94.0" x2="74.99999999999999" y2="94.0" stroke="#ffcf4d" stroke-width="1.5"/></g>
<text x="92.0" y="93.0" font-size="16" fill="#e8eefc" font-weight="bold">Tycho Terminal</text>
<text x="92.0" y="112.0" font-size="12" fill="#8fa3c8">App Service</text>
<rect x="427.4" y="56.0" width="190" height="80" rx="11" fill="url(#cg)" stroke="#37d6e6" stroke-width="1.8" filter="url(#sf)"/>
<rect x="427.4" y="56.0" width="6" height="80" rx="3" fill="#37d6e6"/>
<g><ellipse cx="459.4" cy="84.0" rx="13" ry="4.5" fill="none" stroke="#37d6e6" stroke-width="2"/><path d="M446.4,84.0 V104.0 A13,4.5 0 0 0 472.4,104.0 V84.0" fill="none" stroke="#37d6e6" stroke-width="2"/><ellipse cx="459.4" cy="94.0" rx="13" ry="4.5" fill="none" stroke="#37d6e6" stroke-width="1.2" opacity="0.7"/></g>
<text x="489.4" y="93.0" font-size="16" fill="#e8eefc" font-weight="bold">tycho-db</text>
<text x="489.4" y="112.0" font-size="12" fill="#8fa3c8">Azure SQL</text>
<rect x="248.7" y="73.0" width="172" height="19" rx="9.5" fill="#05070f" stroke="#37d6e6" stroke-width="1" opacity="0.97"/>
<text x="334.9" y="87.0" font-size="11.5" fill="#37d6e6" text-anchor="middle">SQL privilege escalation</text>
</svg>