<svg xmlns="http://www.w3.org/2000/svg" width="647" height="166" viewBox="0 0 647 166" font-family="monospace">
<defs>
<radialGradient id="bg" cx="50%" cy="38%" r="90%"><stop offset="0%" stop-color="#0b1330"/><stop offset="100%" stop-color="#05070f"/></radialGradient>
<linearGradient id="cg" x1="0" y1="0" x2="0" y2="1"><stop offset="0%" stop-color="#13203f"/><stop offset="100%" stop-color="#0e1730"/></linearGradient>
<filter id="sf" x="-40%" y="-40%" width="180%" height="180%"><feDropShadow dx="0" dy="2" stdDeviation="4" flood-color="#000" flood-opacity="0.5"/></filter>
</defs>
<rect width="647" height="166" fill="url(#bg)"/>
<g><circle cx="411.6" cy="7.5" r="0.7" fill="#cfe0ff" opacity="0.33"/><circle cx="135.1" cy="115.1" r="1.0" fill="#cfe0ff" opacity="0.42"/><circle cx="283.5" cy="59.4" r="0.7" fill="#cfe0ff" opacity="0.30"/><circle cx="461.4" cy="131.5" r="0.7" fill="#cfe0ff" opacity="0.38"/><circle cx="585.5" cy="108.1" r="1.0" fill="#cfe0ff" opacity="0.34"/><circle cx="450.6" cy="86.9" r="0.7" fill="#cfe0ff" opacity="0.25"/><circle cx="640.0" cy="73.9" r="0.5" fill="#cfe0ff" opacity="0.42"/><circle cx="141.4" cy="13.8" r="0.7" fill="#cfe0ff" opacity="0.55"/><circle cx="370.2" cy="160.3" r="1.0" fill="#cfe0ff" opacity="0.53"/><circle cx="523.8" cy="53.9" r="1.0" fill="#cfe0ff" opacity="0.31"/><circle cx="354.5" cy="107.1" r="0.7" fill="#cfe0ff" opacity="0.48"/><circle cx="474.5" cy="32.7" r="0.5" fill="#cfe0ff" opacity="0.17"/><circle cx="167.0" cy="40.2" r="0.5" fill="#cfe0ff" opacity="0.44"/><circle cx="118.9" cy="127.7" r="0.5" fill="#cfe0ff" opacity="0.47"/><circle cx="640.8" cy="123.8" r="0.7" fill="#cfe0ff" opacity="0.16"/><circle cx="531.7" cy="25.2" r="0.7" fill="#cfe0ff" opacity="0.22"/><circle cx="320.1" cy="90.0" r="1.0" fill="#cfe0ff" opacity="0.25"/><circle cx="537.5" cy="4.2" r="0.7" fill="#cfe0ff" opacity="0.57"/><circle cx="455.0" cy="3.1" r="0.5" fill="#cfe0ff" opacity="0.33"/><circle cx="54.1" cy="12.7" r="1.0" fill="#cfe0ff" opacity="0.55"/><circle cx="523.9" cy="142.8" r="0.5" fill="#cfe0ff" opacity="0.17"/><circle cx="580.6" cy="46.6" r="0.5" fill="#cfe0ff" opacity="0.26"/><circle cx="574.1" cy="22.1" r="0.7" fill="#cfe0ff" opacity="0.47"/><circle cx="471.2" cy="17.5" r="0.7" fill="#cfe0ff" opacity="0.24"/><circle cx="298.3" cy="150.2" r="0.7" fill="#cfe0ff" opacity="0.56"/><circle cx="86.8" cy="30.8" r="1.0" fill="#cfe0ff" opacity="0.16"/><circle cx="484.7" cy="34.7" r="0.7" fill="#cfe0ff" opacity="0.24"/><circle cx="491.5" cy="66.3" r="0.7" fill="#cfe0ff" opacity="0.30"/><circle cx="111.3" cy="41.4" r="0.5" fill="#cfe0ff" opacity="0.23"/><circle cx="410.2" cy="0.3" r="1.0" fill="#cfe0ff" opacity="0.16"/><circle cx="12.7" cy="141.6" r="1.0" fill="#cfe0ff" opacity="0.52"/><circle cx="400.7" cy="102.8" r="0.7" fill="#cfe0ff" opacity="0.55"/><circle cx="353.1" cy="166.0" r="0.5" fill="#cfe0ff" opacity="0.56"/><circle cx="556.9" cy="140.6" r="0.7" fill="#cfe0ff" opacity="0.32"/><circle cx="441.0" cy="132.6" r="0.5" fill="#cfe0ff" opacity="0.33"/><circle cx="374.1" cy="22.3" r="0.7" fill="#cfe0ff" opacity="0.20"/><circle cx="241.1" cy="137.7" r="0.5" fill="#cfe0ff" opacity="0.45"/><circle cx="407.4" cy="33.1" r="1.0" fill="#cfe0ff" opacity="0.54"/><circle cx="478.7" cy="6.5" r="1.0" fill="#cfe0ff" opacity="0.24"/><circle cx="151.6" cy="143.5" r="1.0" fill="#cfe0ff" opacity="0.33"/><circle cx="436.6" cy="107.0" r="0.7" fill="#cfe0ff" opacity="0.25"/><circle cx="226.9" cy="148.3" r="0.7" fill="#cfe0ff" opacity="0.36"/><circle cx="428.1" cy="88.5" r="0.7" fill="#cfe0ff" opacity="0.22"/><circle cx="294.9" cy="149.0" r="0.5" fill="#cfe0ff" opacity="0.32"/><circle cx="179.3" cy="139.4" r="0.7" fill="#cfe0ff" opacity="0.51"/><circle cx="326.1" cy="115.3" r="0.5" fill="#cfe0ff" opacity="0.45"/><circle cx="368.2" cy="143.9" r="0.5" fill="#cfe0ff" opacity="0.43"/><circle cx="310.4" cy="65.2" r="0.5" fill="#cfe0ff" opacity="0.32"/><circle cx="28.2" cy="5.3" r="0.7" fill="#cfe0ff" opacity="0.48"/><circle cx="505.6" cy="10.3" r="0.5" fill="#cfe0ff" opacity="0.34"/><circle cx="457.3" cy="8.6" r="0.7" fill="#cfe0ff" opacity="0.35"/><circle cx="199.6" cy="94.0" r="0.7" fill="#cfe0ff" opacity="0.21"/><circle cx="21.3" cy="151.5" r="0.7" fill="#cfe0ff" opacity="0.30"/></g>
<rect x="3" y="3" width="641" height="160" rx="12" fill="none" stroke="#26345c" stroke-width="1.2" opacity="0.7"/>
<path d="M246.4,96.0 Q334.9,72.0 412.8,93.1" fill="none" stroke="#37d6e6" stroke-width="7" opacity="0.12" stroke-linecap="round"/>
<path d="M246.4,96.0 Q334.9,72.0 412.8,93.1" fill="none" stroke="#37d6e6" stroke-width="2.6" stroke-linecap="round"/>
<path d="M423.4,96.0 L410.7,97.0 L415.8,93.9 L412.9,88.8 Z" fill="#37d6e6"/>
<rect x="30.0" y="56.0" width="212" height="80" rx="11" fill="url(#cg)" stroke="#ffcf4d" stroke-width="1.8" filter="url(#sf)"/>
<rect x="30.0" y="56.0" width="6" height="80" rx="3" fill="#ffcf4d"/>
<g><circle cx="61.999999999999986" cy="94.0" r="13" fill="none" stroke="#ffcf4d" stroke-width="2"/><ellipse cx="61.999999999999986" cy="94.0" rx="5.5" ry="13" fill="none" stroke="#ffcf4d" stroke-width="1.5"/><line x1="48.999999999999986" y1="94.0" x2="74.99999999999999" y2="94.0" stroke="#ffcf4d" stroke-width="1.5"/></g>
<text x="92.0" y="93.0" font-size="16" fill="#e8eefc" font-weight="bold">Tycho Terminal</text>
<text x="92.0" y="112.0" font-size="12" fill="#8fa3c8">App Service</text>
<rect x="427.4" y="56.0" width="190" height="80" rx="11" fill="url(#cg)" stroke="#37d6e6" stroke-width="1.8" filter="url(#sf)"/>
<rect x="427.4" y="56.0" width="6" height="80" rx="3" fill="#37d6e6"/>
<g><ellipse cx="459.4" cy="84.0" rx="13" ry="4.5" fill="none" stroke="#37d6e6" stroke-width="2"/><path d="M446.4,84.0 V104.0 A13,4.5 0 0 0 472.4,104.0 V84.0" fill="none" stroke="#37d6e6" stroke-width="2"/><ellipse cx="459.4" cy="94.0" rx="13" ry="4.5" fill="none" stroke="#37d6e6" stroke-width="1.2" opacity="0.7"/></g>
<text x="489.4" y="93.0" font-size="16" fill="#e8eefc" font-weight="bold">tycho-db</text>
<text x="489.4" y="112.0" font-size="12" fill="#8fa3c8">Azure SQL</text>
<rect x="248.7" y="73.0" width="172" height="19" rx="9.5" fill="#05070f" stroke="#37d6e6" stroke-width="1" opacity="0.97"/>
<text x="334.9" y="87.0" font-size="11.5" fill="#37d6e6" text-anchor="middle">SQL privilege escalation</text>
</svg>